M48
; DRILL file KiCad 10.0.4 date 2026-07-07T13:04:49
; FORMAT={-:-/ absolute / metric / decimal}
; #@! TF.CreationDate,2026-07-07T13:04:49+03:00
; #@! TF.GenerationSoftware,Kicad,Pcbnew,10.0.4
; #@! TF.FileFunction,Plated,1,2,PTH
FMAT,2
METRIC
; #@! TA.AperFunction,Plated,PTH,ViaDrill
T1C0.300
; #@! TA.AperFunction,Plated,PTH,ComponentDrill
T2C0.600
; #@! TA.AperFunction,Plated,PTH,ComponentDrill
T3C1.000
%
G90
G05
T1
X146.92Y-67.31
X153.16Y-63.29
X154.25Y-63.89
X154.81Y-47.46
X154.96Y-43.2
X155.16Y-59.61
X155.477Y-58.395
X155.65Y-47.0
X155.84Y-60.3
X156.02Y-64.49
X156.348Y-57.569
X156.601Y-54.92
X156.69Y-40.44
X156.91Y-58.98
X157.07Y-62.17
X157.165Y-51.325
X157.18Y-61.37
X158.13Y-69.4
X158.28Y-65.09
X158.9Y-57.41
X158.92Y-50.04
X159.41Y-68.84
X159.42Y-43.09
X159.746Y-64.28
X159.87Y-67.4
X160.2Y-42.17
X160.546Y-64.28
X161.533Y-59.24
X161.72Y-51.67
X161.833Y-63.87
X161.85Y-73.29
X162.1Y-56.72
X162.8Y-63.84
X163.16Y-59.67
X163.38Y-70.42
X163.7Y-56.92
X163.8Y-61.71
X163.8Y-60.26
X163.805Y-62.564
X163.902Y-63.383
X163.95Y-67.336
X164.265Y-41.515
X164.63Y-55.18
X164.67Y-40.37
X164.783Y-67.321
X165.62Y-55.64
X165.744Y-70.194
X166.14Y-63.37
X166.14Y-64.17
X166.14Y-64.97
X166.207Y-65.767
X166.47Y-59.32
X166.5Y-66.512
X166.89Y-74.34
X167.07Y-55.7
X167.17Y-42.79
X167.26Y-60.97
X167.322Y-60.165
X167.35Y-59.24
X168.04Y-42.16
X168.69Y-58.48
X168.91Y-41.44
X174.21Y-109.01
X174.51Y-53.51
X174.67Y-91.66
T3
X144.76Y-33.62
X144.76Y-36.16
X144.76Y-38.7
X144.76Y-41.24
X144.76Y-43.78
X144.76Y-46.32
X144.76Y-48.86
X144.76Y-51.4
X144.76Y-53.94
X144.76Y-56.48
X144.76Y-59.02
X144.76Y-61.56
X144.76Y-64.1
X144.76Y-66.64
X144.76Y-69.18
X144.76Y-71.72
X144.76Y-74.26
X144.76Y-76.8
X144.76Y-79.34
X144.76Y-81.88
X147.85Y-93.36
X147.85Y-95.9
X147.85Y-98.44
X147.85Y-100.98
X147.85Y-103.52
X147.85Y-106.06
X152.74Y-98.46
X152.74Y-101.0
X152.74Y-103.54
X152.74Y-106.08
X158.19Y-110.0
X160.73Y-110.0
X163.27Y-110.0
X176.54Y-33.62
X176.54Y-36.16
X176.54Y-38.7
X176.54Y-41.24
X176.54Y-43.78
X176.54Y-46.32
X176.54Y-48.86
X176.54Y-51.4
X176.54Y-53.94
X176.54Y-56.48
X176.54Y-59.02
X176.54Y-61.56
X176.54Y-64.1
X176.54Y-66.64
X176.54Y-69.18
X176.54Y-71.72
X176.54Y-74.26
X176.54Y-76.8
X176.54Y-79.34
X176.54Y-81.88
T2
G00X156.41Y-34.4
M15
G01X156.41Y-33.8
M16
G05
G00X156.41Y-38.83
M15
G01X156.41Y-37.73
M16
G05
G00X165.05Y-34.4
M15
G01X165.05Y-33.8
M16
G05
G00X165.05Y-38.83
M15
G01X165.05Y-37.73
M16
G05
M30
