%TF.GenerationSoftware,KiCad,Pcbnew,10.0.4*%
%TF.CreationDate,2026-07-07T13:04:47+03:00*%
%TF.ProjectId,OzzyBoard,4f7a7a79-426f-4617-9264-2e6b69636164,V0.5*%
%TF.SameCoordinates,Original*%
%TF.FileFunction,Soldermask,Top*%
%TF.FilePolarity,Negative*%
%FSLAX46Y46*%
G04 Gerber Fmt 4.6, Leading zero omitted, Abs format (unit mm)*
G04 Created by KiCad (PCBNEW 10.0.4) date 2026-07-07 13:04:47*
%MOMM*%
%LPD*%
G01*
G04 APERTURE LIST*
G04 Aperture macros list*
%AMRoundRect*
0 Rectangle with rounded corners*
0 $1 Rounding radius*
0 $2 $3 $4 $5 $6 $7 $8 $9 X,Y pos of 4 corners*
0 Add a 4 corners polygon primitive as box body*
4,1,4,$2,$3,$4,$5,$6,$7,$8,$9,$2,$3,0*
0 Add four circle primitives for the rounded corners*
1,1,$1+$1,$2,$3*
1,1,$1+$1,$4,$5*
1,1,$1+$1,$6,$7*
1,1,$1+$1,$8,$9*
0 Add four rect primitives between the rounded corners*
20,1,$1+$1,$2,$3,$4,$5,0*
20,1,$1+$1,$4,$5,$6,$7,0*
20,1,$1+$1,$6,$7,$8,$9,0*
20,1,$1+$1,$8,$9,$2,$3,0*%
G04 Aperture macros list end*
%ADD10RoundRect,0.135000X0.135000X0.185000X-0.135000X0.185000X-0.135000X-0.185000X0.135000X-0.185000X0*%
%ADD11RoundRect,0.140000X0.170000X-0.140000X0.170000X0.140000X-0.170000X0.140000X-0.170000X-0.140000X0*%
%ADD12RoundRect,0.140000X-0.170000X0.140000X-0.170000X-0.140000X0.170000X-0.140000X0.170000X0.140000X0*%
%ADD13RoundRect,0.250000X0.450000X0.350000X-0.450000X0.350000X-0.450000X-0.350000X0.450000X-0.350000X0*%
%ADD14RoundRect,0.050000X-0.387500X-0.050000X0.387500X-0.050000X0.387500X0.050000X-0.387500X0.050000X0*%
%ADD15RoundRect,0.050000X-0.050000X-0.387500X0.050000X-0.387500X0.050000X0.387500X-0.050000X0.387500X0*%
%ADD16R,3.200000X3.200000*%
%ADD17RoundRect,0.140000X0.140000X0.170000X-0.140000X0.170000X-0.140000X-0.170000X0.140000X-0.170000X0*%
%ADD18C,0.650000*%
%ADD19RoundRect,0.150000X0.150000X0.575000X-0.150000X0.575000X-0.150000X-0.575000X0.150000X-0.575000X0*%
%ADD20RoundRect,0.075000X0.075000X0.650000X-0.075000X0.650000X-0.075000X-0.650000X0.075000X-0.650000X0*%
%ADD21O,1.000000X2.100000*%
%ADD22O,1.000000X1.600000*%
%ADD23RoundRect,0.140000X-0.140000X-0.170000X0.140000X-0.170000X0.140000X0.170000X-0.140000X0.170000X0*%
%ADD24RoundRect,0.135000X-0.135000X-0.185000X0.135000X-0.185000X0.135000X0.185000X-0.135000X0.185000X0*%
%ADD25RoundRect,0.150000X0.150000X-0.587500X0.150000X0.587500X-0.150000X0.587500X-0.150000X-0.587500X0*%
%ADD26RoundRect,0.135000X-0.185000X0.135000X-0.185000X-0.135000X0.185000X-0.135000X0.185000X0.135000X0*%
%ADD27R,1.700000X1.700000*%
%ADD28C,1.700000*%
%ADD29RoundRect,0.225000X0.225000X0.250000X-0.225000X0.250000X-0.225000X-0.250000X0.225000X-0.250000X0*%
%ADD30RoundRect,0.200000X-0.800000X0.200000X-0.800000X-0.200000X0.800000X-0.200000X0.800000X0.200000X0*%
%ADD31RoundRect,0.090000X-0.660000X-0.360000X0.660000X-0.360000X0.660000X0.360000X-0.660000X0.360000X0*%
%ADD32RoundRect,0.062500X-0.387500X-0.062500X0.387500X-0.062500X0.387500X0.062500X-0.387500X0.062500X0*%
%ADD33R,0.200000X1.600000*%
%ADD34RoundRect,0.140000X0.021213X-0.219203X0.219203X-0.021213X-0.021213X0.219203X-0.219203X0.021213X0*%
%ADD35RoundRect,0.200000X-0.200000X-0.800000X0.200000X-0.800000X0.200000X0.800000X-0.200000X0.800000X0*%
G04 APERTURE END LIST*
D10*
%TO.C,R7*%
X156230000Y-52020000D03*
X155210000Y-52020000D03*
%TD*%
D11*
%TO.C,C7*%
X162790000Y-52790000D03*
X162790000Y-51830000D03*
%TD*%
D12*
%TO.C,C10*%
X164660000Y-68410000D03*
X164660000Y-69370000D03*
%TD*%
D10*
%TO.C,R5*%
X162200000Y-68630000D03*
X161180000Y-68630000D03*
%TD*%
D11*
%TO.C,C6*%
X161760000Y-53580000D03*
X161760000Y-52620000D03*
%TD*%
D13*
%TO.C,Y1*%
X161830000Y-70090000D03*
X159630000Y-70090000D03*
X159630000Y-71790000D03*
X161830000Y-71790000D03*
%TD*%
D14*
%TO.C,U1*%
X158262500Y-59170000D03*
X158262500Y-59570000D03*
X158262500Y-59970000D03*
X158262500Y-60370000D03*
X158262500Y-60770000D03*
X158262500Y-61170000D03*
X158262500Y-61570000D03*
X158262500Y-61970000D03*
X158262500Y-62370000D03*
X158262500Y-62770000D03*
X158262500Y-63170000D03*
X158262500Y-63570000D03*
X158262500Y-63970000D03*
X158262500Y-64370000D03*
D15*
X159100000Y-65207500D03*
X159500000Y-65207500D03*
X159900000Y-65207500D03*
X160300000Y-65207500D03*
X160700000Y-65207500D03*
X161100000Y-65207500D03*
X161500000Y-65207500D03*
X161900000Y-65207500D03*
X162300000Y-65207500D03*
X162700000Y-65207500D03*
X163100000Y-65207500D03*
X163500000Y-65207500D03*
X163900000Y-65207500D03*
X164300000Y-65207500D03*
D14*
X165137500Y-64370000D03*
X165137500Y-63970000D03*
X165137500Y-63570000D03*
X165137500Y-63170000D03*
X165137500Y-62770000D03*
X165137500Y-62370000D03*
X165137500Y-61970000D03*
X165137500Y-61570000D03*
X165137500Y-61170000D03*
X165137500Y-60770000D03*
X165137500Y-60370000D03*
X165137500Y-59970000D03*
X165137500Y-59570000D03*
X165137500Y-59170000D03*
D15*
X164300000Y-58332500D03*
X163900000Y-58332500D03*
X163500000Y-58332500D03*
X163100000Y-58332500D03*
X162700000Y-58332500D03*
X162300000Y-58332500D03*
X161900000Y-58332500D03*
X161500000Y-58332500D03*
X161100000Y-58332500D03*
X160700000Y-58332500D03*
X160300000Y-58332500D03*
X159900000Y-58332500D03*
X159500000Y-58332500D03*
X159100000Y-58332500D03*
D16*
X161700000Y-61770000D03*
%TD*%
D11*
%TO.C,C16*%
X163350000Y-72990000D03*
X163350000Y-72030000D03*
%TD*%
D17*
%TO.C,C17*%
X158105000Y-52070000D03*
X157145000Y-52070000D03*
%TD*%
D18*
%TO.C,J1*%
X163620000Y-37750000D03*
X157840000Y-37750000D03*
D19*
X163980000Y-39195000D03*
X163180000Y-39195000D03*
D20*
X161980000Y-39195000D03*
X160980000Y-39195000D03*
X160480000Y-39195000D03*
X159480000Y-39195000D03*
D19*
X158280000Y-39195000D03*
X157480000Y-39195000D03*
X157480000Y-39195000D03*
X158280000Y-39195000D03*
D20*
X158980000Y-39195000D03*
X159980000Y-39195000D03*
X161480000Y-39195000D03*
X162480000Y-39195000D03*
D19*
X163180000Y-39195000D03*
X163980000Y-39195000D03*
D21*
X165050000Y-38280000D03*
D22*
X165050000Y-34100000D03*
D21*
X156410000Y-38280000D03*
D22*
X156410000Y-34100000D03*
%TD*%
D11*
%TO.C,C11*%
X164350000Y-56970000D03*
X164350000Y-56010000D03*
%TD*%
D23*
%TO.C,C9*%
X165810000Y-69080000D03*
X166770000Y-69080000D03*
%TD*%
D24*
%TO.C,R8*%
X173110000Y-93410000D03*
X174130000Y-93410000D03*
%TD*%
D25*
%TO.C,U2*%
X156500000Y-45357500D03*
X158400000Y-45357500D03*
X157450000Y-43482500D03*
%TD*%
D26*
%TO.C,R4*%
X163400000Y-54720000D03*
X163400000Y-55740000D03*
%TD*%
D27*
%TO.C,J4*%
X144760000Y-33620000D03*
D28*
X144760000Y-36160000D03*
X144760000Y-38700000D03*
X144760000Y-41240000D03*
X144760000Y-43780000D03*
X144760000Y-46320000D03*
X144760000Y-48860000D03*
X144760000Y-51400000D03*
X144760000Y-53940000D03*
X144760000Y-56480000D03*
X144760000Y-59020000D03*
X144760000Y-61560000D03*
X144760000Y-64100000D03*
X144760000Y-66640000D03*
X144760000Y-69180000D03*
X144760000Y-71720000D03*
X144760000Y-74260000D03*
X144760000Y-76800000D03*
X144760000Y-79340000D03*
X144760000Y-81880000D03*
%TD*%
D26*
%TO.C,R3*%
X162440000Y-54720000D03*
X162440000Y-55740000D03*
%TD*%
D11*
%TO.C,C5*%
X165410000Y-57520000D03*
X165410000Y-56560000D03*
%TD*%
D29*
%TO.C,C13*%
X157120000Y-41600000D03*
X155570000Y-41600000D03*
%TD*%
D26*
%TO.C,R1*%
X159150000Y-41170000D03*
X159150000Y-42190000D03*
%TD*%
D27*
%TO.C,J3*%
X147850000Y-93360000D03*
D28*
X147850000Y-95900000D03*
X147850000Y-98440000D03*
X147850000Y-100980000D03*
X147850000Y-103520000D03*
X147850000Y-106060000D03*
%TD*%
D30*
%TO.C,SW1*%
X173380000Y-100210000D03*
X173380000Y-104410000D03*
%TD*%
D17*
%TO.C,C4*%
X157420000Y-58240000D03*
X156460000Y-58240000D03*
%TD*%
D31*
%TO.C,D1*%
X158360000Y-94860000D03*
X158360000Y-98160000D03*
X163260000Y-98160000D03*
X163260000Y-94860000D03*
%TD*%
D32*
%TO.C,U3*%
X155715000Y-53130000D03*
X155715000Y-53630000D03*
X155715000Y-54130000D03*
X155715000Y-54630000D03*
X158565000Y-54630000D03*
X158565000Y-54130000D03*
X158565000Y-53630000D03*
X158565000Y-53130000D03*
D33*
X157140000Y-53880000D03*
%TD*%
D24*
%TO.C,R6*%
X173180000Y-106850000D03*
X174200000Y-106850000D03*
%TD*%
D11*
%TO.C,C12*%
X160710000Y-53580000D03*
X160710000Y-52620000D03*
%TD*%
D26*
%TO.C,R2*%
X162150000Y-41200000D03*
X162150000Y-42220000D03*
%TD*%
D34*
%TO.C,C1*%
X166600589Y-57029411D03*
X167279411Y-56350589D03*
%TD*%
D35*
%TO.C,SW2*%
X171380000Y-95670000D03*
X175580000Y-95670000D03*
%TD*%
D27*
%TO.C,J2*%
X152740000Y-98460000D03*
D28*
X152740000Y-101000000D03*
X152740000Y-103540000D03*
X152740000Y-106080000D03*
%TD*%
D12*
%TO.C,C15*%
X158090000Y-70390000D03*
X158090000Y-71350000D03*
%TD*%
%TO.C,C2*%
X163320000Y-68450000D03*
X163320000Y-69410000D03*
%TD*%
D23*
%TO.C,C8*%
X166400000Y-58330000D03*
X167360000Y-58330000D03*
%TD*%
D29*
%TO.C,C14*%
X158275000Y-47270000D03*
X156725000Y-47270000D03*
%TD*%
D27*
%TO.C,J5*%
X176540000Y-33620000D03*
D28*
X176540000Y-36160000D03*
X176540000Y-38700000D03*
X176540000Y-41240000D03*
X176540000Y-43780000D03*
X176540000Y-46320000D03*
X176540000Y-48860000D03*
X176540000Y-51400000D03*
X176540000Y-53940000D03*
X176540000Y-56480000D03*
X176540000Y-59020000D03*
X176540000Y-61560000D03*
X176540000Y-64100000D03*
X176540000Y-66640000D03*
X176540000Y-69180000D03*
X176540000Y-71720000D03*
X176540000Y-74260000D03*
X176540000Y-76800000D03*
X176540000Y-79340000D03*
X176540000Y-81880000D03*
%TD*%
D17*
%TO.C,C3*%
X154550000Y-62120000D03*
X153590000Y-62120000D03*
%TD*%
D27*
%TO.C,J6*%
X158190000Y-110000000D03*
D28*
X160730000Y-110000000D03*
X163270000Y-110000000D03*
%TD*%
M02*
