%TF.GenerationSoftware,KiCad,Pcbnew,10.0.4*%
%TF.CreationDate,2026-07-07T13:04:47+03:00*%
%TF.ProjectId,OzzyBoard,4f7a7a79-426f-4617-9264-2e6b69636164,V0.5*%
%TF.SameCoordinates,Original*%
%TF.FileFunction,Soldermask,Bot*%
%TF.FilePolarity,Negative*%
%FSLAX46Y46*%
G04 Gerber Fmt 4.6, Leading zero omitted, Abs format (unit mm)*
G04 Created by KiCad (PCBNEW 10.0.4) date 2026-07-07 13:04:47*
%MOMM*%
%LPD*%
G01*
G04 APERTURE LIST*
G04 Aperture macros list*
%AMRoundRect*
0 Rectangle with rounded corners*
0 $1 Rounding radius*
0 $2 $3 $4 $5 $6 $7 $8 $9 X,Y pos of 4 corners*
0 Add a 4 corners polygon primitive as box body*
4,1,4,$2,$3,$4,$5,$6,$7,$8,$9,$2,$3,0*
0 Add four circle primitives for the rounded corners*
1,1,$1+$1,$2,$3*
1,1,$1+$1,$4,$5*
1,1,$1+$1,$6,$7*
1,1,$1+$1,$8,$9*
0 Add four rect primitives between the rounded corners*
20,1,$1+$1,$2,$3,$4,$5,0*
20,1,$1+$1,$4,$5,$6,$7,0*
20,1,$1+$1,$6,$7,$8,$9,0*
20,1,$1+$1,$8,$9,$2,$3,0*%
G04 Aperture macros list end*
%ADD10C,0.650000*%
%ADD11O,1.000000X2.100000*%
%ADD12O,1.000000X1.600000*%
%ADD13R,1.700000X1.700000*%
%ADD14C,1.700000*%
%ADD15RoundRect,0.135000X0.135000X0.185000X-0.135000X0.185000X-0.135000X-0.185000X0.135000X-0.185000X0*%
G04 APERTURE END LIST*
D10*
%TO.C,J1*%
X163620000Y-37750000D03*
X157840000Y-37750000D03*
D11*
X165050000Y-38280000D03*
D12*
X165050000Y-34100000D03*
D11*
X156410000Y-38280000D03*
D12*
X156410000Y-34100000D03*
%TD*%
D13*
%TO.C,J4*%
X144760000Y-33620000D03*
D14*
X144760000Y-36160000D03*
X144760000Y-38700000D03*
X144760000Y-41240000D03*
X144760000Y-43780000D03*
X144760000Y-46320000D03*
X144760000Y-48860000D03*
X144760000Y-51400000D03*
X144760000Y-53940000D03*
X144760000Y-56480000D03*
X144760000Y-59020000D03*
X144760000Y-61560000D03*
X144760000Y-64100000D03*
X144760000Y-66640000D03*
X144760000Y-69180000D03*
X144760000Y-71720000D03*
X144760000Y-74260000D03*
X144760000Y-76800000D03*
X144760000Y-79340000D03*
X144760000Y-81880000D03*
%TD*%
D13*
%TO.C,J3*%
X147850000Y-93360000D03*
D14*
X147850000Y-95900000D03*
X147850000Y-98440000D03*
X147850000Y-100980000D03*
X147850000Y-103520000D03*
X147850000Y-106060000D03*
%TD*%
D13*
%TO.C,J2*%
X152740000Y-98460000D03*
D14*
X152740000Y-101000000D03*
X152740000Y-103540000D03*
X152740000Y-106080000D03*
%TD*%
D13*
%TO.C,J5*%
X176540000Y-33620000D03*
D14*
X176540000Y-36160000D03*
X176540000Y-38700000D03*
X176540000Y-41240000D03*
X176540000Y-43780000D03*
X176540000Y-46320000D03*
X176540000Y-48860000D03*
X176540000Y-51400000D03*
X176540000Y-53940000D03*
X176540000Y-56480000D03*
X176540000Y-59020000D03*
X176540000Y-61560000D03*
X176540000Y-64100000D03*
X176540000Y-66640000D03*
X176540000Y-69180000D03*
X176540000Y-71720000D03*
X176540000Y-74260000D03*
X176540000Y-76800000D03*
X176540000Y-79340000D03*
X176540000Y-81880000D03*
%TD*%
D13*
%TO.C,J6*%
X158190000Y-110000000D03*
D14*
X160730000Y-110000000D03*
X163270000Y-110000000D03*
%TD*%
D15*
%TO.C,R9*%
X155510000Y-104040000D03*
X154490000Y-104040000D03*
%TD*%
%TO.C,R10*%
X155570000Y-105150000D03*
X154550000Y-105150000D03*
%TD*%
M02*
