%TF.GenerationSoftware,KiCad,Pcbnew,10.0.4*%
%TF.CreationDate,2026-07-07T13:04:47+03:00*%
%TF.ProjectId,OzzyBoard,4f7a7a79-426f-4617-9264-2e6b69636164,V0.5*%
%TF.SameCoordinates,Original*%
%TF.FileFunction,Legend,Top*%
%TF.FilePolarity,Positive*%
%FSLAX46Y46*%
G04 Gerber Fmt 4.6, Leading zero omitted, Abs format (unit mm)*
G04 Created by KiCad (PCBNEW 10.0.4) date 2026-07-07 13:04:47*
%MOMM*%
%LPD*%
G01*
G04 APERTURE LIST*
%ADD10C,0.150000*%
%ADD11C,0.000000*%
%ADD12C,0.120000*%
G04 APERTURE END LIST*
D10*
X171087982Y-71402390D02*
X171011792Y-71364295D01*
X171011792Y-71364295D02*
X170897506Y-71364295D01*
X170897506Y-71364295D02*
X170783220Y-71402390D01*
X170783220Y-71402390D02*
X170707030Y-71478580D01*
X170707030Y-71478580D02*
X170668935Y-71554771D01*
X170668935Y-71554771D02*
X170630839Y-71707152D01*
X170630839Y-71707152D02*
X170630839Y-71821438D01*
X170630839Y-71821438D02*
X170668935Y-71973819D01*
X170668935Y-71973819D02*
X170707030Y-72050009D01*
X170707030Y-72050009D02*
X170783220Y-72126200D01*
X170783220Y-72126200D02*
X170897506Y-72164295D01*
X170897506Y-72164295D02*
X170973697Y-72164295D01*
X170973697Y-72164295D02*
X171087982Y-72126200D01*
X171087982Y-72126200D02*
X171126078Y-72088104D01*
X171126078Y-72088104D02*
X171126078Y-71821438D01*
X171126078Y-71821438D02*
X170973697Y-71821438D01*
X171468935Y-72164295D02*
X171468935Y-71364295D01*
X171468935Y-71364295D02*
X171773697Y-71364295D01*
X171773697Y-71364295D02*
X171849887Y-71402390D01*
X171849887Y-71402390D02*
X171887982Y-71440485D01*
X171887982Y-71440485D02*
X171926078Y-71516676D01*
X171926078Y-71516676D02*
X171926078Y-71630961D01*
X171926078Y-71630961D02*
X171887982Y-71707152D01*
X171887982Y-71707152D02*
X171849887Y-71745247D01*
X171849887Y-71745247D02*
X171773697Y-71783342D01*
X171773697Y-71783342D02*
X171468935Y-71783342D01*
X172268935Y-72164295D02*
X172268935Y-71364295D01*
X172802268Y-71364295D02*
X172954649Y-71364295D01*
X172954649Y-71364295D02*
X173030839Y-71402390D01*
X173030839Y-71402390D02*
X173107030Y-71478580D01*
X173107030Y-71478580D02*
X173145125Y-71630961D01*
X173145125Y-71630961D02*
X173145125Y-71897628D01*
X173145125Y-71897628D02*
X173107030Y-72050009D01*
X173107030Y-72050009D02*
X173030839Y-72126200D01*
X173030839Y-72126200D02*
X172954649Y-72164295D01*
X172954649Y-72164295D02*
X172802268Y-72164295D01*
X172802268Y-72164295D02*
X172726077Y-72126200D01*
X172726077Y-72126200D02*
X172649887Y-72050009D01*
X172649887Y-72050009D02*
X172611791Y-71897628D01*
X172611791Y-71897628D02*
X172611791Y-71630961D01*
X172611791Y-71630961D02*
X172649887Y-71478580D01*
X172649887Y-71478580D02*
X172726077Y-71402390D01*
X172726077Y-71402390D02*
X172802268Y-71364295D01*
X173907029Y-72164295D02*
X173449886Y-72164295D01*
X173678458Y-72164295D02*
X173678458Y-71364295D01*
X173678458Y-71364295D02*
X173602267Y-71478580D01*
X173602267Y-71478580D02*
X173526077Y-71554771D01*
X173526077Y-71554771D02*
X173449886Y-71592866D01*
X174287982Y-72164295D02*
X174440363Y-72164295D01*
X174440363Y-72164295D02*
X174516553Y-72126200D01*
X174516553Y-72126200D02*
X174554649Y-72088104D01*
X174554649Y-72088104D02*
X174630839Y-71973819D01*
X174630839Y-71973819D02*
X174668934Y-71821438D01*
X174668934Y-71821438D02*
X174668934Y-71516676D01*
X174668934Y-71516676D02*
X174630839Y-71440485D01*
X174630839Y-71440485D02*
X174592744Y-71402390D01*
X174592744Y-71402390D02*
X174516553Y-71364295D01*
X174516553Y-71364295D02*
X174364172Y-71364295D01*
X174364172Y-71364295D02*
X174287982Y-71402390D01*
X174287982Y-71402390D02*
X174249887Y-71440485D01*
X174249887Y-71440485D02*
X174211791Y-71516676D01*
X174211791Y-71516676D02*
X174211791Y-71707152D01*
X174211791Y-71707152D02*
X174249887Y-71783342D01*
X174249887Y-71783342D02*
X174287982Y-71821438D01*
X174287982Y-71821438D02*
X174364172Y-71859533D01*
X174364172Y-71859533D02*
X174516553Y-71859533D01*
X174516553Y-71859533D02*
X174592744Y-71821438D01*
X174592744Y-71821438D02*
X174630839Y-71783342D01*
X174630839Y-71783342D02*
X174668934Y-71707152D01*
X172992744Y-38382390D02*
X172916554Y-38344295D01*
X172916554Y-38344295D02*
X172802268Y-38344295D01*
X172802268Y-38344295D02*
X172687982Y-38382390D01*
X172687982Y-38382390D02*
X172611792Y-38458580D01*
X172611792Y-38458580D02*
X172573697Y-38534771D01*
X172573697Y-38534771D02*
X172535601Y-38687152D01*
X172535601Y-38687152D02*
X172535601Y-38801438D01*
X172535601Y-38801438D02*
X172573697Y-38953819D01*
X172573697Y-38953819D02*
X172611792Y-39030009D01*
X172611792Y-39030009D02*
X172687982Y-39106200D01*
X172687982Y-39106200D02*
X172802268Y-39144295D01*
X172802268Y-39144295D02*
X172878459Y-39144295D01*
X172878459Y-39144295D02*
X172992744Y-39106200D01*
X172992744Y-39106200D02*
X173030840Y-39068104D01*
X173030840Y-39068104D02*
X173030840Y-38801438D01*
X173030840Y-38801438D02*
X172878459Y-38801438D01*
X173373697Y-39144295D02*
X173373697Y-38344295D01*
X173373697Y-38344295D02*
X173830840Y-39144295D01*
X173830840Y-39144295D02*
X173830840Y-38344295D01*
X174211792Y-39144295D02*
X174211792Y-38344295D01*
X174211792Y-38344295D02*
X174402268Y-38344295D01*
X174402268Y-38344295D02*
X174516554Y-38382390D01*
X174516554Y-38382390D02*
X174592744Y-38458580D01*
X174592744Y-38458580D02*
X174630839Y-38534771D01*
X174630839Y-38534771D02*
X174668935Y-38687152D01*
X174668935Y-38687152D02*
X174668935Y-38801438D01*
X174668935Y-38801438D02*
X174630839Y-38953819D01*
X174630839Y-38953819D02*
X174592744Y-39030009D01*
X174592744Y-39030009D02*
X174516554Y-39106200D01*
X174516554Y-39106200D02*
X174402268Y-39144295D01*
X174402268Y-39144295D02*
X174211792Y-39144295D01*
X171087982Y-68862390D02*
X171011792Y-68824295D01*
X171011792Y-68824295D02*
X170897506Y-68824295D01*
X170897506Y-68824295D02*
X170783220Y-68862390D01*
X170783220Y-68862390D02*
X170707030Y-68938580D01*
X170707030Y-68938580D02*
X170668935Y-69014771D01*
X170668935Y-69014771D02*
X170630839Y-69167152D01*
X170630839Y-69167152D02*
X170630839Y-69281438D01*
X170630839Y-69281438D02*
X170668935Y-69433819D01*
X170668935Y-69433819D02*
X170707030Y-69510009D01*
X170707030Y-69510009D02*
X170783220Y-69586200D01*
X170783220Y-69586200D02*
X170897506Y-69624295D01*
X170897506Y-69624295D02*
X170973697Y-69624295D01*
X170973697Y-69624295D02*
X171087982Y-69586200D01*
X171087982Y-69586200D02*
X171126078Y-69548104D01*
X171126078Y-69548104D02*
X171126078Y-69281438D01*
X171126078Y-69281438D02*
X170973697Y-69281438D01*
X171468935Y-69624295D02*
X171468935Y-68824295D01*
X171468935Y-68824295D02*
X171773697Y-68824295D01*
X171773697Y-68824295D02*
X171849887Y-68862390D01*
X171849887Y-68862390D02*
X171887982Y-68900485D01*
X171887982Y-68900485D02*
X171926078Y-68976676D01*
X171926078Y-68976676D02*
X171926078Y-69090961D01*
X171926078Y-69090961D02*
X171887982Y-69167152D01*
X171887982Y-69167152D02*
X171849887Y-69205247D01*
X171849887Y-69205247D02*
X171773697Y-69243342D01*
X171773697Y-69243342D02*
X171468935Y-69243342D01*
X172268935Y-69624295D02*
X172268935Y-68824295D01*
X172802268Y-68824295D02*
X172954649Y-68824295D01*
X172954649Y-68824295D02*
X173030839Y-68862390D01*
X173030839Y-68862390D02*
X173107030Y-68938580D01*
X173107030Y-68938580D02*
X173145125Y-69090961D01*
X173145125Y-69090961D02*
X173145125Y-69357628D01*
X173145125Y-69357628D02*
X173107030Y-69510009D01*
X173107030Y-69510009D02*
X173030839Y-69586200D01*
X173030839Y-69586200D02*
X172954649Y-69624295D01*
X172954649Y-69624295D02*
X172802268Y-69624295D01*
X172802268Y-69624295D02*
X172726077Y-69586200D01*
X172726077Y-69586200D02*
X172649887Y-69510009D01*
X172649887Y-69510009D02*
X172611791Y-69357628D01*
X172611791Y-69357628D02*
X172611791Y-69090961D01*
X172611791Y-69090961D02*
X172649887Y-68938580D01*
X172649887Y-68938580D02*
X172726077Y-68862390D01*
X172726077Y-68862390D02*
X172802268Y-68824295D01*
X173449886Y-68900485D02*
X173487982Y-68862390D01*
X173487982Y-68862390D02*
X173564172Y-68824295D01*
X173564172Y-68824295D02*
X173754648Y-68824295D01*
X173754648Y-68824295D02*
X173830839Y-68862390D01*
X173830839Y-68862390D02*
X173868934Y-68900485D01*
X173868934Y-68900485D02*
X173907029Y-68976676D01*
X173907029Y-68976676D02*
X173907029Y-69052866D01*
X173907029Y-69052866D02*
X173868934Y-69167152D01*
X173868934Y-69167152D02*
X173411791Y-69624295D01*
X173411791Y-69624295D02*
X173907029Y-69624295D01*
X174402268Y-68824295D02*
X174478458Y-68824295D01*
X174478458Y-68824295D02*
X174554649Y-68862390D01*
X174554649Y-68862390D02*
X174592744Y-68900485D01*
X174592744Y-68900485D02*
X174630839Y-68976676D01*
X174630839Y-68976676D02*
X174668934Y-69129057D01*
X174668934Y-69129057D02*
X174668934Y-69319533D01*
X174668934Y-69319533D02*
X174630839Y-69471914D01*
X174630839Y-69471914D02*
X174592744Y-69548104D01*
X174592744Y-69548104D02*
X174554649Y-69586200D01*
X174554649Y-69586200D02*
X174478458Y-69624295D01*
X174478458Y-69624295D02*
X174402268Y-69624295D01*
X174402268Y-69624295D02*
X174326077Y-69586200D01*
X174326077Y-69586200D02*
X174287982Y-69548104D01*
X174287982Y-69548104D02*
X174249887Y-69471914D01*
X174249887Y-69471914D02*
X174211791Y-69319533D01*
X174211791Y-69319533D02*
X174211791Y-69129057D01*
X174211791Y-69129057D02*
X174249887Y-68976676D01*
X174249887Y-68976676D02*
X174287982Y-68900485D01*
X174287982Y-68900485D02*
X174326077Y-68862390D01*
X174326077Y-68862390D02*
X174402268Y-68824295D01*
X171811792Y-33264295D02*
X172078459Y-34064295D01*
X172078459Y-34064295D02*
X172345125Y-33264295D01*
X172878458Y-33645247D02*
X172992744Y-33683342D01*
X172992744Y-33683342D02*
X173030839Y-33721438D01*
X173030839Y-33721438D02*
X173068935Y-33797628D01*
X173068935Y-33797628D02*
X173068935Y-33911914D01*
X173068935Y-33911914D02*
X173030839Y-33988104D01*
X173030839Y-33988104D02*
X172992744Y-34026200D01*
X172992744Y-34026200D02*
X172916554Y-34064295D01*
X172916554Y-34064295D02*
X172611792Y-34064295D01*
X172611792Y-34064295D02*
X172611792Y-33264295D01*
X172611792Y-33264295D02*
X172878458Y-33264295D01*
X172878458Y-33264295D02*
X172954649Y-33302390D01*
X172954649Y-33302390D02*
X172992744Y-33340485D01*
X172992744Y-33340485D02*
X173030839Y-33416676D01*
X173030839Y-33416676D02*
X173030839Y-33492866D01*
X173030839Y-33492866D02*
X172992744Y-33569057D01*
X172992744Y-33569057D02*
X172954649Y-33607152D01*
X172954649Y-33607152D02*
X172878458Y-33645247D01*
X172878458Y-33645247D02*
X172611792Y-33645247D01*
X173411792Y-33264295D02*
X173411792Y-33911914D01*
X173411792Y-33911914D02*
X173449887Y-33988104D01*
X173449887Y-33988104D02*
X173487982Y-34026200D01*
X173487982Y-34026200D02*
X173564173Y-34064295D01*
X173564173Y-34064295D02*
X173716554Y-34064295D01*
X173716554Y-34064295D02*
X173792744Y-34026200D01*
X173792744Y-34026200D02*
X173830839Y-33988104D01*
X173830839Y-33988104D02*
X173868935Y-33911914D01*
X173868935Y-33911914D02*
X173868935Y-33264295D01*
X174211791Y-34026200D02*
X174326077Y-34064295D01*
X174326077Y-34064295D02*
X174516553Y-34064295D01*
X174516553Y-34064295D02*
X174592744Y-34026200D01*
X174592744Y-34026200D02*
X174630839Y-33988104D01*
X174630839Y-33988104D02*
X174668934Y-33911914D01*
X174668934Y-33911914D02*
X174668934Y-33835723D01*
X174668934Y-33835723D02*
X174630839Y-33759533D01*
X174630839Y-33759533D02*
X174592744Y-33721438D01*
X174592744Y-33721438D02*
X174516553Y-33683342D01*
X174516553Y-33683342D02*
X174364172Y-33645247D01*
X174364172Y-33645247D02*
X174287982Y-33607152D01*
X174287982Y-33607152D02*
X174249887Y-33569057D01*
X174249887Y-33569057D02*
X174211791Y-33492866D01*
X174211791Y-33492866D02*
X174211791Y-33416676D01*
X174211791Y-33416676D02*
X174249887Y-33340485D01*
X174249887Y-33340485D02*
X174287982Y-33302390D01*
X174287982Y-33302390D02*
X174364172Y-33264295D01*
X174364172Y-33264295D02*
X174554649Y-33264295D01*
X174554649Y-33264295D02*
X174668934Y-33302390D01*
X172726077Y-43424295D02*
X173221315Y-43424295D01*
X173221315Y-43424295D02*
X172954649Y-43729057D01*
X172954649Y-43729057D02*
X173068934Y-43729057D01*
X173068934Y-43729057D02*
X173145125Y-43767152D01*
X173145125Y-43767152D02*
X173183220Y-43805247D01*
X173183220Y-43805247D02*
X173221315Y-43881438D01*
X173221315Y-43881438D02*
X173221315Y-44071914D01*
X173221315Y-44071914D02*
X173183220Y-44148104D01*
X173183220Y-44148104D02*
X173145125Y-44186200D01*
X173145125Y-44186200D02*
X173068934Y-44224295D01*
X173068934Y-44224295D02*
X172840363Y-44224295D01*
X172840363Y-44224295D02*
X172764172Y-44186200D01*
X172764172Y-44186200D02*
X172726077Y-44148104D01*
X173449887Y-43424295D02*
X173716554Y-44224295D01*
X173716554Y-44224295D02*
X173983220Y-43424295D01*
X174173696Y-43424295D02*
X174668934Y-43424295D01*
X174668934Y-43424295D02*
X174402268Y-43729057D01*
X174402268Y-43729057D02*
X174516553Y-43729057D01*
X174516553Y-43729057D02*
X174592744Y-43767152D01*
X174592744Y-43767152D02*
X174630839Y-43805247D01*
X174630839Y-43805247D02*
X174668934Y-43881438D01*
X174668934Y-43881438D02*
X174668934Y-44071914D01*
X174668934Y-44071914D02*
X174630839Y-44148104D01*
X174630839Y-44148104D02*
X174592744Y-44186200D01*
X174592744Y-44186200D02*
X174516553Y-44224295D01*
X174516553Y-44224295D02*
X174287982Y-44224295D01*
X174287982Y-44224295D02*
X174211791Y-44186200D01*
X174211791Y-44186200D02*
X174173696Y-44148104D01*
X171087982Y-61242390D02*
X171011792Y-61204295D01*
X171011792Y-61204295D02*
X170897506Y-61204295D01*
X170897506Y-61204295D02*
X170783220Y-61242390D01*
X170783220Y-61242390D02*
X170707030Y-61318580D01*
X170707030Y-61318580D02*
X170668935Y-61394771D01*
X170668935Y-61394771D02*
X170630839Y-61547152D01*
X170630839Y-61547152D02*
X170630839Y-61661438D01*
X170630839Y-61661438D02*
X170668935Y-61813819D01*
X170668935Y-61813819D02*
X170707030Y-61890009D01*
X170707030Y-61890009D02*
X170783220Y-61966200D01*
X170783220Y-61966200D02*
X170897506Y-62004295D01*
X170897506Y-62004295D02*
X170973697Y-62004295D01*
X170973697Y-62004295D02*
X171087982Y-61966200D01*
X171087982Y-61966200D02*
X171126078Y-61928104D01*
X171126078Y-61928104D02*
X171126078Y-61661438D01*
X171126078Y-61661438D02*
X170973697Y-61661438D01*
X171468935Y-62004295D02*
X171468935Y-61204295D01*
X171468935Y-61204295D02*
X171773697Y-61204295D01*
X171773697Y-61204295D02*
X171849887Y-61242390D01*
X171849887Y-61242390D02*
X171887982Y-61280485D01*
X171887982Y-61280485D02*
X171926078Y-61356676D01*
X171926078Y-61356676D02*
X171926078Y-61470961D01*
X171926078Y-61470961D02*
X171887982Y-61547152D01*
X171887982Y-61547152D02*
X171849887Y-61585247D01*
X171849887Y-61585247D02*
X171773697Y-61623342D01*
X171773697Y-61623342D02*
X171468935Y-61623342D01*
X172268935Y-62004295D02*
X172268935Y-61204295D01*
X172802268Y-61204295D02*
X172954649Y-61204295D01*
X172954649Y-61204295D02*
X173030839Y-61242390D01*
X173030839Y-61242390D02*
X173107030Y-61318580D01*
X173107030Y-61318580D02*
X173145125Y-61470961D01*
X173145125Y-61470961D02*
X173145125Y-61737628D01*
X173145125Y-61737628D02*
X173107030Y-61890009D01*
X173107030Y-61890009D02*
X173030839Y-61966200D01*
X173030839Y-61966200D02*
X172954649Y-62004295D01*
X172954649Y-62004295D02*
X172802268Y-62004295D01*
X172802268Y-62004295D02*
X172726077Y-61966200D01*
X172726077Y-61966200D02*
X172649887Y-61890009D01*
X172649887Y-61890009D02*
X172611791Y-61737628D01*
X172611791Y-61737628D02*
X172611791Y-61470961D01*
X172611791Y-61470961D02*
X172649887Y-61318580D01*
X172649887Y-61318580D02*
X172726077Y-61242390D01*
X172726077Y-61242390D02*
X172802268Y-61204295D01*
X173449886Y-61280485D02*
X173487982Y-61242390D01*
X173487982Y-61242390D02*
X173564172Y-61204295D01*
X173564172Y-61204295D02*
X173754648Y-61204295D01*
X173754648Y-61204295D02*
X173830839Y-61242390D01*
X173830839Y-61242390D02*
X173868934Y-61280485D01*
X173868934Y-61280485D02*
X173907029Y-61356676D01*
X173907029Y-61356676D02*
X173907029Y-61432866D01*
X173907029Y-61432866D02*
X173868934Y-61547152D01*
X173868934Y-61547152D02*
X173411791Y-62004295D01*
X173411791Y-62004295D02*
X173907029Y-62004295D01*
X174211791Y-61280485D02*
X174249887Y-61242390D01*
X174249887Y-61242390D02*
X174326077Y-61204295D01*
X174326077Y-61204295D02*
X174516553Y-61204295D01*
X174516553Y-61204295D02*
X174592744Y-61242390D01*
X174592744Y-61242390D02*
X174630839Y-61280485D01*
X174630839Y-61280485D02*
X174668934Y-61356676D01*
X174668934Y-61356676D02*
X174668934Y-61432866D01*
X174668934Y-61432866D02*
X174630839Y-61547152D01*
X174630839Y-61547152D02*
X174173696Y-62004295D01*
X174173696Y-62004295D02*
X174668934Y-62004295D01*
X171087982Y-40922390D02*
X171011792Y-40884295D01*
X171011792Y-40884295D02*
X170897506Y-40884295D01*
X170897506Y-40884295D02*
X170783220Y-40922390D01*
X170783220Y-40922390D02*
X170707030Y-40998580D01*
X170707030Y-40998580D02*
X170668935Y-41074771D01*
X170668935Y-41074771D02*
X170630839Y-41227152D01*
X170630839Y-41227152D02*
X170630839Y-41341438D01*
X170630839Y-41341438D02*
X170668935Y-41493819D01*
X170668935Y-41493819D02*
X170707030Y-41570009D01*
X170707030Y-41570009D02*
X170783220Y-41646200D01*
X170783220Y-41646200D02*
X170897506Y-41684295D01*
X170897506Y-41684295D02*
X170973697Y-41684295D01*
X170973697Y-41684295D02*
X171087982Y-41646200D01*
X171087982Y-41646200D02*
X171126078Y-41608104D01*
X171126078Y-41608104D02*
X171126078Y-41341438D01*
X171126078Y-41341438D02*
X170973697Y-41341438D01*
X171468935Y-41684295D02*
X171468935Y-40884295D01*
X171468935Y-40884295D02*
X171773697Y-40884295D01*
X171773697Y-40884295D02*
X171849887Y-40922390D01*
X171849887Y-40922390D02*
X171887982Y-40960485D01*
X171887982Y-40960485D02*
X171926078Y-41036676D01*
X171926078Y-41036676D02*
X171926078Y-41150961D01*
X171926078Y-41150961D02*
X171887982Y-41227152D01*
X171887982Y-41227152D02*
X171849887Y-41265247D01*
X171849887Y-41265247D02*
X171773697Y-41303342D01*
X171773697Y-41303342D02*
X171468935Y-41303342D01*
X172268935Y-41684295D02*
X172268935Y-40884295D01*
X172802268Y-40884295D02*
X172954649Y-40884295D01*
X172954649Y-40884295D02*
X173030839Y-40922390D01*
X173030839Y-40922390D02*
X173107030Y-40998580D01*
X173107030Y-40998580D02*
X173145125Y-41150961D01*
X173145125Y-41150961D02*
X173145125Y-41417628D01*
X173145125Y-41417628D02*
X173107030Y-41570009D01*
X173107030Y-41570009D02*
X173030839Y-41646200D01*
X173030839Y-41646200D02*
X172954649Y-41684295D01*
X172954649Y-41684295D02*
X172802268Y-41684295D01*
X172802268Y-41684295D02*
X172726077Y-41646200D01*
X172726077Y-41646200D02*
X172649887Y-41570009D01*
X172649887Y-41570009D02*
X172611791Y-41417628D01*
X172611791Y-41417628D02*
X172611791Y-41150961D01*
X172611791Y-41150961D02*
X172649887Y-40998580D01*
X172649887Y-40998580D02*
X172726077Y-40922390D01*
X172726077Y-40922390D02*
X172802268Y-40884295D01*
X173449886Y-40960485D02*
X173487982Y-40922390D01*
X173487982Y-40922390D02*
X173564172Y-40884295D01*
X173564172Y-40884295D02*
X173754648Y-40884295D01*
X173754648Y-40884295D02*
X173830839Y-40922390D01*
X173830839Y-40922390D02*
X173868934Y-40960485D01*
X173868934Y-40960485D02*
X173907029Y-41036676D01*
X173907029Y-41036676D02*
X173907029Y-41112866D01*
X173907029Y-41112866D02*
X173868934Y-41227152D01*
X173868934Y-41227152D02*
X173411791Y-41684295D01*
X173411791Y-41684295D02*
X173907029Y-41684295D01*
X174364172Y-41227152D02*
X174287982Y-41189057D01*
X174287982Y-41189057D02*
X174249887Y-41150961D01*
X174249887Y-41150961D02*
X174211791Y-41074771D01*
X174211791Y-41074771D02*
X174211791Y-41036676D01*
X174211791Y-41036676D02*
X174249887Y-40960485D01*
X174249887Y-40960485D02*
X174287982Y-40922390D01*
X174287982Y-40922390D02*
X174364172Y-40884295D01*
X174364172Y-40884295D02*
X174516553Y-40884295D01*
X174516553Y-40884295D02*
X174592744Y-40922390D01*
X174592744Y-40922390D02*
X174630839Y-40960485D01*
X174630839Y-40960485D02*
X174668934Y-41036676D01*
X174668934Y-41036676D02*
X174668934Y-41074771D01*
X174668934Y-41074771D02*
X174630839Y-41150961D01*
X174630839Y-41150961D02*
X174592744Y-41189057D01*
X174592744Y-41189057D02*
X174516553Y-41227152D01*
X174516553Y-41227152D02*
X174364172Y-41227152D01*
X174364172Y-41227152D02*
X174287982Y-41265247D01*
X174287982Y-41265247D02*
X174249887Y-41303342D01*
X174249887Y-41303342D02*
X174211791Y-41379533D01*
X174211791Y-41379533D02*
X174211791Y-41531914D01*
X174211791Y-41531914D02*
X174249887Y-41608104D01*
X174249887Y-41608104D02*
X174287982Y-41646200D01*
X174287982Y-41646200D02*
X174364172Y-41684295D01*
X174364172Y-41684295D02*
X174516553Y-41684295D01*
X174516553Y-41684295D02*
X174592744Y-41646200D01*
X174592744Y-41646200D02*
X174630839Y-41608104D01*
X174630839Y-41608104D02*
X174668934Y-41531914D01*
X174668934Y-41531914D02*
X174668934Y-41379533D01*
X174668934Y-41379533D02*
X174630839Y-41303342D01*
X174630839Y-41303342D02*
X174592744Y-41265247D01*
X174592744Y-41265247D02*
X174516553Y-41227152D01*
X171087982Y-56162390D02*
X171011792Y-56124295D01*
X171011792Y-56124295D02*
X170897506Y-56124295D01*
X170897506Y-56124295D02*
X170783220Y-56162390D01*
X170783220Y-56162390D02*
X170707030Y-56238580D01*
X170707030Y-56238580D02*
X170668935Y-56314771D01*
X170668935Y-56314771D02*
X170630839Y-56467152D01*
X170630839Y-56467152D02*
X170630839Y-56581438D01*
X170630839Y-56581438D02*
X170668935Y-56733819D01*
X170668935Y-56733819D02*
X170707030Y-56810009D01*
X170707030Y-56810009D02*
X170783220Y-56886200D01*
X170783220Y-56886200D02*
X170897506Y-56924295D01*
X170897506Y-56924295D02*
X170973697Y-56924295D01*
X170973697Y-56924295D02*
X171087982Y-56886200D01*
X171087982Y-56886200D02*
X171126078Y-56848104D01*
X171126078Y-56848104D02*
X171126078Y-56581438D01*
X171126078Y-56581438D02*
X170973697Y-56581438D01*
X171468935Y-56924295D02*
X171468935Y-56124295D01*
X171468935Y-56124295D02*
X171773697Y-56124295D01*
X171773697Y-56124295D02*
X171849887Y-56162390D01*
X171849887Y-56162390D02*
X171887982Y-56200485D01*
X171887982Y-56200485D02*
X171926078Y-56276676D01*
X171926078Y-56276676D02*
X171926078Y-56390961D01*
X171926078Y-56390961D02*
X171887982Y-56467152D01*
X171887982Y-56467152D02*
X171849887Y-56505247D01*
X171849887Y-56505247D02*
X171773697Y-56543342D01*
X171773697Y-56543342D02*
X171468935Y-56543342D01*
X172268935Y-56924295D02*
X172268935Y-56124295D01*
X172802268Y-56124295D02*
X172954649Y-56124295D01*
X172954649Y-56124295D02*
X173030839Y-56162390D01*
X173030839Y-56162390D02*
X173107030Y-56238580D01*
X173107030Y-56238580D02*
X173145125Y-56390961D01*
X173145125Y-56390961D02*
X173145125Y-56657628D01*
X173145125Y-56657628D02*
X173107030Y-56810009D01*
X173107030Y-56810009D02*
X173030839Y-56886200D01*
X173030839Y-56886200D02*
X172954649Y-56924295D01*
X172954649Y-56924295D02*
X172802268Y-56924295D01*
X172802268Y-56924295D02*
X172726077Y-56886200D01*
X172726077Y-56886200D02*
X172649887Y-56810009D01*
X172649887Y-56810009D02*
X172611791Y-56657628D01*
X172611791Y-56657628D02*
X172611791Y-56390961D01*
X172611791Y-56390961D02*
X172649887Y-56238580D01*
X172649887Y-56238580D02*
X172726077Y-56162390D01*
X172726077Y-56162390D02*
X172802268Y-56124295D01*
X173449886Y-56200485D02*
X173487982Y-56162390D01*
X173487982Y-56162390D02*
X173564172Y-56124295D01*
X173564172Y-56124295D02*
X173754648Y-56124295D01*
X173754648Y-56124295D02*
X173830839Y-56162390D01*
X173830839Y-56162390D02*
X173868934Y-56200485D01*
X173868934Y-56200485D02*
X173907029Y-56276676D01*
X173907029Y-56276676D02*
X173907029Y-56352866D01*
X173907029Y-56352866D02*
X173868934Y-56467152D01*
X173868934Y-56467152D02*
X173411791Y-56924295D01*
X173411791Y-56924295D02*
X173907029Y-56924295D01*
X174173696Y-56124295D02*
X174668934Y-56124295D01*
X174668934Y-56124295D02*
X174402268Y-56429057D01*
X174402268Y-56429057D02*
X174516553Y-56429057D01*
X174516553Y-56429057D02*
X174592744Y-56467152D01*
X174592744Y-56467152D02*
X174630839Y-56505247D01*
X174630839Y-56505247D02*
X174668934Y-56581438D01*
X174668934Y-56581438D02*
X174668934Y-56771914D01*
X174668934Y-56771914D02*
X174630839Y-56848104D01*
X174630839Y-56848104D02*
X174592744Y-56886200D01*
X174592744Y-56886200D02*
X174516553Y-56924295D01*
X174516553Y-56924295D02*
X174287982Y-56924295D01*
X174287982Y-56924295D02*
X174211791Y-56886200D01*
X174211791Y-56886200D02*
X174173696Y-56848104D01*
X172992744Y-63782390D02*
X172916554Y-63744295D01*
X172916554Y-63744295D02*
X172802268Y-63744295D01*
X172802268Y-63744295D02*
X172687982Y-63782390D01*
X172687982Y-63782390D02*
X172611792Y-63858580D01*
X172611792Y-63858580D02*
X172573697Y-63934771D01*
X172573697Y-63934771D02*
X172535601Y-64087152D01*
X172535601Y-64087152D02*
X172535601Y-64201438D01*
X172535601Y-64201438D02*
X172573697Y-64353819D01*
X172573697Y-64353819D02*
X172611792Y-64430009D01*
X172611792Y-64430009D02*
X172687982Y-64506200D01*
X172687982Y-64506200D02*
X172802268Y-64544295D01*
X172802268Y-64544295D02*
X172878459Y-64544295D01*
X172878459Y-64544295D02*
X172992744Y-64506200D01*
X172992744Y-64506200D02*
X173030840Y-64468104D01*
X173030840Y-64468104D02*
X173030840Y-64201438D01*
X173030840Y-64201438D02*
X172878459Y-64201438D01*
X173373697Y-64544295D02*
X173373697Y-63744295D01*
X173373697Y-63744295D02*
X173830840Y-64544295D01*
X173830840Y-64544295D02*
X173830840Y-63744295D01*
X174211792Y-64544295D02*
X174211792Y-63744295D01*
X174211792Y-63744295D02*
X174402268Y-63744295D01*
X174402268Y-63744295D02*
X174516554Y-63782390D01*
X174516554Y-63782390D02*
X174592744Y-63858580D01*
X174592744Y-63858580D02*
X174630839Y-63934771D01*
X174630839Y-63934771D02*
X174668935Y-64087152D01*
X174668935Y-64087152D02*
X174668935Y-64201438D01*
X174668935Y-64201438D02*
X174630839Y-64353819D01*
X174630839Y-64353819D02*
X174592744Y-64430009D01*
X174592744Y-64430009D02*
X174516554Y-64506200D01*
X174516554Y-64506200D02*
X174402268Y-64544295D01*
X174402268Y-64544295D02*
X174211792Y-64544295D01*
X171087982Y-81562390D02*
X171011792Y-81524295D01*
X171011792Y-81524295D02*
X170897506Y-81524295D01*
X170897506Y-81524295D02*
X170783220Y-81562390D01*
X170783220Y-81562390D02*
X170707030Y-81638580D01*
X170707030Y-81638580D02*
X170668935Y-81714771D01*
X170668935Y-81714771D02*
X170630839Y-81867152D01*
X170630839Y-81867152D02*
X170630839Y-81981438D01*
X170630839Y-81981438D02*
X170668935Y-82133819D01*
X170668935Y-82133819D02*
X170707030Y-82210009D01*
X170707030Y-82210009D02*
X170783220Y-82286200D01*
X170783220Y-82286200D02*
X170897506Y-82324295D01*
X170897506Y-82324295D02*
X170973697Y-82324295D01*
X170973697Y-82324295D02*
X171087982Y-82286200D01*
X171087982Y-82286200D02*
X171126078Y-82248104D01*
X171126078Y-82248104D02*
X171126078Y-81981438D01*
X171126078Y-81981438D02*
X170973697Y-81981438D01*
X171468935Y-82324295D02*
X171468935Y-81524295D01*
X171468935Y-81524295D02*
X171773697Y-81524295D01*
X171773697Y-81524295D02*
X171849887Y-81562390D01*
X171849887Y-81562390D02*
X171887982Y-81600485D01*
X171887982Y-81600485D02*
X171926078Y-81676676D01*
X171926078Y-81676676D02*
X171926078Y-81790961D01*
X171926078Y-81790961D02*
X171887982Y-81867152D01*
X171887982Y-81867152D02*
X171849887Y-81905247D01*
X171849887Y-81905247D02*
X171773697Y-81943342D01*
X171773697Y-81943342D02*
X171468935Y-81943342D01*
X172268935Y-82324295D02*
X172268935Y-81524295D01*
X172802268Y-81524295D02*
X172954649Y-81524295D01*
X172954649Y-81524295D02*
X173030839Y-81562390D01*
X173030839Y-81562390D02*
X173107030Y-81638580D01*
X173107030Y-81638580D02*
X173145125Y-81790961D01*
X173145125Y-81790961D02*
X173145125Y-82057628D01*
X173145125Y-82057628D02*
X173107030Y-82210009D01*
X173107030Y-82210009D02*
X173030839Y-82286200D01*
X173030839Y-82286200D02*
X172954649Y-82324295D01*
X172954649Y-82324295D02*
X172802268Y-82324295D01*
X172802268Y-82324295D02*
X172726077Y-82286200D01*
X172726077Y-82286200D02*
X172649887Y-82210009D01*
X172649887Y-82210009D02*
X172611791Y-82057628D01*
X172611791Y-82057628D02*
X172611791Y-81790961D01*
X172611791Y-81790961D02*
X172649887Y-81638580D01*
X172649887Y-81638580D02*
X172726077Y-81562390D01*
X172726077Y-81562390D02*
X172802268Y-81524295D01*
X173907029Y-82324295D02*
X173449886Y-82324295D01*
X173678458Y-82324295D02*
X173678458Y-81524295D01*
X173678458Y-81524295D02*
X173602267Y-81638580D01*
X173602267Y-81638580D02*
X173526077Y-81714771D01*
X173526077Y-81714771D02*
X173449886Y-81752866D01*
X174592744Y-81524295D02*
X174440363Y-81524295D01*
X174440363Y-81524295D02*
X174364172Y-81562390D01*
X174364172Y-81562390D02*
X174326077Y-81600485D01*
X174326077Y-81600485D02*
X174249887Y-81714771D01*
X174249887Y-81714771D02*
X174211791Y-81867152D01*
X174211791Y-81867152D02*
X174211791Y-82171914D01*
X174211791Y-82171914D02*
X174249887Y-82248104D01*
X174249887Y-82248104D02*
X174287982Y-82286200D01*
X174287982Y-82286200D02*
X174364172Y-82324295D01*
X174364172Y-82324295D02*
X174516553Y-82324295D01*
X174516553Y-82324295D02*
X174592744Y-82286200D01*
X174592744Y-82286200D02*
X174630839Y-82248104D01*
X174630839Y-82248104D02*
X174668934Y-82171914D01*
X174668934Y-82171914D02*
X174668934Y-81981438D01*
X174668934Y-81981438D02*
X174630839Y-81905247D01*
X174630839Y-81905247D02*
X174592744Y-81867152D01*
X174592744Y-81867152D02*
X174516553Y-81829057D01*
X174516553Y-81829057D02*
X174364172Y-81829057D01*
X174364172Y-81829057D02*
X174287982Y-81867152D01*
X174287982Y-81867152D02*
X174249887Y-81905247D01*
X174249887Y-81905247D02*
X174211791Y-81981438D01*
X171087982Y-73942390D02*
X171011792Y-73904295D01*
X171011792Y-73904295D02*
X170897506Y-73904295D01*
X170897506Y-73904295D02*
X170783220Y-73942390D01*
X170783220Y-73942390D02*
X170707030Y-74018580D01*
X170707030Y-74018580D02*
X170668935Y-74094771D01*
X170668935Y-74094771D02*
X170630839Y-74247152D01*
X170630839Y-74247152D02*
X170630839Y-74361438D01*
X170630839Y-74361438D02*
X170668935Y-74513819D01*
X170668935Y-74513819D02*
X170707030Y-74590009D01*
X170707030Y-74590009D02*
X170783220Y-74666200D01*
X170783220Y-74666200D02*
X170897506Y-74704295D01*
X170897506Y-74704295D02*
X170973697Y-74704295D01*
X170973697Y-74704295D02*
X171087982Y-74666200D01*
X171087982Y-74666200D02*
X171126078Y-74628104D01*
X171126078Y-74628104D02*
X171126078Y-74361438D01*
X171126078Y-74361438D02*
X170973697Y-74361438D01*
X171468935Y-74704295D02*
X171468935Y-73904295D01*
X171468935Y-73904295D02*
X171773697Y-73904295D01*
X171773697Y-73904295D02*
X171849887Y-73942390D01*
X171849887Y-73942390D02*
X171887982Y-73980485D01*
X171887982Y-73980485D02*
X171926078Y-74056676D01*
X171926078Y-74056676D02*
X171926078Y-74170961D01*
X171926078Y-74170961D02*
X171887982Y-74247152D01*
X171887982Y-74247152D02*
X171849887Y-74285247D01*
X171849887Y-74285247D02*
X171773697Y-74323342D01*
X171773697Y-74323342D02*
X171468935Y-74323342D01*
X172268935Y-74704295D02*
X172268935Y-73904295D01*
X172802268Y-73904295D02*
X172954649Y-73904295D01*
X172954649Y-73904295D02*
X173030839Y-73942390D01*
X173030839Y-73942390D02*
X173107030Y-74018580D01*
X173107030Y-74018580D02*
X173145125Y-74170961D01*
X173145125Y-74170961D02*
X173145125Y-74437628D01*
X173145125Y-74437628D02*
X173107030Y-74590009D01*
X173107030Y-74590009D02*
X173030839Y-74666200D01*
X173030839Y-74666200D02*
X172954649Y-74704295D01*
X172954649Y-74704295D02*
X172802268Y-74704295D01*
X172802268Y-74704295D02*
X172726077Y-74666200D01*
X172726077Y-74666200D02*
X172649887Y-74590009D01*
X172649887Y-74590009D02*
X172611791Y-74437628D01*
X172611791Y-74437628D02*
X172611791Y-74170961D01*
X172611791Y-74170961D02*
X172649887Y-74018580D01*
X172649887Y-74018580D02*
X172726077Y-73942390D01*
X172726077Y-73942390D02*
X172802268Y-73904295D01*
X173907029Y-74704295D02*
X173449886Y-74704295D01*
X173678458Y-74704295D02*
X173678458Y-73904295D01*
X173678458Y-73904295D02*
X173602267Y-74018580D01*
X173602267Y-74018580D02*
X173526077Y-74094771D01*
X173526077Y-74094771D02*
X173449886Y-74132866D01*
X174364172Y-74247152D02*
X174287982Y-74209057D01*
X174287982Y-74209057D02*
X174249887Y-74170961D01*
X174249887Y-74170961D02*
X174211791Y-74094771D01*
X174211791Y-74094771D02*
X174211791Y-74056676D01*
X174211791Y-74056676D02*
X174249887Y-73980485D01*
X174249887Y-73980485D02*
X174287982Y-73942390D01*
X174287982Y-73942390D02*
X174364172Y-73904295D01*
X174364172Y-73904295D02*
X174516553Y-73904295D01*
X174516553Y-73904295D02*
X174592744Y-73942390D01*
X174592744Y-73942390D02*
X174630839Y-73980485D01*
X174630839Y-73980485D02*
X174668934Y-74056676D01*
X174668934Y-74056676D02*
X174668934Y-74094771D01*
X174668934Y-74094771D02*
X174630839Y-74170961D01*
X174630839Y-74170961D02*
X174592744Y-74209057D01*
X174592744Y-74209057D02*
X174516553Y-74247152D01*
X174516553Y-74247152D02*
X174364172Y-74247152D01*
X174364172Y-74247152D02*
X174287982Y-74285247D01*
X174287982Y-74285247D02*
X174249887Y-74323342D01*
X174249887Y-74323342D02*
X174211791Y-74399533D01*
X174211791Y-74399533D02*
X174211791Y-74551914D01*
X174211791Y-74551914D02*
X174249887Y-74628104D01*
X174249887Y-74628104D02*
X174287982Y-74666200D01*
X174287982Y-74666200D02*
X174364172Y-74704295D01*
X174364172Y-74704295D02*
X174516553Y-74704295D01*
X174516553Y-74704295D02*
X174592744Y-74666200D01*
X174592744Y-74666200D02*
X174630839Y-74628104D01*
X174630839Y-74628104D02*
X174668934Y-74551914D01*
X174668934Y-74551914D02*
X174668934Y-74399533D01*
X174668934Y-74399533D02*
X174630839Y-74323342D01*
X174630839Y-74323342D02*
X174592744Y-74285247D01*
X174592744Y-74285247D02*
X174516553Y-74247152D01*
X171087982Y-35842390D02*
X171011792Y-35804295D01*
X171011792Y-35804295D02*
X170897506Y-35804295D01*
X170897506Y-35804295D02*
X170783220Y-35842390D01*
X170783220Y-35842390D02*
X170707030Y-35918580D01*
X170707030Y-35918580D02*
X170668935Y-35994771D01*
X170668935Y-35994771D02*
X170630839Y-36147152D01*
X170630839Y-36147152D02*
X170630839Y-36261438D01*
X170630839Y-36261438D02*
X170668935Y-36413819D01*
X170668935Y-36413819D02*
X170707030Y-36490009D01*
X170707030Y-36490009D02*
X170783220Y-36566200D01*
X170783220Y-36566200D02*
X170897506Y-36604295D01*
X170897506Y-36604295D02*
X170973697Y-36604295D01*
X170973697Y-36604295D02*
X171087982Y-36566200D01*
X171087982Y-36566200D02*
X171126078Y-36528104D01*
X171126078Y-36528104D02*
X171126078Y-36261438D01*
X171126078Y-36261438D02*
X170973697Y-36261438D01*
X171468935Y-36604295D02*
X171468935Y-35804295D01*
X171468935Y-35804295D02*
X171773697Y-35804295D01*
X171773697Y-35804295D02*
X171849887Y-35842390D01*
X171849887Y-35842390D02*
X171887982Y-35880485D01*
X171887982Y-35880485D02*
X171926078Y-35956676D01*
X171926078Y-35956676D02*
X171926078Y-36070961D01*
X171926078Y-36070961D02*
X171887982Y-36147152D01*
X171887982Y-36147152D02*
X171849887Y-36185247D01*
X171849887Y-36185247D02*
X171773697Y-36223342D01*
X171773697Y-36223342D02*
X171468935Y-36223342D01*
X172268935Y-36604295D02*
X172268935Y-35804295D01*
X172802268Y-35804295D02*
X172954649Y-35804295D01*
X172954649Y-35804295D02*
X173030839Y-35842390D01*
X173030839Y-35842390D02*
X173107030Y-35918580D01*
X173107030Y-35918580D02*
X173145125Y-36070961D01*
X173145125Y-36070961D02*
X173145125Y-36337628D01*
X173145125Y-36337628D02*
X173107030Y-36490009D01*
X173107030Y-36490009D02*
X173030839Y-36566200D01*
X173030839Y-36566200D02*
X172954649Y-36604295D01*
X172954649Y-36604295D02*
X172802268Y-36604295D01*
X172802268Y-36604295D02*
X172726077Y-36566200D01*
X172726077Y-36566200D02*
X172649887Y-36490009D01*
X172649887Y-36490009D02*
X172611791Y-36337628D01*
X172611791Y-36337628D02*
X172611791Y-36070961D01*
X172611791Y-36070961D02*
X172649887Y-35918580D01*
X172649887Y-35918580D02*
X172726077Y-35842390D01*
X172726077Y-35842390D02*
X172802268Y-35804295D01*
X173449886Y-35880485D02*
X173487982Y-35842390D01*
X173487982Y-35842390D02*
X173564172Y-35804295D01*
X173564172Y-35804295D02*
X173754648Y-35804295D01*
X173754648Y-35804295D02*
X173830839Y-35842390D01*
X173830839Y-35842390D02*
X173868934Y-35880485D01*
X173868934Y-35880485D02*
X173907029Y-35956676D01*
X173907029Y-35956676D02*
X173907029Y-36032866D01*
X173907029Y-36032866D02*
X173868934Y-36147152D01*
X173868934Y-36147152D02*
X173411791Y-36604295D01*
X173411791Y-36604295D02*
X173907029Y-36604295D01*
X174287982Y-36604295D02*
X174440363Y-36604295D01*
X174440363Y-36604295D02*
X174516553Y-36566200D01*
X174516553Y-36566200D02*
X174554649Y-36528104D01*
X174554649Y-36528104D02*
X174630839Y-36413819D01*
X174630839Y-36413819D02*
X174668934Y-36261438D01*
X174668934Y-36261438D02*
X174668934Y-35956676D01*
X174668934Y-35956676D02*
X174630839Y-35880485D01*
X174630839Y-35880485D02*
X174592744Y-35842390D01*
X174592744Y-35842390D02*
X174516553Y-35804295D01*
X174516553Y-35804295D02*
X174364172Y-35804295D01*
X174364172Y-35804295D02*
X174287982Y-35842390D01*
X174287982Y-35842390D02*
X174249887Y-35880485D01*
X174249887Y-35880485D02*
X174211791Y-35956676D01*
X174211791Y-35956676D02*
X174211791Y-36147152D01*
X174211791Y-36147152D02*
X174249887Y-36223342D01*
X174249887Y-36223342D02*
X174287982Y-36261438D01*
X174287982Y-36261438D02*
X174364172Y-36299533D01*
X174364172Y-36299533D02*
X174516553Y-36299533D01*
X174516553Y-36299533D02*
X174592744Y-36261438D01*
X174592744Y-36261438D02*
X174630839Y-36223342D01*
X174630839Y-36223342D02*
X174668934Y-36147152D01*
X171087982Y-46002390D02*
X171011792Y-45964295D01*
X171011792Y-45964295D02*
X170897506Y-45964295D01*
X170897506Y-45964295D02*
X170783220Y-46002390D01*
X170783220Y-46002390D02*
X170707030Y-46078580D01*
X170707030Y-46078580D02*
X170668935Y-46154771D01*
X170668935Y-46154771D02*
X170630839Y-46307152D01*
X170630839Y-46307152D02*
X170630839Y-46421438D01*
X170630839Y-46421438D02*
X170668935Y-46573819D01*
X170668935Y-46573819D02*
X170707030Y-46650009D01*
X170707030Y-46650009D02*
X170783220Y-46726200D01*
X170783220Y-46726200D02*
X170897506Y-46764295D01*
X170897506Y-46764295D02*
X170973697Y-46764295D01*
X170973697Y-46764295D02*
X171087982Y-46726200D01*
X171087982Y-46726200D02*
X171126078Y-46688104D01*
X171126078Y-46688104D02*
X171126078Y-46421438D01*
X171126078Y-46421438D02*
X170973697Y-46421438D01*
X171468935Y-46764295D02*
X171468935Y-45964295D01*
X171468935Y-45964295D02*
X171773697Y-45964295D01*
X171773697Y-45964295D02*
X171849887Y-46002390D01*
X171849887Y-46002390D02*
X171887982Y-46040485D01*
X171887982Y-46040485D02*
X171926078Y-46116676D01*
X171926078Y-46116676D02*
X171926078Y-46230961D01*
X171926078Y-46230961D02*
X171887982Y-46307152D01*
X171887982Y-46307152D02*
X171849887Y-46345247D01*
X171849887Y-46345247D02*
X171773697Y-46383342D01*
X171773697Y-46383342D02*
X171468935Y-46383342D01*
X172268935Y-46764295D02*
X172268935Y-45964295D01*
X172802268Y-45964295D02*
X172954649Y-45964295D01*
X172954649Y-45964295D02*
X173030839Y-46002390D01*
X173030839Y-46002390D02*
X173107030Y-46078580D01*
X173107030Y-46078580D02*
X173145125Y-46230961D01*
X173145125Y-46230961D02*
X173145125Y-46497628D01*
X173145125Y-46497628D02*
X173107030Y-46650009D01*
X173107030Y-46650009D02*
X173030839Y-46726200D01*
X173030839Y-46726200D02*
X172954649Y-46764295D01*
X172954649Y-46764295D02*
X172802268Y-46764295D01*
X172802268Y-46764295D02*
X172726077Y-46726200D01*
X172726077Y-46726200D02*
X172649887Y-46650009D01*
X172649887Y-46650009D02*
X172611791Y-46497628D01*
X172611791Y-46497628D02*
X172611791Y-46230961D01*
X172611791Y-46230961D02*
X172649887Y-46078580D01*
X172649887Y-46078580D02*
X172726077Y-46002390D01*
X172726077Y-46002390D02*
X172802268Y-45964295D01*
X173449886Y-46040485D02*
X173487982Y-46002390D01*
X173487982Y-46002390D02*
X173564172Y-45964295D01*
X173564172Y-45964295D02*
X173754648Y-45964295D01*
X173754648Y-45964295D02*
X173830839Y-46002390D01*
X173830839Y-46002390D02*
X173868934Y-46040485D01*
X173868934Y-46040485D02*
X173907029Y-46116676D01*
X173907029Y-46116676D02*
X173907029Y-46192866D01*
X173907029Y-46192866D02*
X173868934Y-46307152D01*
X173868934Y-46307152D02*
X173411791Y-46764295D01*
X173411791Y-46764295D02*
X173907029Y-46764295D01*
X174173696Y-45964295D02*
X174707030Y-45964295D01*
X174707030Y-45964295D02*
X174364172Y-46764295D01*
X172992745Y-59464295D02*
X172726078Y-59083342D01*
X172535602Y-59464295D02*
X172535602Y-58664295D01*
X172535602Y-58664295D02*
X172840364Y-58664295D01*
X172840364Y-58664295D02*
X172916554Y-58702390D01*
X172916554Y-58702390D02*
X172954649Y-58740485D01*
X172954649Y-58740485D02*
X172992745Y-58816676D01*
X172992745Y-58816676D02*
X172992745Y-58930961D01*
X172992745Y-58930961D02*
X172954649Y-59007152D01*
X172954649Y-59007152D02*
X172916554Y-59045247D01*
X172916554Y-59045247D02*
X172840364Y-59083342D01*
X172840364Y-59083342D02*
X172535602Y-59083342D01*
X173335602Y-58664295D02*
X173335602Y-59311914D01*
X173335602Y-59311914D02*
X173373697Y-59388104D01*
X173373697Y-59388104D02*
X173411792Y-59426200D01*
X173411792Y-59426200D02*
X173487983Y-59464295D01*
X173487983Y-59464295D02*
X173640364Y-59464295D01*
X173640364Y-59464295D02*
X173716554Y-59426200D01*
X173716554Y-59426200D02*
X173754649Y-59388104D01*
X173754649Y-59388104D02*
X173792745Y-59311914D01*
X173792745Y-59311914D02*
X173792745Y-58664295D01*
X174173697Y-59464295D02*
X174173697Y-58664295D01*
X174173697Y-58664295D02*
X174630840Y-59464295D01*
X174630840Y-59464295D02*
X174630840Y-58664295D01*
X172992744Y-76482390D02*
X172916554Y-76444295D01*
X172916554Y-76444295D02*
X172802268Y-76444295D01*
X172802268Y-76444295D02*
X172687982Y-76482390D01*
X172687982Y-76482390D02*
X172611792Y-76558580D01*
X172611792Y-76558580D02*
X172573697Y-76634771D01*
X172573697Y-76634771D02*
X172535601Y-76787152D01*
X172535601Y-76787152D02*
X172535601Y-76901438D01*
X172535601Y-76901438D02*
X172573697Y-77053819D01*
X172573697Y-77053819D02*
X172611792Y-77130009D01*
X172611792Y-77130009D02*
X172687982Y-77206200D01*
X172687982Y-77206200D02*
X172802268Y-77244295D01*
X172802268Y-77244295D02*
X172878459Y-77244295D01*
X172878459Y-77244295D02*
X172992744Y-77206200D01*
X172992744Y-77206200D02*
X173030840Y-77168104D01*
X173030840Y-77168104D02*
X173030840Y-76901438D01*
X173030840Y-76901438D02*
X172878459Y-76901438D01*
X173373697Y-77244295D02*
X173373697Y-76444295D01*
X173373697Y-76444295D02*
X173830840Y-77244295D01*
X173830840Y-77244295D02*
X173830840Y-76444295D01*
X174211792Y-77244295D02*
X174211792Y-76444295D01*
X174211792Y-76444295D02*
X174402268Y-76444295D01*
X174402268Y-76444295D02*
X174516554Y-76482390D01*
X174516554Y-76482390D02*
X174592744Y-76558580D01*
X174592744Y-76558580D02*
X174630839Y-76634771D01*
X174630839Y-76634771D02*
X174668935Y-76787152D01*
X174668935Y-76787152D02*
X174668935Y-76901438D01*
X174668935Y-76901438D02*
X174630839Y-77053819D01*
X174630839Y-77053819D02*
X174592744Y-77130009D01*
X174592744Y-77130009D02*
X174516554Y-77206200D01*
X174516554Y-77206200D02*
X174402268Y-77244295D01*
X174402268Y-77244295D02*
X174211792Y-77244295D01*
X172992744Y-51082390D02*
X172916554Y-51044295D01*
X172916554Y-51044295D02*
X172802268Y-51044295D01*
X172802268Y-51044295D02*
X172687982Y-51082390D01*
X172687982Y-51082390D02*
X172611792Y-51158580D01*
X172611792Y-51158580D02*
X172573697Y-51234771D01*
X172573697Y-51234771D02*
X172535601Y-51387152D01*
X172535601Y-51387152D02*
X172535601Y-51501438D01*
X172535601Y-51501438D02*
X172573697Y-51653819D01*
X172573697Y-51653819D02*
X172611792Y-51730009D01*
X172611792Y-51730009D02*
X172687982Y-51806200D01*
X172687982Y-51806200D02*
X172802268Y-51844295D01*
X172802268Y-51844295D02*
X172878459Y-51844295D01*
X172878459Y-51844295D02*
X172992744Y-51806200D01*
X172992744Y-51806200D02*
X173030840Y-51768104D01*
X173030840Y-51768104D02*
X173030840Y-51501438D01*
X173030840Y-51501438D02*
X172878459Y-51501438D01*
X173373697Y-51844295D02*
X173373697Y-51044295D01*
X173373697Y-51044295D02*
X173830840Y-51844295D01*
X173830840Y-51844295D02*
X173830840Y-51044295D01*
X174211792Y-51844295D02*
X174211792Y-51044295D01*
X174211792Y-51044295D02*
X174402268Y-51044295D01*
X174402268Y-51044295D02*
X174516554Y-51082390D01*
X174516554Y-51082390D02*
X174592744Y-51158580D01*
X174592744Y-51158580D02*
X174630839Y-51234771D01*
X174630839Y-51234771D02*
X174668935Y-51387152D01*
X174668935Y-51387152D02*
X174668935Y-51501438D01*
X174668935Y-51501438D02*
X174630839Y-51653819D01*
X174630839Y-51653819D02*
X174592744Y-51730009D01*
X174592744Y-51730009D02*
X174516554Y-51806200D01*
X174516554Y-51806200D02*
X174402268Y-51844295D01*
X174402268Y-51844295D02*
X174211792Y-51844295D01*
X171087982Y-48542390D02*
X171011792Y-48504295D01*
X171011792Y-48504295D02*
X170897506Y-48504295D01*
X170897506Y-48504295D02*
X170783220Y-48542390D01*
X170783220Y-48542390D02*
X170707030Y-48618580D01*
X170707030Y-48618580D02*
X170668935Y-48694771D01*
X170668935Y-48694771D02*
X170630839Y-48847152D01*
X170630839Y-48847152D02*
X170630839Y-48961438D01*
X170630839Y-48961438D02*
X170668935Y-49113819D01*
X170668935Y-49113819D02*
X170707030Y-49190009D01*
X170707030Y-49190009D02*
X170783220Y-49266200D01*
X170783220Y-49266200D02*
X170897506Y-49304295D01*
X170897506Y-49304295D02*
X170973697Y-49304295D01*
X170973697Y-49304295D02*
X171087982Y-49266200D01*
X171087982Y-49266200D02*
X171126078Y-49228104D01*
X171126078Y-49228104D02*
X171126078Y-48961438D01*
X171126078Y-48961438D02*
X170973697Y-48961438D01*
X171468935Y-49304295D02*
X171468935Y-48504295D01*
X171468935Y-48504295D02*
X171773697Y-48504295D01*
X171773697Y-48504295D02*
X171849887Y-48542390D01*
X171849887Y-48542390D02*
X171887982Y-48580485D01*
X171887982Y-48580485D02*
X171926078Y-48656676D01*
X171926078Y-48656676D02*
X171926078Y-48770961D01*
X171926078Y-48770961D02*
X171887982Y-48847152D01*
X171887982Y-48847152D02*
X171849887Y-48885247D01*
X171849887Y-48885247D02*
X171773697Y-48923342D01*
X171773697Y-48923342D02*
X171468935Y-48923342D01*
X172268935Y-49304295D02*
X172268935Y-48504295D01*
X172802268Y-48504295D02*
X172954649Y-48504295D01*
X172954649Y-48504295D02*
X173030839Y-48542390D01*
X173030839Y-48542390D02*
X173107030Y-48618580D01*
X173107030Y-48618580D02*
X173145125Y-48770961D01*
X173145125Y-48770961D02*
X173145125Y-49037628D01*
X173145125Y-49037628D02*
X173107030Y-49190009D01*
X173107030Y-49190009D02*
X173030839Y-49266200D01*
X173030839Y-49266200D02*
X172954649Y-49304295D01*
X172954649Y-49304295D02*
X172802268Y-49304295D01*
X172802268Y-49304295D02*
X172726077Y-49266200D01*
X172726077Y-49266200D02*
X172649887Y-49190009D01*
X172649887Y-49190009D02*
X172611791Y-49037628D01*
X172611791Y-49037628D02*
X172611791Y-48770961D01*
X172611791Y-48770961D02*
X172649887Y-48618580D01*
X172649887Y-48618580D02*
X172726077Y-48542390D01*
X172726077Y-48542390D02*
X172802268Y-48504295D01*
X173449886Y-48580485D02*
X173487982Y-48542390D01*
X173487982Y-48542390D02*
X173564172Y-48504295D01*
X173564172Y-48504295D02*
X173754648Y-48504295D01*
X173754648Y-48504295D02*
X173830839Y-48542390D01*
X173830839Y-48542390D02*
X173868934Y-48580485D01*
X173868934Y-48580485D02*
X173907029Y-48656676D01*
X173907029Y-48656676D02*
X173907029Y-48732866D01*
X173907029Y-48732866D02*
X173868934Y-48847152D01*
X173868934Y-48847152D02*
X173411791Y-49304295D01*
X173411791Y-49304295D02*
X173907029Y-49304295D01*
X174592744Y-48504295D02*
X174440363Y-48504295D01*
X174440363Y-48504295D02*
X174364172Y-48542390D01*
X174364172Y-48542390D02*
X174326077Y-48580485D01*
X174326077Y-48580485D02*
X174249887Y-48694771D01*
X174249887Y-48694771D02*
X174211791Y-48847152D01*
X174211791Y-48847152D02*
X174211791Y-49151914D01*
X174211791Y-49151914D02*
X174249887Y-49228104D01*
X174249887Y-49228104D02*
X174287982Y-49266200D01*
X174287982Y-49266200D02*
X174364172Y-49304295D01*
X174364172Y-49304295D02*
X174516553Y-49304295D01*
X174516553Y-49304295D02*
X174592744Y-49266200D01*
X174592744Y-49266200D02*
X174630839Y-49228104D01*
X174630839Y-49228104D02*
X174668934Y-49151914D01*
X174668934Y-49151914D02*
X174668934Y-48961438D01*
X174668934Y-48961438D02*
X174630839Y-48885247D01*
X174630839Y-48885247D02*
X174592744Y-48847152D01*
X174592744Y-48847152D02*
X174516553Y-48809057D01*
X174516553Y-48809057D02*
X174364172Y-48809057D01*
X174364172Y-48809057D02*
X174287982Y-48847152D01*
X174287982Y-48847152D02*
X174249887Y-48885247D01*
X174249887Y-48885247D02*
X174211791Y-48961438D01*
X171087982Y-79022390D02*
X171011792Y-78984295D01*
X171011792Y-78984295D02*
X170897506Y-78984295D01*
X170897506Y-78984295D02*
X170783220Y-79022390D01*
X170783220Y-79022390D02*
X170707030Y-79098580D01*
X170707030Y-79098580D02*
X170668935Y-79174771D01*
X170668935Y-79174771D02*
X170630839Y-79327152D01*
X170630839Y-79327152D02*
X170630839Y-79441438D01*
X170630839Y-79441438D02*
X170668935Y-79593819D01*
X170668935Y-79593819D02*
X170707030Y-79670009D01*
X170707030Y-79670009D02*
X170783220Y-79746200D01*
X170783220Y-79746200D02*
X170897506Y-79784295D01*
X170897506Y-79784295D02*
X170973697Y-79784295D01*
X170973697Y-79784295D02*
X171087982Y-79746200D01*
X171087982Y-79746200D02*
X171126078Y-79708104D01*
X171126078Y-79708104D02*
X171126078Y-79441438D01*
X171126078Y-79441438D02*
X170973697Y-79441438D01*
X171468935Y-79784295D02*
X171468935Y-78984295D01*
X171468935Y-78984295D02*
X171773697Y-78984295D01*
X171773697Y-78984295D02*
X171849887Y-79022390D01*
X171849887Y-79022390D02*
X171887982Y-79060485D01*
X171887982Y-79060485D02*
X171926078Y-79136676D01*
X171926078Y-79136676D02*
X171926078Y-79250961D01*
X171926078Y-79250961D02*
X171887982Y-79327152D01*
X171887982Y-79327152D02*
X171849887Y-79365247D01*
X171849887Y-79365247D02*
X171773697Y-79403342D01*
X171773697Y-79403342D02*
X171468935Y-79403342D01*
X172268935Y-79784295D02*
X172268935Y-78984295D01*
X172802268Y-78984295D02*
X172954649Y-78984295D01*
X172954649Y-78984295D02*
X173030839Y-79022390D01*
X173030839Y-79022390D02*
X173107030Y-79098580D01*
X173107030Y-79098580D02*
X173145125Y-79250961D01*
X173145125Y-79250961D02*
X173145125Y-79517628D01*
X173145125Y-79517628D02*
X173107030Y-79670009D01*
X173107030Y-79670009D02*
X173030839Y-79746200D01*
X173030839Y-79746200D02*
X172954649Y-79784295D01*
X172954649Y-79784295D02*
X172802268Y-79784295D01*
X172802268Y-79784295D02*
X172726077Y-79746200D01*
X172726077Y-79746200D02*
X172649887Y-79670009D01*
X172649887Y-79670009D02*
X172611791Y-79517628D01*
X172611791Y-79517628D02*
X172611791Y-79250961D01*
X172611791Y-79250961D02*
X172649887Y-79098580D01*
X172649887Y-79098580D02*
X172726077Y-79022390D01*
X172726077Y-79022390D02*
X172802268Y-78984295D01*
X173907029Y-79784295D02*
X173449886Y-79784295D01*
X173678458Y-79784295D02*
X173678458Y-78984295D01*
X173678458Y-78984295D02*
X173602267Y-79098580D01*
X173602267Y-79098580D02*
X173526077Y-79174771D01*
X173526077Y-79174771D02*
X173449886Y-79212866D01*
X174173696Y-78984295D02*
X174707030Y-78984295D01*
X174707030Y-78984295D02*
X174364172Y-79784295D01*
X171087982Y-66322390D02*
X171011792Y-66284295D01*
X171011792Y-66284295D02*
X170897506Y-66284295D01*
X170897506Y-66284295D02*
X170783220Y-66322390D01*
X170783220Y-66322390D02*
X170707030Y-66398580D01*
X170707030Y-66398580D02*
X170668935Y-66474771D01*
X170668935Y-66474771D02*
X170630839Y-66627152D01*
X170630839Y-66627152D02*
X170630839Y-66741438D01*
X170630839Y-66741438D02*
X170668935Y-66893819D01*
X170668935Y-66893819D02*
X170707030Y-66970009D01*
X170707030Y-66970009D02*
X170783220Y-67046200D01*
X170783220Y-67046200D02*
X170897506Y-67084295D01*
X170897506Y-67084295D02*
X170973697Y-67084295D01*
X170973697Y-67084295D02*
X171087982Y-67046200D01*
X171087982Y-67046200D02*
X171126078Y-67008104D01*
X171126078Y-67008104D02*
X171126078Y-66741438D01*
X171126078Y-66741438D02*
X170973697Y-66741438D01*
X171468935Y-67084295D02*
X171468935Y-66284295D01*
X171468935Y-66284295D02*
X171773697Y-66284295D01*
X171773697Y-66284295D02*
X171849887Y-66322390D01*
X171849887Y-66322390D02*
X171887982Y-66360485D01*
X171887982Y-66360485D02*
X171926078Y-66436676D01*
X171926078Y-66436676D02*
X171926078Y-66550961D01*
X171926078Y-66550961D02*
X171887982Y-66627152D01*
X171887982Y-66627152D02*
X171849887Y-66665247D01*
X171849887Y-66665247D02*
X171773697Y-66703342D01*
X171773697Y-66703342D02*
X171468935Y-66703342D01*
X172268935Y-67084295D02*
X172268935Y-66284295D01*
X172802268Y-66284295D02*
X172954649Y-66284295D01*
X172954649Y-66284295D02*
X173030839Y-66322390D01*
X173030839Y-66322390D02*
X173107030Y-66398580D01*
X173107030Y-66398580D02*
X173145125Y-66550961D01*
X173145125Y-66550961D02*
X173145125Y-66817628D01*
X173145125Y-66817628D02*
X173107030Y-66970009D01*
X173107030Y-66970009D02*
X173030839Y-67046200D01*
X173030839Y-67046200D02*
X172954649Y-67084295D01*
X172954649Y-67084295D02*
X172802268Y-67084295D01*
X172802268Y-67084295D02*
X172726077Y-67046200D01*
X172726077Y-67046200D02*
X172649887Y-66970009D01*
X172649887Y-66970009D02*
X172611791Y-66817628D01*
X172611791Y-66817628D02*
X172611791Y-66550961D01*
X172611791Y-66550961D02*
X172649887Y-66398580D01*
X172649887Y-66398580D02*
X172726077Y-66322390D01*
X172726077Y-66322390D02*
X172802268Y-66284295D01*
X173449886Y-66360485D02*
X173487982Y-66322390D01*
X173487982Y-66322390D02*
X173564172Y-66284295D01*
X173564172Y-66284295D02*
X173754648Y-66284295D01*
X173754648Y-66284295D02*
X173830839Y-66322390D01*
X173830839Y-66322390D02*
X173868934Y-66360485D01*
X173868934Y-66360485D02*
X173907029Y-66436676D01*
X173907029Y-66436676D02*
X173907029Y-66512866D01*
X173907029Y-66512866D02*
X173868934Y-66627152D01*
X173868934Y-66627152D02*
X173411791Y-67084295D01*
X173411791Y-67084295D02*
X173907029Y-67084295D01*
X174668934Y-67084295D02*
X174211791Y-67084295D01*
X174440363Y-67084295D02*
X174440363Y-66284295D01*
X174440363Y-66284295D02*
X174364172Y-66398580D01*
X174364172Y-66398580D02*
X174287982Y-66474771D01*
X174287982Y-66474771D02*
X174211791Y-66512866D01*
X171087982Y-53622390D02*
X171011792Y-53584295D01*
X171011792Y-53584295D02*
X170897506Y-53584295D01*
X170897506Y-53584295D02*
X170783220Y-53622390D01*
X170783220Y-53622390D02*
X170707030Y-53698580D01*
X170707030Y-53698580D02*
X170668935Y-53774771D01*
X170668935Y-53774771D02*
X170630839Y-53927152D01*
X170630839Y-53927152D02*
X170630839Y-54041438D01*
X170630839Y-54041438D02*
X170668935Y-54193819D01*
X170668935Y-54193819D02*
X170707030Y-54270009D01*
X170707030Y-54270009D02*
X170783220Y-54346200D01*
X170783220Y-54346200D02*
X170897506Y-54384295D01*
X170897506Y-54384295D02*
X170973697Y-54384295D01*
X170973697Y-54384295D02*
X171087982Y-54346200D01*
X171087982Y-54346200D02*
X171126078Y-54308104D01*
X171126078Y-54308104D02*
X171126078Y-54041438D01*
X171126078Y-54041438D02*
X170973697Y-54041438D01*
X171468935Y-54384295D02*
X171468935Y-53584295D01*
X171468935Y-53584295D02*
X171773697Y-53584295D01*
X171773697Y-53584295D02*
X171849887Y-53622390D01*
X171849887Y-53622390D02*
X171887982Y-53660485D01*
X171887982Y-53660485D02*
X171926078Y-53736676D01*
X171926078Y-53736676D02*
X171926078Y-53850961D01*
X171926078Y-53850961D02*
X171887982Y-53927152D01*
X171887982Y-53927152D02*
X171849887Y-53965247D01*
X171849887Y-53965247D02*
X171773697Y-54003342D01*
X171773697Y-54003342D02*
X171468935Y-54003342D01*
X172268935Y-54384295D02*
X172268935Y-53584295D01*
X172802268Y-53584295D02*
X172954649Y-53584295D01*
X172954649Y-53584295D02*
X173030839Y-53622390D01*
X173030839Y-53622390D02*
X173107030Y-53698580D01*
X173107030Y-53698580D02*
X173145125Y-53850961D01*
X173145125Y-53850961D02*
X173145125Y-54117628D01*
X173145125Y-54117628D02*
X173107030Y-54270009D01*
X173107030Y-54270009D02*
X173030839Y-54346200D01*
X173030839Y-54346200D02*
X172954649Y-54384295D01*
X172954649Y-54384295D02*
X172802268Y-54384295D01*
X172802268Y-54384295D02*
X172726077Y-54346200D01*
X172726077Y-54346200D02*
X172649887Y-54270009D01*
X172649887Y-54270009D02*
X172611791Y-54117628D01*
X172611791Y-54117628D02*
X172611791Y-53850961D01*
X172611791Y-53850961D02*
X172649887Y-53698580D01*
X172649887Y-53698580D02*
X172726077Y-53622390D01*
X172726077Y-53622390D02*
X172802268Y-53584295D01*
X173449886Y-53660485D02*
X173487982Y-53622390D01*
X173487982Y-53622390D02*
X173564172Y-53584295D01*
X173564172Y-53584295D02*
X173754648Y-53584295D01*
X173754648Y-53584295D02*
X173830839Y-53622390D01*
X173830839Y-53622390D02*
X173868934Y-53660485D01*
X173868934Y-53660485D02*
X173907029Y-53736676D01*
X173907029Y-53736676D02*
X173907029Y-53812866D01*
X173907029Y-53812866D02*
X173868934Y-53927152D01*
X173868934Y-53927152D02*
X173411791Y-54384295D01*
X173411791Y-54384295D02*
X173907029Y-54384295D01*
X174592744Y-53850961D02*
X174592744Y-54384295D01*
X174402268Y-53546200D02*
X174211791Y-54117628D01*
X174211791Y-54117628D02*
X174707030Y-54117628D01*
X154602969Y-98084295D02*
X155098207Y-98084295D01*
X155098207Y-98084295D02*
X154831541Y-98389057D01*
X154831541Y-98389057D02*
X154945826Y-98389057D01*
X154945826Y-98389057D02*
X155022017Y-98427152D01*
X155022017Y-98427152D02*
X155060112Y-98465247D01*
X155060112Y-98465247D02*
X155098207Y-98541438D01*
X155098207Y-98541438D02*
X155098207Y-98731914D01*
X155098207Y-98731914D02*
X155060112Y-98808104D01*
X155060112Y-98808104D02*
X155022017Y-98846200D01*
X155022017Y-98846200D02*
X154945826Y-98884295D01*
X154945826Y-98884295D02*
X154717255Y-98884295D01*
X154717255Y-98884295D02*
X154641064Y-98846200D01*
X154641064Y-98846200D02*
X154602969Y-98808104D01*
X155326779Y-98084295D02*
X155593446Y-98884295D01*
X155593446Y-98884295D02*
X155860112Y-98084295D01*
X156050588Y-98084295D02*
X156545826Y-98084295D01*
X156545826Y-98084295D02*
X156279160Y-98389057D01*
X156279160Y-98389057D02*
X156393445Y-98389057D01*
X156393445Y-98389057D02*
X156469636Y-98427152D01*
X156469636Y-98427152D02*
X156507731Y-98465247D01*
X156507731Y-98465247D02*
X156545826Y-98541438D01*
X156545826Y-98541438D02*
X156545826Y-98731914D01*
X156545826Y-98731914D02*
X156507731Y-98808104D01*
X156507731Y-98808104D02*
X156469636Y-98846200D01*
X156469636Y-98846200D02*
X156393445Y-98884295D01*
X156393445Y-98884295D02*
X156164874Y-98884295D01*
X156164874Y-98884295D02*
X156088683Y-98846200D01*
X156088683Y-98846200D02*
X156050588Y-98808104D01*
X154641064Y-106466200D02*
X154755350Y-106504295D01*
X154755350Y-106504295D02*
X154945826Y-106504295D01*
X154945826Y-106504295D02*
X155022017Y-106466200D01*
X155022017Y-106466200D02*
X155060112Y-106428104D01*
X155060112Y-106428104D02*
X155098207Y-106351914D01*
X155098207Y-106351914D02*
X155098207Y-106275723D01*
X155098207Y-106275723D02*
X155060112Y-106199533D01*
X155060112Y-106199533D02*
X155022017Y-106161438D01*
X155022017Y-106161438D02*
X154945826Y-106123342D01*
X154945826Y-106123342D02*
X154793445Y-106085247D01*
X154793445Y-106085247D02*
X154717255Y-106047152D01*
X154717255Y-106047152D02*
X154679160Y-106009057D01*
X154679160Y-106009057D02*
X154641064Y-105932866D01*
X154641064Y-105932866D02*
X154641064Y-105856676D01*
X154641064Y-105856676D02*
X154679160Y-105780485D01*
X154679160Y-105780485D02*
X154717255Y-105742390D01*
X154717255Y-105742390D02*
X154793445Y-105704295D01*
X154793445Y-105704295D02*
X154983922Y-105704295D01*
X154983922Y-105704295D02*
X155098207Y-105742390D01*
X155898208Y-106428104D02*
X155860112Y-106466200D01*
X155860112Y-106466200D02*
X155745827Y-106504295D01*
X155745827Y-106504295D02*
X155669636Y-106504295D01*
X155669636Y-106504295D02*
X155555350Y-106466200D01*
X155555350Y-106466200D02*
X155479160Y-106390009D01*
X155479160Y-106390009D02*
X155441065Y-106313819D01*
X155441065Y-106313819D02*
X155402969Y-106161438D01*
X155402969Y-106161438D02*
X155402969Y-106047152D01*
X155402969Y-106047152D02*
X155441065Y-105894771D01*
X155441065Y-105894771D02*
X155479160Y-105818580D01*
X155479160Y-105818580D02*
X155555350Y-105742390D01*
X155555350Y-105742390D02*
X155669636Y-105704295D01*
X155669636Y-105704295D02*
X155745827Y-105704295D01*
X155745827Y-105704295D02*
X155860112Y-105742390D01*
X155860112Y-105742390D02*
X155898208Y-105780485D01*
X156622017Y-106504295D02*
X156241065Y-106504295D01*
X156241065Y-106504295D02*
X156241065Y-105704295D01*
X154651064Y-103936200D02*
X154765350Y-103974295D01*
X154765350Y-103974295D02*
X154955826Y-103974295D01*
X154955826Y-103974295D02*
X155032017Y-103936200D01*
X155032017Y-103936200D02*
X155070112Y-103898104D01*
X155070112Y-103898104D02*
X155108207Y-103821914D01*
X155108207Y-103821914D02*
X155108207Y-103745723D01*
X155108207Y-103745723D02*
X155070112Y-103669533D01*
X155070112Y-103669533D02*
X155032017Y-103631438D01*
X155032017Y-103631438D02*
X154955826Y-103593342D01*
X154955826Y-103593342D02*
X154803445Y-103555247D01*
X154803445Y-103555247D02*
X154727255Y-103517152D01*
X154727255Y-103517152D02*
X154689160Y-103479057D01*
X154689160Y-103479057D02*
X154651064Y-103402866D01*
X154651064Y-103402866D02*
X154651064Y-103326676D01*
X154651064Y-103326676D02*
X154689160Y-103250485D01*
X154689160Y-103250485D02*
X154727255Y-103212390D01*
X154727255Y-103212390D02*
X154803445Y-103174295D01*
X154803445Y-103174295D02*
X154993922Y-103174295D01*
X154993922Y-103174295D02*
X155108207Y-103212390D01*
X155451065Y-103974295D02*
X155451065Y-103174295D01*
X155451065Y-103174295D02*
X155641541Y-103174295D01*
X155641541Y-103174295D02*
X155755827Y-103212390D01*
X155755827Y-103212390D02*
X155832017Y-103288580D01*
X155832017Y-103288580D02*
X155870112Y-103364771D01*
X155870112Y-103364771D02*
X155908208Y-103517152D01*
X155908208Y-103517152D02*
X155908208Y-103631438D01*
X155908208Y-103631438D02*
X155870112Y-103783819D01*
X155870112Y-103783819D02*
X155832017Y-103860009D01*
X155832017Y-103860009D02*
X155755827Y-103936200D01*
X155755827Y-103936200D02*
X155641541Y-103974295D01*
X155641541Y-103974295D02*
X155451065Y-103974295D01*
X156212969Y-103745723D02*
X156593922Y-103745723D01*
X156136779Y-103974295D02*
X156403446Y-103174295D01*
X156403446Y-103174295D02*
X156670112Y-103974295D01*
X155098207Y-100662390D02*
X155022017Y-100624295D01*
X155022017Y-100624295D02*
X154907731Y-100624295D01*
X154907731Y-100624295D02*
X154793445Y-100662390D01*
X154793445Y-100662390D02*
X154717255Y-100738580D01*
X154717255Y-100738580D02*
X154679160Y-100814771D01*
X154679160Y-100814771D02*
X154641064Y-100967152D01*
X154641064Y-100967152D02*
X154641064Y-101081438D01*
X154641064Y-101081438D02*
X154679160Y-101233819D01*
X154679160Y-101233819D02*
X154717255Y-101310009D01*
X154717255Y-101310009D02*
X154793445Y-101386200D01*
X154793445Y-101386200D02*
X154907731Y-101424295D01*
X154907731Y-101424295D02*
X154983922Y-101424295D01*
X154983922Y-101424295D02*
X155098207Y-101386200D01*
X155098207Y-101386200D02*
X155136303Y-101348104D01*
X155136303Y-101348104D02*
X155136303Y-101081438D01*
X155136303Y-101081438D02*
X154983922Y-101081438D01*
X155479160Y-101424295D02*
X155479160Y-100624295D01*
X155479160Y-100624295D02*
X155936303Y-101424295D01*
X155936303Y-101424295D02*
X155936303Y-100624295D01*
X156317255Y-101424295D02*
X156317255Y-100624295D01*
X156317255Y-100624295D02*
X156507731Y-100624295D01*
X156507731Y-100624295D02*
X156622017Y-100662390D01*
X156622017Y-100662390D02*
X156698207Y-100738580D01*
X156698207Y-100738580D02*
X156736302Y-100814771D01*
X156736302Y-100814771D02*
X156774398Y-100967152D01*
X156774398Y-100967152D02*
X156774398Y-101081438D01*
X156774398Y-101081438D02*
X156736302Y-101233819D01*
X156736302Y-101233819D02*
X156698207Y-101310009D01*
X156698207Y-101310009D02*
X156622017Y-101386200D01*
X156622017Y-101386200D02*
X156507731Y-101424295D01*
X156507731Y-101424295D02*
X156317255Y-101424295D01*
X151813810Y-109194819D02*
X151813810Y-108194819D01*
X152242381Y-108290057D02*
X152290000Y-108242438D01*
X152290000Y-108242438D02*
X152385238Y-108194819D01*
X152385238Y-108194819D02*
X152623333Y-108194819D01*
X152623333Y-108194819D02*
X152718571Y-108242438D01*
X152718571Y-108242438D02*
X152766190Y-108290057D01*
X152766190Y-108290057D02*
X152813809Y-108385295D01*
X152813809Y-108385295D02*
X152813809Y-108480533D01*
X152813809Y-108480533D02*
X152766190Y-108623390D01*
X152766190Y-108623390D02*
X152194762Y-109194819D01*
X152194762Y-109194819D02*
X152813809Y-109194819D01*
X153813809Y-109099580D02*
X153766190Y-109147200D01*
X153766190Y-109147200D02*
X153623333Y-109194819D01*
X153623333Y-109194819D02*
X153528095Y-109194819D01*
X153528095Y-109194819D02*
X153385238Y-109147200D01*
X153385238Y-109147200D02*
X153290000Y-109051961D01*
X153290000Y-109051961D02*
X153242381Y-108956723D01*
X153242381Y-108956723D02*
X153194762Y-108766247D01*
X153194762Y-108766247D02*
X153194762Y-108623390D01*
X153194762Y-108623390D02*
X153242381Y-108432914D01*
X153242381Y-108432914D02*
X153290000Y-108337676D01*
X153290000Y-108337676D02*
X153385238Y-108242438D01*
X153385238Y-108242438D02*
X153528095Y-108194819D01*
X153528095Y-108194819D02*
X153623333Y-108194819D01*
X153623333Y-108194819D02*
X153766190Y-108242438D01*
X153766190Y-108242438D02*
X153813809Y-108290057D01*
X146886191Y-109277200D02*
X147029048Y-109324819D01*
X147029048Y-109324819D02*
X147267143Y-109324819D01*
X147267143Y-109324819D02*
X147362381Y-109277200D01*
X147362381Y-109277200D02*
X147410000Y-109229580D01*
X147410000Y-109229580D02*
X147457619Y-109134342D01*
X147457619Y-109134342D02*
X147457619Y-109039104D01*
X147457619Y-109039104D02*
X147410000Y-108943866D01*
X147410000Y-108943866D02*
X147362381Y-108896247D01*
X147362381Y-108896247D02*
X147267143Y-108848628D01*
X147267143Y-108848628D02*
X147076667Y-108801009D01*
X147076667Y-108801009D02*
X146981429Y-108753390D01*
X146981429Y-108753390D02*
X146933810Y-108705771D01*
X146933810Y-108705771D02*
X146886191Y-108610533D01*
X146886191Y-108610533D02*
X146886191Y-108515295D01*
X146886191Y-108515295D02*
X146933810Y-108420057D01*
X146933810Y-108420057D02*
X146981429Y-108372438D01*
X146981429Y-108372438D02*
X147076667Y-108324819D01*
X147076667Y-108324819D02*
X147314762Y-108324819D01*
X147314762Y-108324819D02*
X147457619Y-108372438D01*
X147886191Y-109324819D02*
X147886191Y-108324819D01*
X147886191Y-108324819D02*
X148267143Y-108324819D01*
X148267143Y-108324819D02*
X148362381Y-108372438D01*
X148362381Y-108372438D02*
X148410000Y-108420057D01*
X148410000Y-108420057D02*
X148457619Y-108515295D01*
X148457619Y-108515295D02*
X148457619Y-108658152D01*
X148457619Y-108658152D02*
X148410000Y-108753390D01*
X148410000Y-108753390D02*
X148362381Y-108801009D01*
X148362381Y-108801009D02*
X148267143Y-108848628D01*
X148267143Y-108848628D02*
X147886191Y-108848628D01*
X148886191Y-109324819D02*
X148886191Y-108324819D01*
X143416554Y-106614295D02*
X143416554Y-105814295D01*
X143416554Y-105814295D02*
X143683220Y-106385723D01*
X143683220Y-106385723D02*
X143949887Y-105814295D01*
X143949887Y-105814295D02*
X143949887Y-106614295D01*
X144483221Y-105814295D02*
X144635602Y-105814295D01*
X144635602Y-105814295D02*
X144711792Y-105852390D01*
X144711792Y-105852390D02*
X144787983Y-105928580D01*
X144787983Y-105928580D02*
X144826078Y-106080961D01*
X144826078Y-106080961D02*
X144826078Y-106347628D01*
X144826078Y-106347628D02*
X144787983Y-106500009D01*
X144787983Y-106500009D02*
X144711792Y-106576200D01*
X144711792Y-106576200D02*
X144635602Y-106614295D01*
X144635602Y-106614295D02*
X144483221Y-106614295D01*
X144483221Y-106614295D02*
X144407030Y-106576200D01*
X144407030Y-106576200D02*
X144330840Y-106500009D01*
X144330840Y-106500009D02*
X144292744Y-106347628D01*
X144292744Y-106347628D02*
X144292744Y-106080961D01*
X144292744Y-106080961D02*
X144330840Y-105928580D01*
X144330840Y-105928580D02*
X144407030Y-105852390D01*
X144407030Y-105852390D02*
X144483221Y-105814295D01*
X145130839Y-106576200D02*
X145245125Y-106614295D01*
X145245125Y-106614295D02*
X145435601Y-106614295D01*
X145435601Y-106614295D02*
X145511792Y-106576200D01*
X145511792Y-106576200D02*
X145549887Y-106538104D01*
X145549887Y-106538104D02*
X145587982Y-106461914D01*
X145587982Y-106461914D02*
X145587982Y-106385723D01*
X145587982Y-106385723D02*
X145549887Y-106309533D01*
X145549887Y-106309533D02*
X145511792Y-106271438D01*
X145511792Y-106271438D02*
X145435601Y-106233342D01*
X145435601Y-106233342D02*
X145283220Y-106195247D01*
X145283220Y-106195247D02*
X145207030Y-106157152D01*
X145207030Y-106157152D02*
X145168935Y-106119057D01*
X145168935Y-106119057D02*
X145130839Y-106042866D01*
X145130839Y-106042866D02*
X145130839Y-105966676D01*
X145130839Y-105966676D02*
X145168935Y-105890485D01*
X145168935Y-105890485D02*
X145207030Y-105852390D01*
X145207030Y-105852390D02*
X145283220Y-105814295D01*
X145283220Y-105814295D02*
X145473697Y-105814295D01*
X145473697Y-105814295D02*
X145587982Y-105852390D01*
X145930840Y-106614295D02*
X145930840Y-105814295D01*
X143416554Y-98994295D02*
X143416554Y-98194295D01*
X143416554Y-98194295D02*
X143683220Y-98765723D01*
X143683220Y-98765723D02*
X143949887Y-98194295D01*
X143949887Y-98194295D02*
X143949887Y-98994295D01*
X144330840Y-98994295D02*
X144330840Y-98194295D01*
X144673696Y-98956200D02*
X144787982Y-98994295D01*
X144787982Y-98994295D02*
X144978458Y-98994295D01*
X144978458Y-98994295D02*
X145054649Y-98956200D01*
X145054649Y-98956200D02*
X145092744Y-98918104D01*
X145092744Y-98918104D02*
X145130839Y-98841914D01*
X145130839Y-98841914D02*
X145130839Y-98765723D01*
X145130839Y-98765723D02*
X145092744Y-98689533D01*
X145092744Y-98689533D02*
X145054649Y-98651438D01*
X145054649Y-98651438D02*
X144978458Y-98613342D01*
X144978458Y-98613342D02*
X144826077Y-98575247D01*
X144826077Y-98575247D02*
X144749887Y-98537152D01*
X144749887Y-98537152D02*
X144711792Y-98499057D01*
X144711792Y-98499057D02*
X144673696Y-98422866D01*
X144673696Y-98422866D02*
X144673696Y-98346676D01*
X144673696Y-98346676D02*
X144711792Y-98270485D01*
X144711792Y-98270485D02*
X144749887Y-98232390D01*
X144749887Y-98232390D02*
X144826077Y-98194295D01*
X144826077Y-98194295D02*
X145016554Y-98194295D01*
X145016554Y-98194295D02*
X145130839Y-98232390D01*
X145626078Y-98194295D02*
X145778459Y-98194295D01*
X145778459Y-98194295D02*
X145854649Y-98232390D01*
X145854649Y-98232390D02*
X145930840Y-98308580D01*
X145930840Y-98308580D02*
X145968935Y-98460961D01*
X145968935Y-98460961D02*
X145968935Y-98727628D01*
X145968935Y-98727628D02*
X145930840Y-98880009D01*
X145930840Y-98880009D02*
X145854649Y-98956200D01*
X145854649Y-98956200D02*
X145778459Y-98994295D01*
X145778459Y-98994295D02*
X145626078Y-98994295D01*
X145626078Y-98994295D02*
X145549887Y-98956200D01*
X145549887Y-98956200D02*
X145473697Y-98880009D01*
X145473697Y-98880009D02*
X145435601Y-98727628D01*
X145435601Y-98727628D02*
X145435601Y-98460961D01*
X145435601Y-98460961D02*
X145473697Y-98308580D01*
X145473697Y-98308580D02*
X145549887Y-98232390D01*
X145549887Y-98232390D02*
X145626078Y-98194295D01*
X145207030Y-101458104D02*
X145168934Y-101496200D01*
X145168934Y-101496200D02*
X145054649Y-101534295D01*
X145054649Y-101534295D02*
X144978458Y-101534295D01*
X144978458Y-101534295D02*
X144864172Y-101496200D01*
X144864172Y-101496200D02*
X144787982Y-101420009D01*
X144787982Y-101420009D02*
X144749887Y-101343819D01*
X144749887Y-101343819D02*
X144711791Y-101191438D01*
X144711791Y-101191438D02*
X144711791Y-101077152D01*
X144711791Y-101077152D02*
X144749887Y-100924771D01*
X144749887Y-100924771D02*
X144787982Y-100848580D01*
X144787982Y-100848580D02*
X144864172Y-100772390D01*
X144864172Y-100772390D02*
X144978458Y-100734295D01*
X144978458Y-100734295D02*
X145054649Y-100734295D01*
X145054649Y-100734295D02*
X145168934Y-100772390D01*
X145168934Y-100772390D02*
X145207030Y-100810485D01*
X145511791Y-101496200D02*
X145626077Y-101534295D01*
X145626077Y-101534295D02*
X145816553Y-101534295D01*
X145816553Y-101534295D02*
X145892744Y-101496200D01*
X145892744Y-101496200D02*
X145930839Y-101458104D01*
X145930839Y-101458104D02*
X145968934Y-101381914D01*
X145968934Y-101381914D02*
X145968934Y-101305723D01*
X145968934Y-101305723D02*
X145930839Y-101229533D01*
X145930839Y-101229533D02*
X145892744Y-101191438D01*
X145892744Y-101191438D02*
X145816553Y-101153342D01*
X145816553Y-101153342D02*
X145664172Y-101115247D01*
X145664172Y-101115247D02*
X145587982Y-101077152D01*
X145587982Y-101077152D02*
X145549887Y-101039057D01*
X145549887Y-101039057D02*
X145511791Y-100962866D01*
X145511791Y-100962866D02*
X145511791Y-100886676D01*
X145511791Y-100886676D02*
X145549887Y-100810485D01*
X145549887Y-100810485D02*
X145587982Y-100772390D01*
X145587982Y-100772390D02*
X145664172Y-100734295D01*
X145664172Y-100734295D02*
X145854649Y-100734295D01*
X145854649Y-100734295D02*
X145968934Y-100772390D01*
X144292744Y-95692390D02*
X144216554Y-95654295D01*
X144216554Y-95654295D02*
X144102268Y-95654295D01*
X144102268Y-95654295D02*
X143987982Y-95692390D01*
X143987982Y-95692390D02*
X143911792Y-95768580D01*
X143911792Y-95768580D02*
X143873697Y-95844771D01*
X143873697Y-95844771D02*
X143835601Y-95997152D01*
X143835601Y-95997152D02*
X143835601Y-96111438D01*
X143835601Y-96111438D02*
X143873697Y-96263819D01*
X143873697Y-96263819D02*
X143911792Y-96340009D01*
X143911792Y-96340009D02*
X143987982Y-96416200D01*
X143987982Y-96416200D02*
X144102268Y-96454295D01*
X144102268Y-96454295D02*
X144178459Y-96454295D01*
X144178459Y-96454295D02*
X144292744Y-96416200D01*
X144292744Y-96416200D02*
X144330840Y-96378104D01*
X144330840Y-96378104D02*
X144330840Y-96111438D01*
X144330840Y-96111438D02*
X144178459Y-96111438D01*
X144673697Y-96454295D02*
X144673697Y-95654295D01*
X144673697Y-95654295D02*
X145130840Y-96454295D01*
X145130840Y-96454295D02*
X145130840Y-95654295D01*
X145511792Y-96454295D02*
X145511792Y-95654295D01*
X145511792Y-95654295D02*
X145702268Y-95654295D01*
X145702268Y-95654295D02*
X145816554Y-95692390D01*
X145816554Y-95692390D02*
X145892744Y-95768580D01*
X145892744Y-95768580D02*
X145930839Y-95844771D01*
X145930839Y-95844771D02*
X145968935Y-95997152D01*
X145968935Y-95997152D02*
X145968935Y-96111438D01*
X145968935Y-96111438D02*
X145930839Y-96263819D01*
X145930839Y-96263819D02*
X145892744Y-96340009D01*
X145892744Y-96340009D02*
X145816554Y-96416200D01*
X145816554Y-96416200D02*
X145702268Y-96454295D01*
X145702268Y-96454295D02*
X145511792Y-96454295D01*
X144026077Y-93114295D02*
X144521315Y-93114295D01*
X144521315Y-93114295D02*
X144254649Y-93419057D01*
X144254649Y-93419057D02*
X144368934Y-93419057D01*
X144368934Y-93419057D02*
X144445125Y-93457152D01*
X144445125Y-93457152D02*
X144483220Y-93495247D01*
X144483220Y-93495247D02*
X144521315Y-93571438D01*
X144521315Y-93571438D02*
X144521315Y-93761914D01*
X144521315Y-93761914D02*
X144483220Y-93838104D01*
X144483220Y-93838104D02*
X144445125Y-93876200D01*
X144445125Y-93876200D02*
X144368934Y-93914295D01*
X144368934Y-93914295D02*
X144140363Y-93914295D01*
X144140363Y-93914295D02*
X144064172Y-93876200D01*
X144064172Y-93876200D02*
X144026077Y-93838104D01*
X144749887Y-93114295D02*
X145016554Y-93914295D01*
X145016554Y-93914295D02*
X145283220Y-93114295D01*
X145473696Y-93114295D02*
X145968934Y-93114295D01*
X145968934Y-93114295D02*
X145702268Y-93419057D01*
X145702268Y-93419057D02*
X145816553Y-93419057D01*
X145816553Y-93419057D02*
X145892744Y-93457152D01*
X145892744Y-93457152D02*
X145930839Y-93495247D01*
X145930839Y-93495247D02*
X145968934Y-93571438D01*
X145968934Y-93571438D02*
X145968934Y-93761914D01*
X145968934Y-93761914D02*
X145930839Y-93838104D01*
X145930839Y-93838104D02*
X145892744Y-93876200D01*
X145892744Y-93876200D02*
X145816553Y-93914295D01*
X145816553Y-93914295D02*
X145587982Y-93914295D01*
X145587982Y-93914295D02*
X145511791Y-93876200D01*
X145511791Y-93876200D02*
X145473696Y-93838104D01*
X143911791Y-104036200D02*
X144026077Y-104074295D01*
X144026077Y-104074295D02*
X144216553Y-104074295D01*
X144216553Y-104074295D02*
X144292744Y-104036200D01*
X144292744Y-104036200D02*
X144330839Y-103998104D01*
X144330839Y-103998104D02*
X144368934Y-103921914D01*
X144368934Y-103921914D02*
X144368934Y-103845723D01*
X144368934Y-103845723D02*
X144330839Y-103769533D01*
X144330839Y-103769533D02*
X144292744Y-103731438D01*
X144292744Y-103731438D02*
X144216553Y-103693342D01*
X144216553Y-103693342D02*
X144064172Y-103655247D01*
X144064172Y-103655247D02*
X143987982Y-103617152D01*
X143987982Y-103617152D02*
X143949887Y-103579057D01*
X143949887Y-103579057D02*
X143911791Y-103502866D01*
X143911791Y-103502866D02*
X143911791Y-103426676D01*
X143911791Y-103426676D02*
X143949887Y-103350485D01*
X143949887Y-103350485D02*
X143987982Y-103312390D01*
X143987982Y-103312390D02*
X144064172Y-103274295D01*
X144064172Y-103274295D02*
X144254649Y-103274295D01*
X144254649Y-103274295D02*
X144368934Y-103312390D01*
X145168935Y-103998104D02*
X145130839Y-104036200D01*
X145130839Y-104036200D02*
X145016554Y-104074295D01*
X145016554Y-104074295D02*
X144940363Y-104074295D01*
X144940363Y-104074295D02*
X144826077Y-104036200D01*
X144826077Y-104036200D02*
X144749887Y-103960009D01*
X144749887Y-103960009D02*
X144711792Y-103883819D01*
X144711792Y-103883819D02*
X144673696Y-103731438D01*
X144673696Y-103731438D02*
X144673696Y-103617152D01*
X144673696Y-103617152D02*
X144711792Y-103464771D01*
X144711792Y-103464771D02*
X144749887Y-103388580D01*
X144749887Y-103388580D02*
X144826077Y-103312390D01*
X144826077Y-103312390D02*
X144940363Y-103274295D01*
X144940363Y-103274295D02*
X145016554Y-103274295D01*
X145016554Y-103274295D02*
X145130839Y-103312390D01*
X145130839Y-103312390D02*
X145168935Y-103350485D01*
X145511792Y-104074295D02*
X145511792Y-103274295D01*
X145968935Y-104074295D02*
X145626077Y-103617152D01*
X145968935Y-103274295D02*
X145511792Y-103731438D01*
X158501905Y-107619819D02*
X158501905Y-106619819D01*
X158501905Y-106619819D02*
X158740000Y-106619819D01*
X158740000Y-106619819D02*
X158882857Y-106667438D01*
X158882857Y-106667438D02*
X158978095Y-106762676D01*
X158978095Y-106762676D02*
X159025714Y-106857914D01*
X159025714Y-106857914D02*
X159073333Y-107048390D01*
X159073333Y-107048390D02*
X159073333Y-107191247D01*
X159073333Y-107191247D02*
X159025714Y-107381723D01*
X159025714Y-107381723D02*
X158978095Y-107476961D01*
X158978095Y-107476961D02*
X158882857Y-107572200D01*
X158882857Y-107572200D02*
X158740000Y-107619819D01*
X158740000Y-107619819D02*
X158501905Y-107619819D01*
X159501905Y-107096009D02*
X159835238Y-107096009D01*
X159978095Y-107619819D02*
X159501905Y-107619819D01*
X159501905Y-107619819D02*
X159501905Y-106619819D01*
X159501905Y-106619819D02*
X159978095Y-106619819D01*
X160740000Y-107096009D02*
X160882857Y-107143628D01*
X160882857Y-107143628D02*
X160930476Y-107191247D01*
X160930476Y-107191247D02*
X160978095Y-107286485D01*
X160978095Y-107286485D02*
X160978095Y-107429342D01*
X160978095Y-107429342D02*
X160930476Y-107524580D01*
X160930476Y-107524580D02*
X160882857Y-107572200D01*
X160882857Y-107572200D02*
X160787619Y-107619819D01*
X160787619Y-107619819D02*
X160406667Y-107619819D01*
X160406667Y-107619819D02*
X160406667Y-106619819D01*
X160406667Y-106619819D02*
X160740000Y-106619819D01*
X160740000Y-106619819D02*
X160835238Y-106667438D01*
X160835238Y-106667438D02*
X160882857Y-106715057D01*
X160882857Y-106715057D02*
X160930476Y-106810295D01*
X160930476Y-106810295D02*
X160930476Y-106905533D01*
X160930476Y-106905533D02*
X160882857Y-107000771D01*
X160882857Y-107000771D02*
X160835238Y-107048390D01*
X160835238Y-107048390D02*
X160740000Y-107096009D01*
X160740000Y-107096009D02*
X160406667Y-107096009D01*
X161406667Y-106619819D02*
X161406667Y-107429342D01*
X161406667Y-107429342D02*
X161454286Y-107524580D01*
X161454286Y-107524580D02*
X161501905Y-107572200D01*
X161501905Y-107572200D02*
X161597143Y-107619819D01*
X161597143Y-107619819D02*
X161787619Y-107619819D01*
X161787619Y-107619819D02*
X161882857Y-107572200D01*
X161882857Y-107572200D02*
X161930476Y-107524580D01*
X161930476Y-107524580D02*
X161978095Y-107429342D01*
X161978095Y-107429342D02*
X161978095Y-106619819D01*
X162978095Y-106667438D02*
X162882857Y-106619819D01*
X162882857Y-106619819D02*
X162740000Y-106619819D01*
X162740000Y-106619819D02*
X162597143Y-106667438D01*
X162597143Y-106667438D02*
X162501905Y-106762676D01*
X162501905Y-106762676D02*
X162454286Y-106857914D01*
X162454286Y-106857914D02*
X162406667Y-107048390D01*
X162406667Y-107048390D02*
X162406667Y-107191247D01*
X162406667Y-107191247D02*
X162454286Y-107381723D01*
X162454286Y-107381723D02*
X162501905Y-107476961D01*
X162501905Y-107476961D02*
X162597143Y-107572200D01*
X162597143Y-107572200D02*
X162740000Y-107619819D01*
X162740000Y-107619819D02*
X162835238Y-107619819D01*
X162835238Y-107619819D02*
X162978095Y-107572200D01*
X162978095Y-107572200D02*
X163025714Y-107524580D01*
X163025714Y-107524580D02*
X163025714Y-107191247D01*
X163025714Y-107191247D02*
X162835238Y-107191247D01*
X147108207Y-79102390D02*
X147032017Y-79064295D01*
X147032017Y-79064295D02*
X146917731Y-79064295D01*
X146917731Y-79064295D02*
X146803445Y-79102390D01*
X146803445Y-79102390D02*
X146727255Y-79178580D01*
X146727255Y-79178580D02*
X146689160Y-79254771D01*
X146689160Y-79254771D02*
X146651064Y-79407152D01*
X146651064Y-79407152D02*
X146651064Y-79521438D01*
X146651064Y-79521438D02*
X146689160Y-79673819D01*
X146689160Y-79673819D02*
X146727255Y-79750009D01*
X146727255Y-79750009D02*
X146803445Y-79826200D01*
X146803445Y-79826200D02*
X146917731Y-79864295D01*
X146917731Y-79864295D02*
X146993922Y-79864295D01*
X146993922Y-79864295D02*
X147108207Y-79826200D01*
X147108207Y-79826200D02*
X147146303Y-79788104D01*
X147146303Y-79788104D02*
X147146303Y-79521438D01*
X147146303Y-79521438D02*
X146993922Y-79521438D01*
X147489160Y-79864295D02*
X147489160Y-79064295D01*
X147489160Y-79064295D02*
X147793922Y-79064295D01*
X147793922Y-79064295D02*
X147870112Y-79102390D01*
X147870112Y-79102390D02*
X147908207Y-79140485D01*
X147908207Y-79140485D02*
X147946303Y-79216676D01*
X147946303Y-79216676D02*
X147946303Y-79330961D01*
X147946303Y-79330961D02*
X147908207Y-79407152D01*
X147908207Y-79407152D02*
X147870112Y-79445247D01*
X147870112Y-79445247D02*
X147793922Y-79483342D01*
X147793922Y-79483342D02*
X147489160Y-79483342D01*
X148289160Y-79864295D02*
X148289160Y-79064295D01*
X148822493Y-79064295D02*
X148974874Y-79064295D01*
X148974874Y-79064295D02*
X149051064Y-79102390D01*
X149051064Y-79102390D02*
X149127255Y-79178580D01*
X149127255Y-79178580D02*
X149165350Y-79330961D01*
X149165350Y-79330961D02*
X149165350Y-79597628D01*
X149165350Y-79597628D02*
X149127255Y-79750009D01*
X149127255Y-79750009D02*
X149051064Y-79826200D01*
X149051064Y-79826200D02*
X148974874Y-79864295D01*
X148974874Y-79864295D02*
X148822493Y-79864295D01*
X148822493Y-79864295D02*
X148746302Y-79826200D01*
X148746302Y-79826200D02*
X148670112Y-79750009D01*
X148670112Y-79750009D02*
X148632016Y-79597628D01*
X148632016Y-79597628D02*
X148632016Y-79330961D01*
X148632016Y-79330961D02*
X148670112Y-79178580D01*
X148670112Y-79178580D02*
X148746302Y-79102390D01*
X148746302Y-79102390D02*
X148822493Y-79064295D01*
X149927254Y-79864295D02*
X149470111Y-79864295D01*
X149698683Y-79864295D02*
X149698683Y-79064295D01*
X149698683Y-79064295D02*
X149622492Y-79178580D01*
X149622492Y-79178580D02*
X149546302Y-79254771D01*
X149546302Y-79254771D02*
X149470111Y-79292866D01*
X150612969Y-79330961D02*
X150612969Y-79864295D01*
X150422493Y-79026200D02*
X150232016Y-79597628D01*
X150232016Y-79597628D02*
X150727255Y-79597628D01*
X147108207Y-76562390D02*
X147032017Y-76524295D01*
X147032017Y-76524295D02*
X146917731Y-76524295D01*
X146917731Y-76524295D02*
X146803445Y-76562390D01*
X146803445Y-76562390D02*
X146727255Y-76638580D01*
X146727255Y-76638580D02*
X146689160Y-76714771D01*
X146689160Y-76714771D02*
X146651064Y-76867152D01*
X146651064Y-76867152D02*
X146651064Y-76981438D01*
X146651064Y-76981438D02*
X146689160Y-77133819D01*
X146689160Y-77133819D02*
X146727255Y-77210009D01*
X146727255Y-77210009D02*
X146803445Y-77286200D01*
X146803445Y-77286200D02*
X146917731Y-77324295D01*
X146917731Y-77324295D02*
X146993922Y-77324295D01*
X146993922Y-77324295D02*
X147108207Y-77286200D01*
X147108207Y-77286200D02*
X147146303Y-77248104D01*
X147146303Y-77248104D02*
X147146303Y-76981438D01*
X147146303Y-76981438D02*
X146993922Y-76981438D01*
X147489160Y-77324295D02*
X147489160Y-76524295D01*
X147489160Y-76524295D02*
X147946303Y-77324295D01*
X147946303Y-77324295D02*
X147946303Y-76524295D01*
X148327255Y-77324295D02*
X148327255Y-76524295D01*
X148327255Y-76524295D02*
X148517731Y-76524295D01*
X148517731Y-76524295D02*
X148632017Y-76562390D01*
X148632017Y-76562390D02*
X148708207Y-76638580D01*
X148708207Y-76638580D02*
X148746302Y-76714771D01*
X148746302Y-76714771D02*
X148784398Y-76867152D01*
X148784398Y-76867152D02*
X148784398Y-76981438D01*
X148784398Y-76981438D02*
X148746302Y-77133819D01*
X148746302Y-77133819D02*
X148708207Y-77210009D01*
X148708207Y-77210009D02*
X148632017Y-77286200D01*
X148632017Y-77286200D02*
X148517731Y-77324295D01*
X148517731Y-77324295D02*
X148327255Y-77324295D01*
X147108207Y-74022390D02*
X147032017Y-73984295D01*
X147032017Y-73984295D02*
X146917731Y-73984295D01*
X146917731Y-73984295D02*
X146803445Y-74022390D01*
X146803445Y-74022390D02*
X146727255Y-74098580D01*
X146727255Y-74098580D02*
X146689160Y-74174771D01*
X146689160Y-74174771D02*
X146651064Y-74327152D01*
X146651064Y-74327152D02*
X146651064Y-74441438D01*
X146651064Y-74441438D02*
X146689160Y-74593819D01*
X146689160Y-74593819D02*
X146727255Y-74670009D01*
X146727255Y-74670009D02*
X146803445Y-74746200D01*
X146803445Y-74746200D02*
X146917731Y-74784295D01*
X146917731Y-74784295D02*
X146993922Y-74784295D01*
X146993922Y-74784295D02*
X147108207Y-74746200D01*
X147108207Y-74746200D02*
X147146303Y-74708104D01*
X147146303Y-74708104D02*
X147146303Y-74441438D01*
X147146303Y-74441438D02*
X146993922Y-74441438D01*
X147489160Y-74784295D02*
X147489160Y-73984295D01*
X147489160Y-73984295D02*
X147793922Y-73984295D01*
X147793922Y-73984295D02*
X147870112Y-74022390D01*
X147870112Y-74022390D02*
X147908207Y-74060485D01*
X147908207Y-74060485D02*
X147946303Y-74136676D01*
X147946303Y-74136676D02*
X147946303Y-74250961D01*
X147946303Y-74250961D02*
X147908207Y-74327152D01*
X147908207Y-74327152D02*
X147870112Y-74365247D01*
X147870112Y-74365247D02*
X147793922Y-74403342D01*
X147793922Y-74403342D02*
X147489160Y-74403342D01*
X148289160Y-74784295D02*
X148289160Y-73984295D01*
X148822493Y-73984295D02*
X148974874Y-73984295D01*
X148974874Y-73984295D02*
X149051064Y-74022390D01*
X149051064Y-74022390D02*
X149127255Y-74098580D01*
X149127255Y-74098580D02*
X149165350Y-74250961D01*
X149165350Y-74250961D02*
X149165350Y-74517628D01*
X149165350Y-74517628D02*
X149127255Y-74670009D01*
X149127255Y-74670009D02*
X149051064Y-74746200D01*
X149051064Y-74746200D02*
X148974874Y-74784295D01*
X148974874Y-74784295D02*
X148822493Y-74784295D01*
X148822493Y-74784295D02*
X148746302Y-74746200D01*
X148746302Y-74746200D02*
X148670112Y-74670009D01*
X148670112Y-74670009D02*
X148632016Y-74517628D01*
X148632016Y-74517628D02*
X148632016Y-74250961D01*
X148632016Y-74250961D02*
X148670112Y-74098580D01*
X148670112Y-74098580D02*
X148746302Y-74022390D01*
X148746302Y-74022390D02*
X148822493Y-73984295D01*
X149927254Y-74784295D02*
X149470111Y-74784295D01*
X149698683Y-74784295D02*
X149698683Y-73984295D01*
X149698683Y-73984295D02*
X149622492Y-74098580D01*
X149622492Y-74098580D02*
X149546302Y-74174771D01*
X149546302Y-74174771D02*
X149470111Y-74212866D01*
X150193921Y-73984295D02*
X150689159Y-73984295D01*
X150689159Y-73984295D02*
X150422493Y-74289057D01*
X150422493Y-74289057D02*
X150536778Y-74289057D01*
X150536778Y-74289057D02*
X150612969Y-74327152D01*
X150612969Y-74327152D02*
X150651064Y-74365247D01*
X150651064Y-74365247D02*
X150689159Y-74441438D01*
X150689159Y-74441438D02*
X150689159Y-74631914D01*
X150689159Y-74631914D02*
X150651064Y-74708104D01*
X150651064Y-74708104D02*
X150612969Y-74746200D01*
X150612969Y-74746200D02*
X150536778Y-74784295D01*
X150536778Y-74784295D02*
X150308207Y-74784295D01*
X150308207Y-74784295D02*
X150232016Y-74746200D01*
X150232016Y-74746200D02*
X150193921Y-74708104D01*
X147108207Y-71482390D02*
X147032017Y-71444295D01*
X147032017Y-71444295D02*
X146917731Y-71444295D01*
X146917731Y-71444295D02*
X146803445Y-71482390D01*
X146803445Y-71482390D02*
X146727255Y-71558580D01*
X146727255Y-71558580D02*
X146689160Y-71634771D01*
X146689160Y-71634771D02*
X146651064Y-71787152D01*
X146651064Y-71787152D02*
X146651064Y-71901438D01*
X146651064Y-71901438D02*
X146689160Y-72053819D01*
X146689160Y-72053819D02*
X146727255Y-72130009D01*
X146727255Y-72130009D02*
X146803445Y-72206200D01*
X146803445Y-72206200D02*
X146917731Y-72244295D01*
X146917731Y-72244295D02*
X146993922Y-72244295D01*
X146993922Y-72244295D02*
X147108207Y-72206200D01*
X147108207Y-72206200D02*
X147146303Y-72168104D01*
X147146303Y-72168104D02*
X147146303Y-71901438D01*
X147146303Y-71901438D02*
X146993922Y-71901438D01*
X147489160Y-72244295D02*
X147489160Y-71444295D01*
X147489160Y-71444295D02*
X147793922Y-71444295D01*
X147793922Y-71444295D02*
X147870112Y-71482390D01*
X147870112Y-71482390D02*
X147908207Y-71520485D01*
X147908207Y-71520485D02*
X147946303Y-71596676D01*
X147946303Y-71596676D02*
X147946303Y-71710961D01*
X147946303Y-71710961D02*
X147908207Y-71787152D01*
X147908207Y-71787152D02*
X147870112Y-71825247D01*
X147870112Y-71825247D02*
X147793922Y-71863342D01*
X147793922Y-71863342D02*
X147489160Y-71863342D01*
X148289160Y-72244295D02*
X148289160Y-71444295D01*
X148822493Y-71444295D02*
X148974874Y-71444295D01*
X148974874Y-71444295D02*
X149051064Y-71482390D01*
X149051064Y-71482390D02*
X149127255Y-71558580D01*
X149127255Y-71558580D02*
X149165350Y-71710961D01*
X149165350Y-71710961D02*
X149165350Y-71977628D01*
X149165350Y-71977628D02*
X149127255Y-72130009D01*
X149127255Y-72130009D02*
X149051064Y-72206200D01*
X149051064Y-72206200D02*
X148974874Y-72244295D01*
X148974874Y-72244295D02*
X148822493Y-72244295D01*
X148822493Y-72244295D02*
X148746302Y-72206200D01*
X148746302Y-72206200D02*
X148670112Y-72130009D01*
X148670112Y-72130009D02*
X148632016Y-71977628D01*
X148632016Y-71977628D02*
X148632016Y-71710961D01*
X148632016Y-71710961D02*
X148670112Y-71558580D01*
X148670112Y-71558580D02*
X148746302Y-71482390D01*
X148746302Y-71482390D02*
X148822493Y-71444295D01*
X149927254Y-72244295D02*
X149470111Y-72244295D01*
X149698683Y-72244295D02*
X149698683Y-71444295D01*
X149698683Y-71444295D02*
X149622492Y-71558580D01*
X149622492Y-71558580D02*
X149546302Y-71634771D01*
X149546302Y-71634771D02*
X149470111Y-71672866D01*
X150232016Y-71520485D02*
X150270112Y-71482390D01*
X150270112Y-71482390D02*
X150346302Y-71444295D01*
X150346302Y-71444295D02*
X150536778Y-71444295D01*
X150536778Y-71444295D02*
X150612969Y-71482390D01*
X150612969Y-71482390D02*
X150651064Y-71520485D01*
X150651064Y-71520485D02*
X150689159Y-71596676D01*
X150689159Y-71596676D02*
X150689159Y-71672866D01*
X150689159Y-71672866D02*
X150651064Y-71787152D01*
X150651064Y-71787152D02*
X150193921Y-72244295D01*
X150193921Y-72244295D02*
X150689159Y-72244295D01*
X147108207Y-68942390D02*
X147032017Y-68904295D01*
X147032017Y-68904295D02*
X146917731Y-68904295D01*
X146917731Y-68904295D02*
X146803445Y-68942390D01*
X146803445Y-68942390D02*
X146727255Y-69018580D01*
X146727255Y-69018580D02*
X146689160Y-69094771D01*
X146689160Y-69094771D02*
X146651064Y-69247152D01*
X146651064Y-69247152D02*
X146651064Y-69361438D01*
X146651064Y-69361438D02*
X146689160Y-69513819D01*
X146689160Y-69513819D02*
X146727255Y-69590009D01*
X146727255Y-69590009D02*
X146803445Y-69666200D01*
X146803445Y-69666200D02*
X146917731Y-69704295D01*
X146917731Y-69704295D02*
X146993922Y-69704295D01*
X146993922Y-69704295D02*
X147108207Y-69666200D01*
X147108207Y-69666200D02*
X147146303Y-69628104D01*
X147146303Y-69628104D02*
X147146303Y-69361438D01*
X147146303Y-69361438D02*
X146993922Y-69361438D01*
X147489160Y-69704295D02*
X147489160Y-68904295D01*
X147489160Y-68904295D02*
X147946303Y-69704295D01*
X147946303Y-69704295D02*
X147946303Y-68904295D01*
X148327255Y-69704295D02*
X148327255Y-68904295D01*
X148327255Y-68904295D02*
X148517731Y-68904295D01*
X148517731Y-68904295D02*
X148632017Y-68942390D01*
X148632017Y-68942390D02*
X148708207Y-69018580D01*
X148708207Y-69018580D02*
X148746302Y-69094771D01*
X148746302Y-69094771D02*
X148784398Y-69247152D01*
X148784398Y-69247152D02*
X148784398Y-69361438D01*
X148784398Y-69361438D02*
X148746302Y-69513819D01*
X148746302Y-69513819D02*
X148708207Y-69590009D01*
X148708207Y-69590009D02*
X148632017Y-69666200D01*
X148632017Y-69666200D02*
X148517731Y-69704295D01*
X148517731Y-69704295D02*
X148327255Y-69704295D01*
X146574874Y-66364295D02*
X146841541Y-67164295D01*
X146841541Y-67164295D02*
X147108207Y-66364295D01*
X147641540Y-66745247D02*
X147755826Y-66783342D01*
X147755826Y-66783342D02*
X147793921Y-66821438D01*
X147793921Y-66821438D02*
X147832017Y-66897628D01*
X147832017Y-66897628D02*
X147832017Y-67011914D01*
X147832017Y-67011914D02*
X147793921Y-67088104D01*
X147793921Y-67088104D02*
X147755826Y-67126200D01*
X147755826Y-67126200D02*
X147679636Y-67164295D01*
X147679636Y-67164295D02*
X147374874Y-67164295D01*
X147374874Y-67164295D02*
X147374874Y-66364295D01*
X147374874Y-66364295D02*
X147641540Y-66364295D01*
X147641540Y-66364295D02*
X147717731Y-66402390D01*
X147717731Y-66402390D02*
X147755826Y-66440485D01*
X147755826Y-66440485D02*
X147793921Y-66516676D01*
X147793921Y-66516676D02*
X147793921Y-66592866D01*
X147793921Y-66592866D02*
X147755826Y-66669057D01*
X147755826Y-66669057D02*
X147717731Y-66707152D01*
X147717731Y-66707152D02*
X147641540Y-66745247D01*
X147641540Y-66745247D02*
X147374874Y-66745247D01*
X148174874Y-66364295D02*
X148174874Y-67011914D01*
X148174874Y-67011914D02*
X148212969Y-67088104D01*
X148212969Y-67088104D02*
X148251064Y-67126200D01*
X148251064Y-67126200D02*
X148327255Y-67164295D01*
X148327255Y-67164295D02*
X148479636Y-67164295D01*
X148479636Y-67164295D02*
X148555826Y-67126200D01*
X148555826Y-67126200D02*
X148593921Y-67088104D01*
X148593921Y-67088104D02*
X148632017Y-67011914D01*
X148632017Y-67011914D02*
X148632017Y-66364295D01*
X148974873Y-67126200D02*
X149089159Y-67164295D01*
X149089159Y-67164295D02*
X149279635Y-67164295D01*
X149279635Y-67164295D02*
X149355826Y-67126200D01*
X149355826Y-67126200D02*
X149393921Y-67088104D01*
X149393921Y-67088104D02*
X149432016Y-67011914D01*
X149432016Y-67011914D02*
X149432016Y-66935723D01*
X149432016Y-66935723D02*
X149393921Y-66859533D01*
X149393921Y-66859533D02*
X149355826Y-66821438D01*
X149355826Y-66821438D02*
X149279635Y-66783342D01*
X149279635Y-66783342D02*
X149127254Y-66745247D01*
X149127254Y-66745247D02*
X149051064Y-66707152D01*
X149051064Y-66707152D02*
X149012969Y-66669057D01*
X149012969Y-66669057D02*
X148974873Y-66592866D01*
X148974873Y-66592866D02*
X148974873Y-66516676D01*
X148974873Y-66516676D02*
X149012969Y-66440485D01*
X149012969Y-66440485D02*
X149051064Y-66402390D01*
X149051064Y-66402390D02*
X149127254Y-66364295D01*
X149127254Y-66364295D02*
X149317731Y-66364295D01*
X149317731Y-66364295D02*
X149432016Y-66402390D01*
X147108207Y-63862390D02*
X147032017Y-63824295D01*
X147032017Y-63824295D02*
X146917731Y-63824295D01*
X146917731Y-63824295D02*
X146803445Y-63862390D01*
X146803445Y-63862390D02*
X146727255Y-63938580D01*
X146727255Y-63938580D02*
X146689160Y-64014771D01*
X146689160Y-64014771D02*
X146651064Y-64167152D01*
X146651064Y-64167152D02*
X146651064Y-64281438D01*
X146651064Y-64281438D02*
X146689160Y-64433819D01*
X146689160Y-64433819D02*
X146727255Y-64510009D01*
X146727255Y-64510009D02*
X146803445Y-64586200D01*
X146803445Y-64586200D02*
X146917731Y-64624295D01*
X146917731Y-64624295D02*
X146993922Y-64624295D01*
X146993922Y-64624295D02*
X147108207Y-64586200D01*
X147108207Y-64586200D02*
X147146303Y-64548104D01*
X147146303Y-64548104D02*
X147146303Y-64281438D01*
X147146303Y-64281438D02*
X146993922Y-64281438D01*
X147489160Y-64624295D02*
X147489160Y-63824295D01*
X147489160Y-63824295D02*
X147946303Y-64624295D01*
X147946303Y-64624295D02*
X147946303Y-63824295D01*
X148327255Y-64624295D02*
X148327255Y-63824295D01*
X148327255Y-63824295D02*
X148517731Y-63824295D01*
X148517731Y-63824295D02*
X148632017Y-63862390D01*
X148632017Y-63862390D02*
X148708207Y-63938580D01*
X148708207Y-63938580D02*
X148746302Y-64014771D01*
X148746302Y-64014771D02*
X148784398Y-64167152D01*
X148784398Y-64167152D02*
X148784398Y-64281438D01*
X148784398Y-64281438D02*
X148746302Y-64433819D01*
X148746302Y-64433819D02*
X148708207Y-64510009D01*
X148708207Y-64510009D02*
X148632017Y-64586200D01*
X148632017Y-64586200D02*
X148517731Y-64624295D01*
X148517731Y-64624295D02*
X148327255Y-64624295D01*
X147108207Y-61322390D02*
X147032017Y-61284295D01*
X147032017Y-61284295D02*
X146917731Y-61284295D01*
X146917731Y-61284295D02*
X146803445Y-61322390D01*
X146803445Y-61322390D02*
X146727255Y-61398580D01*
X146727255Y-61398580D02*
X146689160Y-61474771D01*
X146689160Y-61474771D02*
X146651064Y-61627152D01*
X146651064Y-61627152D02*
X146651064Y-61741438D01*
X146651064Y-61741438D02*
X146689160Y-61893819D01*
X146689160Y-61893819D02*
X146727255Y-61970009D01*
X146727255Y-61970009D02*
X146803445Y-62046200D01*
X146803445Y-62046200D02*
X146917731Y-62084295D01*
X146917731Y-62084295D02*
X146993922Y-62084295D01*
X146993922Y-62084295D02*
X147108207Y-62046200D01*
X147108207Y-62046200D02*
X147146303Y-62008104D01*
X147146303Y-62008104D02*
X147146303Y-61741438D01*
X147146303Y-61741438D02*
X146993922Y-61741438D01*
X147489160Y-62084295D02*
X147489160Y-61284295D01*
X147489160Y-61284295D02*
X147946303Y-62084295D01*
X147946303Y-62084295D02*
X147946303Y-61284295D01*
X148327255Y-62084295D02*
X148327255Y-61284295D01*
X148327255Y-61284295D02*
X148517731Y-61284295D01*
X148517731Y-61284295D02*
X148632017Y-61322390D01*
X148632017Y-61322390D02*
X148708207Y-61398580D01*
X148708207Y-61398580D02*
X148746302Y-61474771D01*
X148746302Y-61474771D02*
X148784398Y-61627152D01*
X148784398Y-61627152D02*
X148784398Y-61741438D01*
X148784398Y-61741438D02*
X148746302Y-61893819D01*
X148746302Y-61893819D02*
X148708207Y-61970009D01*
X148708207Y-61970009D02*
X148632017Y-62046200D01*
X148632017Y-62046200D02*
X148517731Y-62084295D01*
X148517731Y-62084295D02*
X148327255Y-62084295D01*
X146612969Y-58744295D02*
X147108207Y-58744295D01*
X147108207Y-58744295D02*
X146841541Y-59049057D01*
X146841541Y-59049057D02*
X146955826Y-59049057D01*
X146955826Y-59049057D02*
X147032017Y-59087152D01*
X147032017Y-59087152D02*
X147070112Y-59125247D01*
X147070112Y-59125247D02*
X147108207Y-59201438D01*
X147108207Y-59201438D02*
X147108207Y-59391914D01*
X147108207Y-59391914D02*
X147070112Y-59468104D01*
X147070112Y-59468104D02*
X147032017Y-59506200D01*
X147032017Y-59506200D02*
X146955826Y-59544295D01*
X146955826Y-59544295D02*
X146727255Y-59544295D01*
X146727255Y-59544295D02*
X146651064Y-59506200D01*
X146651064Y-59506200D02*
X146612969Y-59468104D01*
X147336779Y-58744295D02*
X147603446Y-59544295D01*
X147603446Y-59544295D02*
X147870112Y-58744295D01*
X148060588Y-58744295D02*
X148555826Y-58744295D01*
X148555826Y-58744295D02*
X148289160Y-59049057D01*
X148289160Y-59049057D02*
X148403445Y-59049057D01*
X148403445Y-59049057D02*
X148479636Y-59087152D01*
X148479636Y-59087152D02*
X148517731Y-59125247D01*
X148517731Y-59125247D02*
X148555826Y-59201438D01*
X148555826Y-59201438D02*
X148555826Y-59391914D01*
X148555826Y-59391914D02*
X148517731Y-59468104D01*
X148517731Y-59468104D02*
X148479636Y-59506200D01*
X148479636Y-59506200D02*
X148403445Y-59544295D01*
X148403445Y-59544295D02*
X148174874Y-59544295D01*
X148174874Y-59544295D02*
X148098683Y-59506200D01*
X148098683Y-59506200D02*
X148060588Y-59468104D01*
X147108207Y-56242390D02*
X147032017Y-56204295D01*
X147032017Y-56204295D02*
X146917731Y-56204295D01*
X146917731Y-56204295D02*
X146803445Y-56242390D01*
X146803445Y-56242390D02*
X146727255Y-56318580D01*
X146727255Y-56318580D02*
X146689160Y-56394771D01*
X146689160Y-56394771D02*
X146651064Y-56547152D01*
X146651064Y-56547152D02*
X146651064Y-56661438D01*
X146651064Y-56661438D02*
X146689160Y-56813819D01*
X146689160Y-56813819D02*
X146727255Y-56890009D01*
X146727255Y-56890009D02*
X146803445Y-56966200D01*
X146803445Y-56966200D02*
X146917731Y-57004295D01*
X146917731Y-57004295D02*
X146993922Y-57004295D01*
X146993922Y-57004295D02*
X147108207Y-56966200D01*
X147108207Y-56966200D02*
X147146303Y-56928104D01*
X147146303Y-56928104D02*
X147146303Y-56661438D01*
X147146303Y-56661438D02*
X146993922Y-56661438D01*
X147489160Y-57004295D02*
X147489160Y-56204295D01*
X147489160Y-56204295D02*
X147793922Y-56204295D01*
X147793922Y-56204295D02*
X147870112Y-56242390D01*
X147870112Y-56242390D02*
X147908207Y-56280485D01*
X147908207Y-56280485D02*
X147946303Y-56356676D01*
X147946303Y-56356676D02*
X147946303Y-56470961D01*
X147946303Y-56470961D02*
X147908207Y-56547152D01*
X147908207Y-56547152D02*
X147870112Y-56585247D01*
X147870112Y-56585247D02*
X147793922Y-56623342D01*
X147793922Y-56623342D02*
X147489160Y-56623342D01*
X148289160Y-57004295D02*
X148289160Y-56204295D01*
X148822493Y-56204295D02*
X148974874Y-56204295D01*
X148974874Y-56204295D02*
X149051064Y-56242390D01*
X149051064Y-56242390D02*
X149127255Y-56318580D01*
X149127255Y-56318580D02*
X149165350Y-56470961D01*
X149165350Y-56470961D02*
X149165350Y-56737628D01*
X149165350Y-56737628D02*
X149127255Y-56890009D01*
X149127255Y-56890009D02*
X149051064Y-56966200D01*
X149051064Y-56966200D02*
X148974874Y-57004295D01*
X148974874Y-57004295D02*
X148822493Y-57004295D01*
X148822493Y-57004295D02*
X148746302Y-56966200D01*
X148746302Y-56966200D02*
X148670112Y-56890009D01*
X148670112Y-56890009D02*
X148632016Y-56737628D01*
X148632016Y-56737628D02*
X148632016Y-56470961D01*
X148632016Y-56470961D02*
X148670112Y-56318580D01*
X148670112Y-56318580D02*
X148746302Y-56242390D01*
X148746302Y-56242390D02*
X148822493Y-56204295D01*
X149432016Y-56204295D02*
X149965350Y-56204295D01*
X149965350Y-56204295D02*
X149622492Y-57004295D01*
X147108207Y-53702390D02*
X147032017Y-53664295D01*
X147032017Y-53664295D02*
X146917731Y-53664295D01*
X146917731Y-53664295D02*
X146803445Y-53702390D01*
X146803445Y-53702390D02*
X146727255Y-53778580D01*
X146727255Y-53778580D02*
X146689160Y-53854771D01*
X146689160Y-53854771D02*
X146651064Y-54007152D01*
X146651064Y-54007152D02*
X146651064Y-54121438D01*
X146651064Y-54121438D02*
X146689160Y-54273819D01*
X146689160Y-54273819D02*
X146727255Y-54350009D01*
X146727255Y-54350009D02*
X146803445Y-54426200D01*
X146803445Y-54426200D02*
X146917731Y-54464295D01*
X146917731Y-54464295D02*
X146993922Y-54464295D01*
X146993922Y-54464295D02*
X147108207Y-54426200D01*
X147108207Y-54426200D02*
X147146303Y-54388104D01*
X147146303Y-54388104D02*
X147146303Y-54121438D01*
X147146303Y-54121438D02*
X146993922Y-54121438D01*
X147489160Y-54464295D02*
X147489160Y-53664295D01*
X147489160Y-53664295D02*
X147793922Y-53664295D01*
X147793922Y-53664295D02*
X147870112Y-53702390D01*
X147870112Y-53702390D02*
X147908207Y-53740485D01*
X147908207Y-53740485D02*
X147946303Y-53816676D01*
X147946303Y-53816676D02*
X147946303Y-53930961D01*
X147946303Y-53930961D02*
X147908207Y-54007152D01*
X147908207Y-54007152D02*
X147870112Y-54045247D01*
X147870112Y-54045247D02*
X147793922Y-54083342D01*
X147793922Y-54083342D02*
X147489160Y-54083342D01*
X148289160Y-54464295D02*
X148289160Y-53664295D01*
X148822493Y-53664295D02*
X148974874Y-53664295D01*
X148974874Y-53664295D02*
X149051064Y-53702390D01*
X149051064Y-53702390D02*
X149127255Y-53778580D01*
X149127255Y-53778580D02*
X149165350Y-53930961D01*
X149165350Y-53930961D02*
X149165350Y-54197628D01*
X149165350Y-54197628D02*
X149127255Y-54350009D01*
X149127255Y-54350009D02*
X149051064Y-54426200D01*
X149051064Y-54426200D02*
X148974874Y-54464295D01*
X148974874Y-54464295D02*
X148822493Y-54464295D01*
X148822493Y-54464295D02*
X148746302Y-54426200D01*
X148746302Y-54426200D02*
X148670112Y-54350009D01*
X148670112Y-54350009D02*
X148632016Y-54197628D01*
X148632016Y-54197628D02*
X148632016Y-53930961D01*
X148632016Y-53930961D02*
X148670112Y-53778580D01*
X148670112Y-53778580D02*
X148746302Y-53702390D01*
X148746302Y-53702390D02*
X148822493Y-53664295D01*
X149851064Y-53664295D02*
X149698683Y-53664295D01*
X149698683Y-53664295D02*
X149622492Y-53702390D01*
X149622492Y-53702390D02*
X149584397Y-53740485D01*
X149584397Y-53740485D02*
X149508207Y-53854771D01*
X149508207Y-53854771D02*
X149470111Y-54007152D01*
X149470111Y-54007152D02*
X149470111Y-54311914D01*
X149470111Y-54311914D02*
X149508207Y-54388104D01*
X149508207Y-54388104D02*
X149546302Y-54426200D01*
X149546302Y-54426200D02*
X149622492Y-54464295D01*
X149622492Y-54464295D02*
X149774873Y-54464295D01*
X149774873Y-54464295D02*
X149851064Y-54426200D01*
X149851064Y-54426200D02*
X149889159Y-54388104D01*
X149889159Y-54388104D02*
X149927254Y-54311914D01*
X149927254Y-54311914D02*
X149927254Y-54121438D01*
X149927254Y-54121438D02*
X149889159Y-54045247D01*
X149889159Y-54045247D02*
X149851064Y-54007152D01*
X149851064Y-54007152D02*
X149774873Y-53969057D01*
X149774873Y-53969057D02*
X149622492Y-53969057D01*
X149622492Y-53969057D02*
X149546302Y-54007152D01*
X149546302Y-54007152D02*
X149508207Y-54045247D01*
X149508207Y-54045247D02*
X149470111Y-54121438D01*
X147108207Y-51162390D02*
X147032017Y-51124295D01*
X147032017Y-51124295D02*
X146917731Y-51124295D01*
X146917731Y-51124295D02*
X146803445Y-51162390D01*
X146803445Y-51162390D02*
X146727255Y-51238580D01*
X146727255Y-51238580D02*
X146689160Y-51314771D01*
X146689160Y-51314771D02*
X146651064Y-51467152D01*
X146651064Y-51467152D02*
X146651064Y-51581438D01*
X146651064Y-51581438D02*
X146689160Y-51733819D01*
X146689160Y-51733819D02*
X146727255Y-51810009D01*
X146727255Y-51810009D02*
X146803445Y-51886200D01*
X146803445Y-51886200D02*
X146917731Y-51924295D01*
X146917731Y-51924295D02*
X146993922Y-51924295D01*
X146993922Y-51924295D02*
X147108207Y-51886200D01*
X147108207Y-51886200D02*
X147146303Y-51848104D01*
X147146303Y-51848104D02*
X147146303Y-51581438D01*
X147146303Y-51581438D02*
X146993922Y-51581438D01*
X147489160Y-51924295D02*
X147489160Y-51124295D01*
X147489160Y-51124295D02*
X147946303Y-51924295D01*
X147946303Y-51924295D02*
X147946303Y-51124295D01*
X148327255Y-51924295D02*
X148327255Y-51124295D01*
X148327255Y-51124295D02*
X148517731Y-51124295D01*
X148517731Y-51124295D02*
X148632017Y-51162390D01*
X148632017Y-51162390D02*
X148708207Y-51238580D01*
X148708207Y-51238580D02*
X148746302Y-51314771D01*
X148746302Y-51314771D02*
X148784398Y-51467152D01*
X148784398Y-51467152D02*
X148784398Y-51581438D01*
X148784398Y-51581438D02*
X148746302Y-51733819D01*
X148746302Y-51733819D02*
X148708207Y-51810009D01*
X148708207Y-51810009D02*
X148632017Y-51886200D01*
X148632017Y-51886200D02*
X148517731Y-51924295D01*
X148517731Y-51924295D02*
X148327255Y-51924295D01*
X147108207Y-48622390D02*
X147032017Y-48584295D01*
X147032017Y-48584295D02*
X146917731Y-48584295D01*
X146917731Y-48584295D02*
X146803445Y-48622390D01*
X146803445Y-48622390D02*
X146727255Y-48698580D01*
X146727255Y-48698580D02*
X146689160Y-48774771D01*
X146689160Y-48774771D02*
X146651064Y-48927152D01*
X146651064Y-48927152D02*
X146651064Y-49041438D01*
X146651064Y-49041438D02*
X146689160Y-49193819D01*
X146689160Y-49193819D02*
X146727255Y-49270009D01*
X146727255Y-49270009D02*
X146803445Y-49346200D01*
X146803445Y-49346200D02*
X146917731Y-49384295D01*
X146917731Y-49384295D02*
X146993922Y-49384295D01*
X146993922Y-49384295D02*
X147108207Y-49346200D01*
X147108207Y-49346200D02*
X147146303Y-49308104D01*
X147146303Y-49308104D02*
X147146303Y-49041438D01*
X147146303Y-49041438D02*
X146993922Y-49041438D01*
X147489160Y-49384295D02*
X147489160Y-48584295D01*
X147489160Y-48584295D02*
X147946303Y-49384295D01*
X147946303Y-49384295D02*
X147946303Y-48584295D01*
X148327255Y-49384295D02*
X148327255Y-48584295D01*
X148327255Y-48584295D02*
X148517731Y-48584295D01*
X148517731Y-48584295D02*
X148632017Y-48622390D01*
X148632017Y-48622390D02*
X148708207Y-48698580D01*
X148708207Y-48698580D02*
X148746302Y-48774771D01*
X148746302Y-48774771D02*
X148784398Y-48927152D01*
X148784398Y-48927152D02*
X148784398Y-49041438D01*
X148784398Y-49041438D02*
X148746302Y-49193819D01*
X148746302Y-49193819D02*
X148708207Y-49270009D01*
X148708207Y-49270009D02*
X148632017Y-49346200D01*
X148632017Y-49346200D02*
X148517731Y-49384295D01*
X148517731Y-49384295D02*
X148327255Y-49384295D01*
X146612969Y-46044295D02*
X147108207Y-46044295D01*
X147108207Y-46044295D02*
X146841541Y-46349057D01*
X146841541Y-46349057D02*
X146955826Y-46349057D01*
X146955826Y-46349057D02*
X147032017Y-46387152D01*
X147032017Y-46387152D02*
X147070112Y-46425247D01*
X147070112Y-46425247D02*
X147108207Y-46501438D01*
X147108207Y-46501438D02*
X147108207Y-46691914D01*
X147108207Y-46691914D02*
X147070112Y-46768104D01*
X147070112Y-46768104D02*
X147032017Y-46806200D01*
X147032017Y-46806200D02*
X146955826Y-46844295D01*
X146955826Y-46844295D02*
X146727255Y-46844295D01*
X146727255Y-46844295D02*
X146651064Y-46806200D01*
X146651064Y-46806200D02*
X146612969Y-46768104D01*
X147336779Y-46044295D02*
X147603446Y-46844295D01*
X147603446Y-46844295D02*
X147870112Y-46044295D01*
X148060588Y-46044295D02*
X148555826Y-46044295D01*
X148555826Y-46044295D02*
X148289160Y-46349057D01*
X148289160Y-46349057D02*
X148403445Y-46349057D01*
X148403445Y-46349057D02*
X148479636Y-46387152D01*
X148479636Y-46387152D02*
X148517731Y-46425247D01*
X148517731Y-46425247D02*
X148555826Y-46501438D01*
X148555826Y-46501438D02*
X148555826Y-46691914D01*
X148555826Y-46691914D02*
X148517731Y-46768104D01*
X148517731Y-46768104D02*
X148479636Y-46806200D01*
X148479636Y-46806200D02*
X148403445Y-46844295D01*
X148403445Y-46844295D02*
X148174874Y-46844295D01*
X148174874Y-46844295D02*
X148098683Y-46806200D01*
X148098683Y-46806200D02*
X148060588Y-46768104D01*
X147108207Y-43542390D02*
X147032017Y-43504295D01*
X147032017Y-43504295D02*
X146917731Y-43504295D01*
X146917731Y-43504295D02*
X146803445Y-43542390D01*
X146803445Y-43542390D02*
X146727255Y-43618580D01*
X146727255Y-43618580D02*
X146689160Y-43694771D01*
X146689160Y-43694771D02*
X146651064Y-43847152D01*
X146651064Y-43847152D02*
X146651064Y-43961438D01*
X146651064Y-43961438D02*
X146689160Y-44113819D01*
X146689160Y-44113819D02*
X146727255Y-44190009D01*
X146727255Y-44190009D02*
X146803445Y-44266200D01*
X146803445Y-44266200D02*
X146917731Y-44304295D01*
X146917731Y-44304295D02*
X146993922Y-44304295D01*
X146993922Y-44304295D02*
X147108207Y-44266200D01*
X147108207Y-44266200D02*
X147146303Y-44228104D01*
X147146303Y-44228104D02*
X147146303Y-43961438D01*
X147146303Y-43961438D02*
X146993922Y-43961438D01*
X147489160Y-44304295D02*
X147489160Y-43504295D01*
X147489160Y-43504295D02*
X147793922Y-43504295D01*
X147793922Y-43504295D02*
X147870112Y-43542390D01*
X147870112Y-43542390D02*
X147908207Y-43580485D01*
X147908207Y-43580485D02*
X147946303Y-43656676D01*
X147946303Y-43656676D02*
X147946303Y-43770961D01*
X147946303Y-43770961D02*
X147908207Y-43847152D01*
X147908207Y-43847152D02*
X147870112Y-43885247D01*
X147870112Y-43885247D02*
X147793922Y-43923342D01*
X147793922Y-43923342D02*
X147489160Y-43923342D01*
X148289160Y-44304295D02*
X148289160Y-43504295D01*
X148822493Y-43504295D02*
X148974874Y-43504295D01*
X148974874Y-43504295D02*
X149051064Y-43542390D01*
X149051064Y-43542390D02*
X149127255Y-43618580D01*
X149127255Y-43618580D02*
X149165350Y-43770961D01*
X149165350Y-43770961D02*
X149165350Y-44037628D01*
X149165350Y-44037628D02*
X149127255Y-44190009D01*
X149127255Y-44190009D02*
X149051064Y-44266200D01*
X149051064Y-44266200D02*
X148974874Y-44304295D01*
X148974874Y-44304295D02*
X148822493Y-44304295D01*
X148822493Y-44304295D02*
X148746302Y-44266200D01*
X148746302Y-44266200D02*
X148670112Y-44190009D01*
X148670112Y-44190009D02*
X148632016Y-44037628D01*
X148632016Y-44037628D02*
X148632016Y-43770961D01*
X148632016Y-43770961D02*
X148670112Y-43618580D01*
X148670112Y-43618580D02*
X148746302Y-43542390D01*
X148746302Y-43542390D02*
X148822493Y-43504295D01*
X149432016Y-43504295D02*
X149927254Y-43504295D01*
X149927254Y-43504295D02*
X149660588Y-43809057D01*
X149660588Y-43809057D02*
X149774873Y-43809057D01*
X149774873Y-43809057D02*
X149851064Y-43847152D01*
X149851064Y-43847152D02*
X149889159Y-43885247D01*
X149889159Y-43885247D02*
X149927254Y-43961438D01*
X149927254Y-43961438D02*
X149927254Y-44151914D01*
X149927254Y-44151914D02*
X149889159Y-44228104D01*
X149889159Y-44228104D02*
X149851064Y-44266200D01*
X149851064Y-44266200D02*
X149774873Y-44304295D01*
X149774873Y-44304295D02*
X149546302Y-44304295D01*
X149546302Y-44304295D02*
X149470111Y-44266200D01*
X149470111Y-44266200D02*
X149432016Y-44228104D01*
X147108207Y-41002390D02*
X147032017Y-40964295D01*
X147032017Y-40964295D02*
X146917731Y-40964295D01*
X146917731Y-40964295D02*
X146803445Y-41002390D01*
X146803445Y-41002390D02*
X146727255Y-41078580D01*
X146727255Y-41078580D02*
X146689160Y-41154771D01*
X146689160Y-41154771D02*
X146651064Y-41307152D01*
X146651064Y-41307152D02*
X146651064Y-41421438D01*
X146651064Y-41421438D02*
X146689160Y-41573819D01*
X146689160Y-41573819D02*
X146727255Y-41650009D01*
X146727255Y-41650009D02*
X146803445Y-41726200D01*
X146803445Y-41726200D02*
X146917731Y-41764295D01*
X146917731Y-41764295D02*
X146993922Y-41764295D01*
X146993922Y-41764295D02*
X147108207Y-41726200D01*
X147108207Y-41726200D02*
X147146303Y-41688104D01*
X147146303Y-41688104D02*
X147146303Y-41421438D01*
X147146303Y-41421438D02*
X146993922Y-41421438D01*
X147489160Y-41764295D02*
X147489160Y-40964295D01*
X147489160Y-40964295D02*
X147793922Y-40964295D01*
X147793922Y-40964295D02*
X147870112Y-41002390D01*
X147870112Y-41002390D02*
X147908207Y-41040485D01*
X147908207Y-41040485D02*
X147946303Y-41116676D01*
X147946303Y-41116676D02*
X147946303Y-41230961D01*
X147946303Y-41230961D02*
X147908207Y-41307152D01*
X147908207Y-41307152D02*
X147870112Y-41345247D01*
X147870112Y-41345247D02*
X147793922Y-41383342D01*
X147793922Y-41383342D02*
X147489160Y-41383342D01*
X148289160Y-41764295D02*
X148289160Y-40964295D01*
X148822493Y-40964295D02*
X148974874Y-40964295D01*
X148974874Y-40964295D02*
X149051064Y-41002390D01*
X149051064Y-41002390D02*
X149127255Y-41078580D01*
X149127255Y-41078580D02*
X149165350Y-41230961D01*
X149165350Y-41230961D02*
X149165350Y-41497628D01*
X149165350Y-41497628D02*
X149127255Y-41650009D01*
X149127255Y-41650009D02*
X149051064Y-41726200D01*
X149051064Y-41726200D02*
X148974874Y-41764295D01*
X148974874Y-41764295D02*
X148822493Y-41764295D01*
X148822493Y-41764295D02*
X148746302Y-41726200D01*
X148746302Y-41726200D02*
X148670112Y-41650009D01*
X148670112Y-41650009D02*
X148632016Y-41497628D01*
X148632016Y-41497628D02*
X148632016Y-41230961D01*
X148632016Y-41230961D02*
X148670112Y-41078580D01*
X148670112Y-41078580D02*
X148746302Y-41002390D01*
X148746302Y-41002390D02*
X148822493Y-40964295D01*
X149470111Y-41040485D02*
X149508207Y-41002390D01*
X149508207Y-41002390D02*
X149584397Y-40964295D01*
X149584397Y-40964295D02*
X149774873Y-40964295D01*
X149774873Y-40964295D02*
X149851064Y-41002390D01*
X149851064Y-41002390D02*
X149889159Y-41040485D01*
X149889159Y-41040485D02*
X149927254Y-41116676D01*
X149927254Y-41116676D02*
X149927254Y-41192866D01*
X149927254Y-41192866D02*
X149889159Y-41307152D01*
X149889159Y-41307152D02*
X149432016Y-41764295D01*
X149432016Y-41764295D02*
X149927254Y-41764295D01*
X147108207Y-38462390D02*
X147032017Y-38424295D01*
X147032017Y-38424295D02*
X146917731Y-38424295D01*
X146917731Y-38424295D02*
X146803445Y-38462390D01*
X146803445Y-38462390D02*
X146727255Y-38538580D01*
X146727255Y-38538580D02*
X146689160Y-38614771D01*
X146689160Y-38614771D02*
X146651064Y-38767152D01*
X146651064Y-38767152D02*
X146651064Y-38881438D01*
X146651064Y-38881438D02*
X146689160Y-39033819D01*
X146689160Y-39033819D02*
X146727255Y-39110009D01*
X146727255Y-39110009D02*
X146803445Y-39186200D01*
X146803445Y-39186200D02*
X146917731Y-39224295D01*
X146917731Y-39224295D02*
X146993922Y-39224295D01*
X146993922Y-39224295D02*
X147108207Y-39186200D01*
X147108207Y-39186200D02*
X147146303Y-39148104D01*
X147146303Y-39148104D02*
X147146303Y-38881438D01*
X147146303Y-38881438D02*
X146993922Y-38881438D01*
X147489160Y-39224295D02*
X147489160Y-38424295D01*
X147489160Y-38424295D02*
X147946303Y-39224295D01*
X147946303Y-39224295D02*
X147946303Y-38424295D01*
X148327255Y-39224295D02*
X148327255Y-38424295D01*
X148327255Y-38424295D02*
X148517731Y-38424295D01*
X148517731Y-38424295D02*
X148632017Y-38462390D01*
X148632017Y-38462390D02*
X148708207Y-38538580D01*
X148708207Y-38538580D02*
X148746302Y-38614771D01*
X148746302Y-38614771D02*
X148784398Y-38767152D01*
X148784398Y-38767152D02*
X148784398Y-38881438D01*
X148784398Y-38881438D02*
X148746302Y-39033819D01*
X148746302Y-39033819D02*
X148708207Y-39110009D01*
X148708207Y-39110009D02*
X148632017Y-39186200D01*
X148632017Y-39186200D02*
X148517731Y-39224295D01*
X148517731Y-39224295D02*
X148327255Y-39224295D01*
X147108207Y-35922390D02*
X147032017Y-35884295D01*
X147032017Y-35884295D02*
X146917731Y-35884295D01*
X146917731Y-35884295D02*
X146803445Y-35922390D01*
X146803445Y-35922390D02*
X146727255Y-35998580D01*
X146727255Y-35998580D02*
X146689160Y-36074771D01*
X146689160Y-36074771D02*
X146651064Y-36227152D01*
X146651064Y-36227152D02*
X146651064Y-36341438D01*
X146651064Y-36341438D02*
X146689160Y-36493819D01*
X146689160Y-36493819D02*
X146727255Y-36570009D01*
X146727255Y-36570009D02*
X146803445Y-36646200D01*
X146803445Y-36646200D02*
X146917731Y-36684295D01*
X146917731Y-36684295D02*
X146993922Y-36684295D01*
X146993922Y-36684295D02*
X147108207Y-36646200D01*
X147108207Y-36646200D02*
X147146303Y-36608104D01*
X147146303Y-36608104D02*
X147146303Y-36341438D01*
X147146303Y-36341438D02*
X146993922Y-36341438D01*
X147489160Y-36684295D02*
X147489160Y-35884295D01*
X147489160Y-35884295D02*
X147793922Y-35884295D01*
X147793922Y-35884295D02*
X147870112Y-35922390D01*
X147870112Y-35922390D02*
X147908207Y-35960485D01*
X147908207Y-35960485D02*
X147946303Y-36036676D01*
X147946303Y-36036676D02*
X147946303Y-36150961D01*
X147946303Y-36150961D02*
X147908207Y-36227152D01*
X147908207Y-36227152D02*
X147870112Y-36265247D01*
X147870112Y-36265247D02*
X147793922Y-36303342D01*
X147793922Y-36303342D02*
X147489160Y-36303342D01*
X148289160Y-36684295D02*
X148289160Y-35884295D01*
X148822493Y-35884295D02*
X148974874Y-35884295D01*
X148974874Y-35884295D02*
X149051064Y-35922390D01*
X149051064Y-35922390D02*
X149127255Y-35998580D01*
X149127255Y-35998580D02*
X149165350Y-36150961D01*
X149165350Y-36150961D02*
X149165350Y-36417628D01*
X149165350Y-36417628D02*
X149127255Y-36570009D01*
X149127255Y-36570009D02*
X149051064Y-36646200D01*
X149051064Y-36646200D02*
X148974874Y-36684295D01*
X148974874Y-36684295D02*
X148822493Y-36684295D01*
X148822493Y-36684295D02*
X148746302Y-36646200D01*
X148746302Y-36646200D02*
X148670112Y-36570009D01*
X148670112Y-36570009D02*
X148632016Y-36417628D01*
X148632016Y-36417628D02*
X148632016Y-36150961D01*
X148632016Y-36150961D02*
X148670112Y-35998580D01*
X148670112Y-35998580D02*
X148746302Y-35922390D01*
X148746302Y-35922390D02*
X148822493Y-35884295D01*
X149927254Y-36684295D02*
X149470111Y-36684295D01*
X149698683Y-36684295D02*
X149698683Y-35884295D01*
X149698683Y-35884295D02*
X149622492Y-35998580D01*
X149622492Y-35998580D02*
X149546302Y-36074771D01*
X149546302Y-36074771D02*
X149470111Y-36112866D01*
X147108207Y-33382390D02*
X147032017Y-33344295D01*
X147032017Y-33344295D02*
X146917731Y-33344295D01*
X146917731Y-33344295D02*
X146803445Y-33382390D01*
X146803445Y-33382390D02*
X146727255Y-33458580D01*
X146727255Y-33458580D02*
X146689160Y-33534771D01*
X146689160Y-33534771D02*
X146651064Y-33687152D01*
X146651064Y-33687152D02*
X146651064Y-33801438D01*
X146651064Y-33801438D02*
X146689160Y-33953819D01*
X146689160Y-33953819D02*
X146727255Y-34030009D01*
X146727255Y-34030009D02*
X146803445Y-34106200D01*
X146803445Y-34106200D02*
X146917731Y-34144295D01*
X146917731Y-34144295D02*
X146993922Y-34144295D01*
X146993922Y-34144295D02*
X147108207Y-34106200D01*
X147108207Y-34106200D02*
X147146303Y-34068104D01*
X147146303Y-34068104D02*
X147146303Y-33801438D01*
X147146303Y-33801438D02*
X146993922Y-33801438D01*
X147489160Y-34144295D02*
X147489160Y-33344295D01*
X147489160Y-33344295D02*
X147793922Y-33344295D01*
X147793922Y-33344295D02*
X147870112Y-33382390D01*
X147870112Y-33382390D02*
X147908207Y-33420485D01*
X147908207Y-33420485D02*
X147946303Y-33496676D01*
X147946303Y-33496676D02*
X147946303Y-33610961D01*
X147946303Y-33610961D02*
X147908207Y-33687152D01*
X147908207Y-33687152D02*
X147870112Y-33725247D01*
X147870112Y-33725247D02*
X147793922Y-33763342D01*
X147793922Y-33763342D02*
X147489160Y-33763342D01*
X148289160Y-34144295D02*
X148289160Y-33344295D01*
X148822493Y-33344295D02*
X148974874Y-33344295D01*
X148974874Y-33344295D02*
X149051064Y-33382390D01*
X149051064Y-33382390D02*
X149127255Y-33458580D01*
X149127255Y-33458580D02*
X149165350Y-33610961D01*
X149165350Y-33610961D02*
X149165350Y-33877628D01*
X149165350Y-33877628D02*
X149127255Y-34030009D01*
X149127255Y-34030009D02*
X149051064Y-34106200D01*
X149051064Y-34106200D02*
X148974874Y-34144295D01*
X148974874Y-34144295D02*
X148822493Y-34144295D01*
X148822493Y-34144295D02*
X148746302Y-34106200D01*
X148746302Y-34106200D02*
X148670112Y-34030009D01*
X148670112Y-34030009D02*
X148632016Y-33877628D01*
X148632016Y-33877628D02*
X148632016Y-33610961D01*
X148632016Y-33610961D02*
X148670112Y-33458580D01*
X148670112Y-33458580D02*
X148746302Y-33382390D01*
X148746302Y-33382390D02*
X148822493Y-33344295D01*
X149660588Y-33344295D02*
X149736778Y-33344295D01*
X149736778Y-33344295D02*
X149812969Y-33382390D01*
X149812969Y-33382390D02*
X149851064Y-33420485D01*
X149851064Y-33420485D02*
X149889159Y-33496676D01*
X149889159Y-33496676D02*
X149927254Y-33649057D01*
X149927254Y-33649057D02*
X149927254Y-33839533D01*
X149927254Y-33839533D02*
X149889159Y-33991914D01*
X149889159Y-33991914D02*
X149851064Y-34068104D01*
X149851064Y-34068104D02*
X149812969Y-34106200D01*
X149812969Y-34106200D02*
X149736778Y-34144295D01*
X149736778Y-34144295D02*
X149660588Y-34144295D01*
X149660588Y-34144295D02*
X149584397Y-34106200D01*
X149584397Y-34106200D02*
X149546302Y-34068104D01*
X149546302Y-34068104D02*
X149508207Y-33991914D01*
X149508207Y-33991914D02*
X149470111Y-33839533D01*
X149470111Y-33839533D02*
X149470111Y-33649057D01*
X149470111Y-33649057D02*
X149508207Y-33496676D01*
X149508207Y-33496676D02*
X149546302Y-33420485D01*
X149546302Y-33420485D02*
X149584397Y-33382390D01*
X149584397Y-33382390D02*
X149660588Y-33344295D01*
X147108207Y-81642390D02*
X147032017Y-81604295D01*
X147032017Y-81604295D02*
X146917731Y-81604295D01*
X146917731Y-81604295D02*
X146803445Y-81642390D01*
X146803445Y-81642390D02*
X146727255Y-81718580D01*
X146727255Y-81718580D02*
X146689160Y-81794771D01*
X146689160Y-81794771D02*
X146651064Y-81947152D01*
X146651064Y-81947152D02*
X146651064Y-82061438D01*
X146651064Y-82061438D02*
X146689160Y-82213819D01*
X146689160Y-82213819D02*
X146727255Y-82290009D01*
X146727255Y-82290009D02*
X146803445Y-82366200D01*
X146803445Y-82366200D02*
X146917731Y-82404295D01*
X146917731Y-82404295D02*
X146993922Y-82404295D01*
X146993922Y-82404295D02*
X147108207Y-82366200D01*
X147108207Y-82366200D02*
X147146303Y-82328104D01*
X147146303Y-82328104D02*
X147146303Y-82061438D01*
X147146303Y-82061438D02*
X146993922Y-82061438D01*
X147489160Y-82404295D02*
X147489160Y-81604295D01*
X147489160Y-81604295D02*
X147946303Y-82404295D01*
X147946303Y-82404295D02*
X147946303Y-81604295D01*
X148327255Y-82404295D02*
X148327255Y-81604295D01*
X148327255Y-81604295D02*
X148517731Y-81604295D01*
X148517731Y-81604295D02*
X148632017Y-81642390D01*
X148632017Y-81642390D02*
X148708207Y-81718580D01*
X148708207Y-81718580D02*
X148746302Y-81794771D01*
X148746302Y-81794771D02*
X148784398Y-81947152D01*
X148784398Y-81947152D02*
X148784398Y-82061438D01*
X148784398Y-82061438D02*
X148746302Y-82213819D01*
X148746302Y-82213819D02*
X148708207Y-82290009D01*
X148708207Y-82290009D02*
X148632017Y-82366200D01*
X148632017Y-82366200D02*
X148517731Y-82404295D01*
X148517731Y-82404295D02*
X148327255Y-82404295D01*
X173035545Y-92179819D02*
X172702212Y-91703628D01*
X172464117Y-92179819D02*
X172464117Y-91179819D01*
X172464117Y-91179819D02*
X172845069Y-91179819D01*
X172845069Y-91179819D02*
X172940307Y-91227438D01*
X172940307Y-91227438D02*
X172987926Y-91275057D01*
X172987926Y-91275057D02*
X173035545Y-91370295D01*
X173035545Y-91370295D02*
X173035545Y-91513152D01*
X173035545Y-91513152D02*
X172987926Y-91608390D01*
X172987926Y-91608390D02*
X172940307Y-91656009D01*
X172940307Y-91656009D02*
X172845069Y-91703628D01*
X172845069Y-91703628D02*
X172464117Y-91703628D01*
X173464117Y-91179819D02*
X173464117Y-91989342D01*
X173464117Y-91989342D02*
X173511736Y-92084580D01*
X173511736Y-92084580D02*
X173559355Y-92132200D01*
X173559355Y-92132200D02*
X173654593Y-92179819D01*
X173654593Y-92179819D02*
X173845069Y-92179819D01*
X173845069Y-92179819D02*
X173940307Y-92132200D01*
X173940307Y-92132200D02*
X173987926Y-92084580D01*
X173987926Y-92084580D02*
X174035545Y-91989342D01*
X174035545Y-91989342D02*
X174035545Y-91179819D01*
X174511736Y-92179819D02*
X174511736Y-91179819D01*
X174511736Y-91179819D02*
X175083164Y-92179819D01*
X175083164Y-92179819D02*
X175083164Y-91179819D01*
X170326009Y-105009887D02*
X170373628Y-104867030D01*
X170373628Y-104867030D02*
X170421247Y-104819411D01*
X170421247Y-104819411D02*
X170516485Y-104771792D01*
X170516485Y-104771792D02*
X170659342Y-104771792D01*
X170659342Y-104771792D02*
X170754580Y-104819411D01*
X170754580Y-104819411D02*
X170802200Y-104867030D01*
X170802200Y-104867030D02*
X170849819Y-104962268D01*
X170849819Y-104962268D02*
X170849819Y-105343220D01*
X170849819Y-105343220D02*
X169849819Y-105343220D01*
X169849819Y-105343220D02*
X169849819Y-105009887D01*
X169849819Y-105009887D02*
X169897438Y-104914649D01*
X169897438Y-104914649D02*
X169945057Y-104867030D01*
X169945057Y-104867030D02*
X170040295Y-104819411D01*
X170040295Y-104819411D02*
X170135533Y-104819411D01*
X170135533Y-104819411D02*
X170230771Y-104867030D01*
X170230771Y-104867030D02*
X170278390Y-104914649D01*
X170278390Y-104914649D02*
X170326009Y-105009887D01*
X170326009Y-105009887D02*
X170326009Y-105343220D01*
X169849819Y-104152744D02*
X169849819Y-103962268D01*
X169849819Y-103962268D02*
X169897438Y-103867030D01*
X169897438Y-103867030D02*
X169992676Y-103771792D01*
X169992676Y-103771792D02*
X170183152Y-103724173D01*
X170183152Y-103724173D02*
X170516485Y-103724173D01*
X170516485Y-103724173D02*
X170706961Y-103771792D01*
X170706961Y-103771792D02*
X170802200Y-103867030D01*
X170802200Y-103867030D02*
X170849819Y-103962268D01*
X170849819Y-103962268D02*
X170849819Y-104152744D01*
X170849819Y-104152744D02*
X170802200Y-104247982D01*
X170802200Y-104247982D02*
X170706961Y-104343220D01*
X170706961Y-104343220D02*
X170516485Y-104390839D01*
X170516485Y-104390839D02*
X170183152Y-104390839D01*
X170183152Y-104390839D02*
X169992676Y-104343220D01*
X169992676Y-104343220D02*
X169897438Y-104247982D01*
X169897438Y-104247982D02*
X169849819Y-104152744D01*
X169849819Y-103105125D02*
X169849819Y-102914649D01*
X169849819Y-102914649D02*
X169897438Y-102819411D01*
X169897438Y-102819411D02*
X169992676Y-102724173D01*
X169992676Y-102724173D02*
X170183152Y-102676554D01*
X170183152Y-102676554D02*
X170516485Y-102676554D01*
X170516485Y-102676554D02*
X170706961Y-102724173D01*
X170706961Y-102724173D02*
X170802200Y-102819411D01*
X170802200Y-102819411D02*
X170849819Y-102914649D01*
X170849819Y-102914649D02*
X170849819Y-103105125D01*
X170849819Y-103105125D02*
X170802200Y-103200363D01*
X170802200Y-103200363D02*
X170706961Y-103295601D01*
X170706961Y-103295601D02*
X170516485Y-103343220D01*
X170516485Y-103343220D02*
X170183152Y-103343220D01*
X170183152Y-103343220D02*
X169992676Y-103295601D01*
X169992676Y-103295601D02*
X169897438Y-103200363D01*
X169897438Y-103200363D02*
X169849819Y-103105125D01*
X169849819Y-102390839D02*
X169849819Y-101819411D01*
X170849819Y-102105125D02*
X169849819Y-102105125D01*
X170802200Y-101533696D02*
X170849819Y-101390839D01*
X170849819Y-101390839D02*
X170849819Y-101152744D01*
X170849819Y-101152744D02*
X170802200Y-101057506D01*
X170802200Y-101057506D02*
X170754580Y-101009887D01*
X170754580Y-101009887D02*
X170659342Y-100962268D01*
X170659342Y-100962268D02*
X170564104Y-100962268D01*
X170564104Y-100962268D02*
X170468866Y-101009887D01*
X170468866Y-101009887D02*
X170421247Y-101057506D01*
X170421247Y-101057506D02*
X170373628Y-101152744D01*
X170373628Y-101152744D02*
X170326009Y-101343220D01*
X170326009Y-101343220D02*
X170278390Y-101438458D01*
X170278390Y-101438458D02*
X170230771Y-101486077D01*
X170230771Y-101486077D02*
X170135533Y-101533696D01*
X170135533Y-101533696D02*
X170040295Y-101533696D01*
X170040295Y-101533696D02*
X169945057Y-101486077D01*
X169945057Y-101486077D02*
X169897438Y-101438458D01*
X169897438Y-101438458D02*
X169849819Y-101343220D01*
X169849819Y-101343220D02*
X169849819Y-101105125D01*
X169849819Y-101105125D02*
X169897438Y-100962268D01*
X170326009Y-100533696D02*
X170326009Y-100200363D01*
X170849819Y-100057506D02*
X170849819Y-100533696D01*
X170849819Y-100533696D02*
X169849819Y-100533696D01*
X169849819Y-100533696D02*
X169849819Y-100057506D01*
X170849819Y-99152744D02*
X170849819Y-99628934D01*
X170849819Y-99628934D02*
X169849819Y-99628934D01*
X160253809Y-73368628D02*
X160253809Y-73844819D01*
X159920476Y-72844819D02*
X160253809Y-73368628D01*
X160253809Y-73368628D02*
X160587142Y-72844819D01*
X161444285Y-73844819D02*
X160872857Y-73844819D01*
X161158571Y-73844819D02*
X161158571Y-72844819D01*
X161158571Y-72844819D02*
X161063333Y-72987676D01*
X161063333Y-72987676D02*
X160968095Y-73082914D01*
X160968095Y-73082914D02*
X160872857Y-73130533D01*
X160928095Y-66334819D02*
X160928095Y-67144342D01*
X160928095Y-67144342D02*
X160975714Y-67239580D01*
X160975714Y-67239580D02*
X161023333Y-67287200D01*
X161023333Y-67287200D02*
X161118571Y-67334819D01*
X161118571Y-67334819D02*
X161309047Y-67334819D01*
X161309047Y-67334819D02*
X161404285Y-67287200D01*
X161404285Y-67287200D02*
X161451904Y-67239580D01*
X161451904Y-67239580D02*
X161499523Y-67144342D01*
X161499523Y-67144342D02*
X161499523Y-66334819D01*
X162499523Y-67334819D02*
X161928095Y-67334819D01*
X162213809Y-67334819D02*
X162213809Y-66334819D01*
X162213809Y-66334819D02*
X162118571Y-66477676D01*
X162118571Y-66477676D02*
X162023333Y-66572914D01*
X162023333Y-66572914D02*
X161928095Y-66620533D01*
X160396666Y-40249819D02*
X160396666Y-40964104D01*
X160396666Y-40964104D02*
X160349047Y-41106961D01*
X160349047Y-41106961D02*
X160253809Y-41202200D01*
X160253809Y-41202200D02*
X160110952Y-41249819D01*
X160110952Y-41249819D02*
X160015714Y-41249819D01*
X161396666Y-41249819D02*
X160825238Y-41249819D01*
X161110952Y-41249819D02*
X161110952Y-40249819D01*
X161110952Y-40249819D02*
X161015714Y-40392676D01*
X161015714Y-40392676D02*
X160920476Y-40487914D01*
X160920476Y-40487914D02*
X160825238Y-40535533D01*
X153818095Y-43894819D02*
X153818095Y-44704342D01*
X153818095Y-44704342D02*
X153865714Y-44799580D01*
X153865714Y-44799580D02*
X153913333Y-44847200D01*
X153913333Y-44847200D02*
X154008571Y-44894819D01*
X154008571Y-44894819D02*
X154199047Y-44894819D01*
X154199047Y-44894819D02*
X154294285Y-44847200D01*
X154294285Y-44847200D02*
X154341904Y-44799580D01*
X154341904Y-44799580D02*
X154389523Y-44704342D01*
X154389523Y-44704342D02*
X154389523Y-43894819D01*
X154818095Y-43990057D02*
X154865714Y-43942438D01*
X154865714Y-43942438D02*
X154960952Y-43894819D01*
X154960952Y-43894819D02*
X155199047Y-43894819D01*
X155199047Y-43894819D02*
X155294285Y-43942438D01*
X155294285Y-43942438D02*
X155341904Y-43990057D01*
X155341904Y-43990057D02*
X155389523Y-44085295D01*
X155389523Y-44085295D02*
X155389523Y-44180533D01*
X155389523Y-44180533D02*
X155341904Y-44323390D01*
X155341904Y-44323390D02*
X154770476Y-44894819D01*
X154770476Y-44894819D02*
X155389523Y-44894819D01*
X144436666Y-83994819D02*
X144436666Y-84709104D01*
X144436666Y-84709104D02*
X144389047Y-84851961D01*
X144389047Y-84851961D02*
X144293809Y-84947200D01*
X144293809Y-84947200D02*
X144150952Y-84994819D01*
X144150952Y-84994819D02*
X144055714Y-84994819D01*
X145341428Y-84328152D02*
X145341428Y-84994819D01*
X145103333Y-83947200D02*
X144865238Y-84661485D01*
X144865238Y-84661485D02*
X145484285Y-84661485D01*
X147516666Y-90434819D02*
X147516666Y-91149104D01*
X147516666Y-91149104D02*
X147469047Y-91291961D01*
X147469047Y-91291961D02*
X147373809Y-91387200D01*
X147373809Y-91387200D02*
X147230952Y-91434819D01*
X147230952Y-91434819D02*
X147135714Y-91434819D01*
X147897619Y-90434819D02*
X148516666Y-90434819D01*
X148516666Y-90434819D02*
X148183333Y-90815771D01*
X148183333Y-90815771D02*
X148326190Y-90815771D01*
X148326190Y-90815771D02*
X148421428Y-90863390D01*
X148421428Y-90863390D02*
X148469047Y-90911009D01*
X148469047Y-90911009D02*
X148516666Y-91006247D01*
X148516666Y-91006247D02*
X148516666Y-91244342D01*
X148516666Y-91244342D02*
X148469047Y-91339580D01*
X148469047Y-91339580D02*
X148421428Y-91387200D01*
X148421428Y-91387200D02*
X148326190Y-91434819D01*
X148326190Y-91434819D02*
X148040476Y-91434819D01*
X148040476Y-91434819D02*
X147945238Y-91387200D01*
X147945238Y-91387200D02*
X147897619Y-91339580D01*
X177017200Y-103693332D02*
X177064819Y-103550475D01*
X177064819Y-103550475D02*
X177064819Y-103312380D01*
X177064819Y-103312380D02*
X177017200Y-103217142D01*
X177017200Y-103217142D02*
X176969580Y-103169523D01*
X176969580Y-103169523D02*
X176874342Y-103121904D01*
X176874342Y-103121904D02*
X176779104Y-103121904D01*
X176779104Y-103121904D02*
X176683866Y-103169523D01*
X176683866Y-103169523D02*
X176636247Y-103217142D01*
X176636247Y-103217142D02*
X176588628Y-103312380D01*
X176588628Y-103312380D02*
X176541009Y-103502856D01*
X176541009Y-103502856D02*
X176493390Y-103598094D01*
X176493390Y-103598094D02*
X176445771Y-103645713D01*
X176445771Y-103645713D02*
X176350533Y-103693332D01*
X176350533Y-103693332D02*
X176255295Y-103693332D01*
X176255295Y-103693332D02*
X176160057Y-103645713D01*
X176160057Y-103645713D02*
X176112438Y-103598094D01*
X176112438Y-103598094D02*
X176064819Y-103502856D01*
X176064819Y-103502856D02*
X176064819Y-103264761D01*
X176064819Y-103264761D02*
X176112438Y-103121904D01*
X176064819Y-102788570D02*
X177064819Y-102550475D01*
X177064819Y-102550475D02*
X176350533Y-102359999D01*
X176350533Y-102359999D02*
X177064819Y-102169523D01*
X177064819Y-102169523D02*
X176064819Y-101931428D01*
X177064819Y-101026666D02*
X177064819Y-101598094D01*
X177064819Y-101312380D02*
X176064819Y-101312380D01*
X176064819Y-101312380D02*
X176207676Y-101407618D01*
X176207676Y-101407618D02*
X176302914Y-101502856D01*
X176302914Y-101502856D02*
X176350533Y-101598094D01*
X160071905Y-93464819D02*
X160071905Y-92464819D01*
X160071905Y-92464819D02*
X160310000Y-92464819D01*
X160310000Y-92464819D02*
X160452857Y-92512438D01*
X160452857Y-92512438D02*
X160548095Y-92607676D01*
X160548095Y-92607676D02*
X160595714Y-92702914D01*
X160595714Y-92702914D02*
X160643333Y-92893390D01*
X160643333Y-92893390D02*
X160643333Y-93036247D01*
X160643333Y-93036247D02*
X160595714Y-93226723D01*
X160595714Y-93226723D02*
X160548095Y-93321961D01*
X160548095Y-93321961D02*
X160452857Y-93417200D01*
X160452857Y-93417200D02*
X160310000Y-93464819D01*
X160310000Y-93464819D02*
X160071905Y-93464819D01*
X161595714Y-93464819D02*
X161024286Y-93464819D01*
X161310000Y-93464819D02*
X161310000Y-92464819D01*
X161310000Y-92464819D02*
X161214762Y-92607676D01*
X161214762Y-92607676D02*
X161119524Y-92702914D01*
X161119524Y-92702914D02*
X161024286Y-92750533D01*
X156398095Y-49984819D02*
X156398095Y-50794342D01*
X156398095Y-50794342D02*
X156445714Y-50889580D01*
X156445714Y-50889580D02*
X156493333Y-50937200D01*
X156493333Y-50937200D02*
X156588571Y-50984819D01*
X156588571Y-50984819D02*
X156779047Y-50984819D01*
X156779047Y-50984819D02*
X156874285Y-50937200D01*
X156874285Y-50937200D02*
X156921904Y-50889580D01*
X156921904Y-50889580D02*
X156969523Y-50794342D01*
X156969523Y-50794342D02*
X156969523Y-49984819D01*
X157350476Y-49984819D02*
X157969523Y-49984819D01*
X157969523Y-49984819D02*
X157636190Y-50365771D01*
X157636190Y-50365771D02*
X157779047Y-50365771D01*
X157779047Y-50365771D02*
X157874285Y-50413390D01*
X157874285Y-50413390D02*
X157921904Y-50461009D01*
X157921904Y-50461009D02*
X157969523Y-50556247D01*
X157969523Y-50556247D02*
X157969523Y-50794342D01*
X157969523Y-50794342D02*
X157921904Y-50889580D01*
X157921904Y-50889580D02*
X157874285Y-50937200D01*
X157874285Y-50937200D02*
X157779047Y-50984819D01*
X157779047Y-50984819D02*
X157493333Y-50984819D01*
X157493333Y-50984819D02*
X157398095Y-50937200D01*
X157398095Y-50937200D02*
X157350476Y-50889580D01*
X172186667Y-98437200D02*
X172329524Y-98484819D01*
X172329524Y-98484819D02*
X172567619Y-98484819D01*
X172567619Y-98484819D02*
X172662857Y-98437200D01*
X172662857Y-98437200D02*
X172710476Y-98389580D01*
X172710476Y-98389580D02*
X172758095Y-98294342D01*
X172758095Y-98294342D02*
X172758095Y-98199104D01*
X172758095Y-98199104D02*
X172710476Y-98103866D01*
X172710476Y-98103866D02*
X172662857Y-98056247D01*
X172662857Y-98056247D02*
X172567619Y-98008628D01*
X172567619Y-98008628D02*
X172377143Y-97961009D01*
X172377143Y-97961009D02*
X172281905Y-97913390D01*
X172281905Y-97913390D02*
X172234286Y-97865771D01*
X172234286Y-97865771D02*
X172186667Y-97770533D01*
X172186667Y-97770533D02*
X172186667Y-97675295D01*
X172186667Y-97675295D02*
X172234286Y-97580057D01*
X172234286Y-97580057D02*
X172281905Y-97532438D01*
X172281905Y-97532438D02*
X172377143Y-97484819D01*
X172377143Y-97484819D02*
X172615238Y-97484819D01*
X172615238Y-97484819D02*
X172758095Y-97532438D01*
X173091429Y-97484819D02*
X173329524Y-98484819D01*
X173329524Y-98484819D02*
X173520000Y-97770533D01*
X173520000Y-97770533D02*
X173710476Y-98484819D01*
X173710476Y-98484819D02*
X173948572Y-97484819D01*
X174281905Y-97580057D02*
X174329524Y-97532438D01*
X174329524Y-97532438D02*
X174424762Y-97484819D01*
X174424762Y-97484819D02*
X174662857Y-97484819D01*
X174662857Y-97484819D02*
X174758095Y-97532438D01*
X174758095Y-97532438D02*
X174805714Y-97580057D01*
X174805714Y-97580057D02*
X174853333Y-97675295D01*
X174853333Y-97675295D02*
X174853333Y-97770533D01*
X174853333Y-97770533D02*
X174805714Y-97913390D01*
X174805714Y-97913390D02*
X174234286Y-98484819D01*
X174234286Y-98484819D02*
X174853333Y-98484819D01*
X152406666Y-95534819D02*
X152406666Y-96249104D01*
X152406666Y-96249104D02*
X152359047Y-96391961D01*
X152359047Y-96391961D02*
X152263809Y-96487200D01*
X152263809Y-96487200D02*
X152120952Y-96534819D01*
X152120952Y-96534819D02*
X152025714Y-96534819D01*
X152835238Y-95630057D02*
X152882857Y-95582438D01*
X152882857Y-95582438D02*
X152978095Y-95534819D01*
X152978095Y-95534819D02*
X153216190Y-95534819D01*
X153216190Y-95534819D02*
X153311428Y-95582438D01*
X153311428Y-95582438D02*
X153359047Y-95630057D01*
X153359047Y-95630057D02*
X153406666Y-95725295D01*
X153406666Y-95725295D02*
X153406666Y-95820533D01*
X153406666Y-95820533D02*
X153359047Y-95963390D01*
X153359047Y-95963390D02*
X152787619Y-96534819D01*
X152787619Y-96534819D02*
X153406666Y-96534819D01*
X176146666Y-84104819D02*
X176146666Y-84819104D01*
X176146666Y-84819104D02*
X176099047Y-84961961D01*
X176099047Y-84961961D02*
X176003809Y-85057200D01*
X176003809Y-85057200D02*
X175860952Y-85104819D01*
X175860952Y-85104819D02*
X175765714Y-85104819D01*
X177099047Y-84104819D02*
X176622857Y-84104819D01*
X176622857Y-84104819D02*
X176575238Y-84581009D01*
X176575238Y-84581009D02*
X176622857Y-84533390D01*
X176622857Y-84533390D02*
X176718095Y-84485771D01*
X176718095Y-84485771D02*
X176956190Y-84485771D01*
X176956190Y-84485771D02*
X177051428Y-84533390D01*
X177051428Y-84533390D02*
X177099047Y-84581009D01*
X177099047Y-84581009D02*
X177146666Y-84676247D01*
X177146666Y-84676247D02*
X177146666Y-84914342D01*
X177146666Y-84914342D02*
X177099047Y-85009580D01*
X177099047Y-85009580D02*
X177051428Y-85057200D01*
X177051428Y-85057200D02*
X176956190Y-85104819D01*
X176956190Y-85104819D02*
X176718095Y-85104819D01*
X176718095Y-85104819D02*
X176622857Y-85057200D01*
X176622857Y-85057200D02*
X176575238Y-85009580D01*
X154786666Y-109454819D02*
X154786666Y-110169104D01*
X154786666Y-110169104D02*
X154739047Y-110311961D01*
X154739047Y-110311961D02*
X154643809Y-110407200D01*
X154643809Y-110407200D02*
X154500952Y-110454819D01*
X154500952Y-110454819D02*
X154405714Y-110454819D01*
X155691428Y-109454819D02*
X155500952Y-109454819D01*
X155500952Y-109454819D02*
X155405714Y-109502438D01*
X155405714Y-109502438D02*
X155358095Y-109550057D01*
X155358095Y-109550057D02*
X155262857Y-109692914D01*
X155262857Y-109692914D02*
X155215238Y-109883390D01*
X155215238Y-109883390D02*
X155215238Y-110264342D01*
X155215238Y-110264342D02*
X155262857Y-110359580D01*
X155262857Y-110359580D02*
X155310476Y-110407200D01*
X155310476Y-110407200D02*
X155405714Y-110454819D01*
X155405714Y-110454819D02*
X155596190Y-110454819D01*
X155596190Y-110454819D02*
X155691428Y-110407200D01*
X155691428Y-110407200D02*
X155739047Y-110359580D01*
X155739047Y-110359580D02*
X155786666Y-110264342D01*
X155786666Y-110264342D02*
X155786666Y-110026247D01*
X155786666Y-110026247D02*
X155739047Y-109931009D01*
X155739047Y-109931009D02*
X155691428Y-109883390D01*
X155691428Y-109883390D02*
X155596190Y-109835771D01*
X155596190Y-109835771D02*
X155405714Y-109835771D01*
X155405714Y-109835771D02*
X155310476Y-109883390D01*
X155310476Y-109883390D02*
X155262857Y-109931009D01*
X155262857Y-109931009D02*
X155215238Y-110026247D01*
D11*
%TO.C,G\u002A\u002A\u002A*%
G36*
X159068333Y-82441666D02*
G01*
X159068931Y-82447600D01*
X159068333Y-82448333D01*
X159065360Y-82447646D01*
X159065000Y-82445000D01*
X159066829Y-82440884D01*
X159068333Y-82441666D01*
G37*
%TO.C,R7*%
D12*
X155873641Y-51640000D02*
X155566359Y-51640000D01*
X155873641Y-52400000D02*
X155566359Y-52400000D01*
%TO.C,C7*%
X162430000Y-52417836D02*
X162430000Y-52202164D01*
X163150000Y-52417836D02*
X163150000Y-52202164D01*
%TO.C,C10*%
X164300000Y-68782164D02*
X164300000Y-68997836D01*
X165020000Y-68782164D02*
X165020000Y-68997836D01*
%TO.C,R5*%
X161843641Y-68250000D02*
X161536359Y-68250000D01*
X161843641Y-69010000D02*
X161536359Y-69010000D01*
%TO.C,C6*%
X161400000Y-53207836D02*
X161400000Y-52992164D01*
X162120000Y-53207836D02*
X162120000Y-52992164D01*
%TO.C,Y1*%
X162790000Y-69230000D02*
X158670000Y-69230000D01*
X162790000Y-72650000D02*
X162790000Y-69230000D01*
%TO.C,U1*%
X158090000Y-58160000D02*
X158740000Y-58160000D01*
X158090000Y-58810000D02*
X158090000Y-58160000D01*
X158090000Y-65380000D02*
X158090000Y-64730000D01*
X158740000Y-65380000D02*
X158090000Y-65380000D01*
X164660000Y-58160000D02*
X165310000Y-58160000D01*
X165310000Y-58160000D02*
X165310000Y-58810000D01*
X165310000Y-64730000D02*
X165310000Y-65380000D01*
X165310000Y-65380000D02*
X164660000Y-65380000D01*
X157560000Y-59170000D02*
X157230000Y-59410000D01*
X157230000Y-58930000D01*
X157560000Y-59170000D01*
G36*
X157560000Y-59170000D02*
G01*
X157230000Y-59410000D01*
X157230000Y-58930000D01*
X157560000Y-59170000D01*
G37*
%TO.C,C16*%
X162990000Y-72617836D02*
X162990000Y-72402164D01*
X163710000Y-72617836D02*
X163710000Y-72402164D01*
%TO.C,C17*%
X157732836Y-51710000D02*
X157517164Y-51710000D01*
X157732836Y-52430000D02*
X157517164Y-52430000D01*
%TO.C,J1*%
X156030000Y-33150000D02*
X156030000Y-31250000D01*
X156030000Y-37050000D02*
X156030000Y-35050000D01*
X165430000Y-31250000D02*
X156030000Y-31250000D01*
X165430000Y-33150000D02*
X165430000Y-31250000D01*
X165430000Y-37050000D02*
X165430000Y-35050000D01*
%TO.C,C11*%
X163990000Y-56597836D02*
X163990000Y-56382164D01*
X164710000Y-56597836D02*
X164710000Y-56382164D01*
%TO.C,C9*%
X166182164Y-68720000D02*
X166397836Y-68720000D01*
X166182164Y-69440000D02*
X166397836Y-69440000D01*
%TO.C,R8*%
X173466359Y-93030000D02*
X173773641Y-93030000D01*
X173466359Y-93790000D02*
X173773641Y-93790000D01*
%TO.C,U2*%
X155890000Y-43660000D02*
X156890000Y-43660000D01*
X155890000Y-45180000D02*
X155890000Y-43660000D01*
X155940000Y-45180000D02*
X155890000Y-45180000D01*
X157840000Y-45180000D02*
X157060000Y-45180000D01*
X158010000Y-43660000D02*
X159010000Y-43660000D01*
X159010000Y-43660000D02*
X159010000Y-45180000D01*
X159010000Y-45180000D02*
X158960000Y-45180000D01*
X157070000Y-45720000D02*
X157400000Y-45480000D01*
X157400000Y-45960000D01*
X157070000Y-45720000D01*
G36*
X157400000Y-45960000D02*
G01*
X157070000Y-45720000D01*
X157400000Y-45480000D01*
X157400000Y-45960000D01*
G37*
%TO.C,R4*%
X163020000Y-55076359D02*
X163020000Y-55383641D01*
X163780000Y-55076359D02*
X163780000Y-55383641D01*
%TO.C,J4*%
X143380000Y-32240000D02*
X144760000Y-32240000D01*
X143380000Y-33620000D02*
X143380000Y-32240000D01*
X143380000Y-34890000D02*
X143380000Y-83260000D01*
X143380000Y-34890000D02*
X146140000Y-34890000D01*
X143380000Y-83260000D02*
X146140000Y-83260000D01*
X146140000Y-34890000D02*
X146140000Y-83260000D01*
%TO.C,R3*%
X162060000Y-55076359D02*
X162060000Y-55383641D01*
X162820000Y-55076359D02*
X162820000Y-55383641D01*
%TO.C,C5*%
X165050000Y-57147836D02*
X165050000Y-56932164D01*
X165770000Y-57147836D02*
X165770000Y-56932164D01*
%TO.C,C13*%
X156485580Y-41090000D02*
X156204420Y-41090000D01*
X156485580Y-42110000D02*
X156204420Y-42110000D01*
%TO.C,R1*%
X158770000Y-41526359D02*
X158770000Y-41833641D01*
X159530000Y-41526359D02*
X159530000Y-41833641D01*
%TO.C,J3*%
X146470000Y-91980000D02*
X147850000Y-91980000D01*
X146470000Y-93360000D02*
X146470000Y-91980000D01*
X146470000Y-94630000D02*
X146470000Y-107440000D01*
X146470000Y-94630000D02*
X149230000Y-94630000D01*
X146470000Y-107440000D02*
X149230000Y-107440000D01*
X149230000Y-94630000D02*
X149230000Y-107440000D01*
%TO.C,SW1*%
X171810000Y-100240000D02*
X172110000Y-100240000D01*
X171810000Y-104380000D02*
X171810000Y-100240000D01*
X172110000Y-104380000D02*
X171810000Y-104380000D01*
X174650000Y-100240000D02*
X174950000Y-100240000D01*
X174950000Y-100240000D02*
X174950000Y-104380000D01*
X174950000Y-104380000D02*
X174650000Y-104380000D01*
%TO.C,C4*%
X157047836Y-57880000D02*
X156832164Y-57880000D01*
X157047836Y-58600000D02*
X156832164Y-58600000D01*
%TO.C,D1*%
X157310000Y-93760000D02*
X157310000Y-99260000D01*
X157310000Y-93760000D02*
X164310000Y-93760000D01*
X157310000Y-99260000D02*
X163860000Y-99260000D01*
X158110000Y-97410000D02*
X158110000Y-95610000D01*
X163510000Y-97410000D02*
X163510000Y-95610000D01*
X163860000Y-99260000D02*
X164310000Y-98810000D01*
X164310000Y-98810000D02*
X164310000Y-93760000D01*
%TO.C,U3*%
X155954432Y-52745000D02*
X158750000Y-52745000D01*
X158750000Y-55015000D02*
X155530000Y-55015000D01*
X155660000Y-52740000D02*
X155520000Y-52550000D01*
X155800000Y-52550000D01*
X155660000Y-52740000D01*
G36*
X155660000Y-52740000D02*
G01*
X155520000Y-52550000D01*
X155800000Y-52550000D01*
X155660000Y-52740000D01*
G37*
%TO.C,R6*%
X173536359Y-106470000D02*
X173843641Y-106470000D01*
X173536359Y-107230000D02*
X173843641Y-107230000D01*
%TO.C,C12*%
X160350000Y-53207836D02*
X160350000Y-52992164D01*
X161070000Y-53207836D02*
X161070000Y-52992164D01*
%TO.C,R2*%
X161770000Y-41556359D02*
X161770000Y-41863641D01*
X162530000Y-41556359D02*
X162530000Y-41863641D01*
%TO.C,C1*%
X166609190Y-56511693D02*
X166761693Y-56359190D01*
X167118307Y-57020810D02*
X167270810Y-56868307D01*
%TO.C,SW2*%
X171410000Y-94100000D02*
X175550000Y-94100000D01*
X171410000Y-94400000D02*
X171410000Y-94100000D01*
X171410000Y-97240000D02*
X171410000Y-96940000D01*
X175550000Y-94100000D02*
X175550000Y-94400000D01*
X175550000Y-96940000D02*
X175550000Y-97240000D01*
X175550000Y-97240000D02*
X171410000Y-97240000D01*
%TO.C,J2*%
X151360000Y-97080000D02*
X152740000Y-97080000D01*
X151360000Y-98460000D02*
X151360000Y-97080000D01*
X151360000Y-99730000D02*
X151360000Y-107460000D01*
X151360000Y-99730000D02*
X154120000Y-99730000D01*
X151360000Y-107460000D02*
X154120000Y-107460000D01*
X154120000Y-99730000D02*
X154120000Y-107460000D01*
%TO.C,C15*%
X157730000Y-70762164D02*
X157730000Y-70977836D01*
X158450000Y-70762164D02*
X158450000Y-70977836D01*
%TO.C,C2*%
X162960000Y-68822164D02*
X162960000Y-69037836D01*
X163680000Y-68822164D02*
X163680000Y-69037836D01*
%TO.C,C8*%
X166772164Y-57970000D02*
X166987836Y-57970000D01*
X166772164Y-58690000D02*
X166987836Y-58690000D01*
%TO.C,C14*%
X157640580Y-46760000D02*
X157359420Y-46760000D01*
X157640580Y-47780000D02*
X157359420Y-47780000D01*
%TO.C,J5*%
X175160000Y-32240000D02*
X176540000Y-32240000D01*
X175160000Y-33620000D02*
X175160000Y-32240000D01*
X175160000Y-34890000D02*
X175160000Y-83260000D01*
X175160000Y-34890000D02*
X177920000Y-34890000D01*
X175160000Y-83260000D02*
X177920000Y-83260000D01*
X177920000Y-34890000D02*
X177920000Y-83260000D01*
%TO.C,C3*%
X154177836Y-61760000D02*
X153962164Y-61760000D01*
X154177836Y-62480000D02*
X153962164Y-62480000D01*
%TO.C,J6*%
X156810000Y-111380000D02*
X156810000Y-110000000D01*
X158190000Y-111380000D02*
X156810000Y-111380000D01*
X159460000Y-108620000D02*
X164650000Y-108620000D01*
X159460000Y-111380000D02*
X159460000Y-108620000D01*
X159460000Y-111380000D02*
X164650000Y-111380000D01*
X164650000Y-111380000D02*
X164650000Y-108620000D01*
%TD*%
M02*
